<?xml version="1.0" encoding="utf-8"?>
<!-- Generator: Adobe Illustrator 23.1.1, SVG Export Plug-In . SVG Version: 6.00 Build 0)  -->
<svg version="1.1" id="Layer_1" xmlns="http://www.w3.org/2000/svg" xmlns:xlink="http://www.w3.org/1999/xlink" x="0px" y="0px"
	 viewBox="0 0 62.57 67.5" style="enable-background:new 0 0 62.57 67.5;" xml:space="preserve">
<style type="text/css">
	.st0{fill:#F0C835;}
	.st1{fill:#488D97;}
	.st2{fill:#5096A0;}
	.st3{fill:#F47643;}
	.st4{fill:#F5804B;}
</style>
<g>
	<g>
		<path class="st0" d="M20.65,10.9c-0.24-0.24-0.56-0.36-0.9-0.35c-0.34,0.01-0.65,0.16-0.87,0.42c-2.48,2.87-3.98,6.61-3.98,10.7
			c0,4.02,1.45,7.7,3.86,10.55c0.22,0.26,0.53,0.41,0.87,0.43c0.34,0.01,0.67-0.11,0.9-0.35l0.4-0.4c0.44-0.44,0.47-1.15,0.07-1.63
			c-1.95-2.33-3.13-5.33-3.13-8.6c0-3.33,1.22-6.37,3.24-8.72c0.41-0.48,0.38-1.19-0.06-1.64L20.65,10.9z"/>
		<path class="st0" d="M43.69,10.96c-0.22-0.25-0.53-0.4-0.87-0.42c-0.33-0.01-0.66,0.11-0.9,0.35l-0.4,0.4
			c-0.45,0.45-0.47,1.16-0.06,1.64c2.02,2.35,3.24,5.39,3.24,8.72c0,3.27-1.18,6.27-3.13,8.6c-0.4,0.48-0.37,1.18,0.07,1.63l0.4,0.4
			c0.24,0.24,0.57,0.37,0.9,0.35c0.34-0.01,0.65-0.17,0.87-0.43c2.41-2.85,3.86-6.53,3.86-10.55
			C47.67,17.57,46.17,13.83,43.69,10.96z"/>
		<path class="st0" d="M15.82,7.68c0.43-0.48,0.41-1.21-0.04-1.66l-0.4-0.4c-0.23-0.23-0.55-0.36-0.88-0.35
			c-0.33,0.01-0.64,0.15-0.86,0.4C9.79,9.9,7.45,15.51,7.45,21.66c0,6.08,2.29,11.64,6.05,15.85c0.22,0.25,0.53,0.39,0.87,0.4
			c0.33,0.01,0.65-0.12,0.89-0.35l0.4-0.4c0.45-0.45,0.47-1.18,0.05-1.65c-3.28-3.69-5.28-8.54-5.28-13.85
			C10.43,16.29,12.47,11.38,15.82,7.68z"/>
		<path class="st0" d="M48.94,5.66c-0.22-0.24-0.53-0.39-0.86-0.4c-0.33-0.01-0.65,0.12-0.88,0.35l-0.4,0.4
			c-0.45,0.46-0.47,1.18-0.04,1.66c3.35,3.7,5.39,8.6,5.39,13.97c0,5.31-2,10.16-5.28,13.85c-0.42,0.48-0.4,1.2,0.05,1.65l0.4,0.4
			c0.23,0.23,0.56,0.36,0.89,0.35c0.33-0.01,0.64-0.16,0.87-0.4c3.76-4.21,6.05-9.77,6.05-15.85C55.12,15.51,52.78,9.9,48.94,5.66z"
			/>
		<path class="st0" d="M10.54,2.43c0.44-0.48,0.43-1.21-0.03-1.67l-0.4-0.4C9.87,0.12,9.56-0.01,9.23,0
			C8.9,0.01,8.59,0.15,8.37,0.39C3.18,5.97,0,13.45,0,21.66c0,8.14,3.13,15.57,8.24,21.14c0.22,0.24,0.53,0.38,0.86,0.39
			c0.33,0.01,0.65-0.12,0.88-0.35l0.4-0.4c0.46-0.46,0.47-1.19,0.04-1.67C5.8,35.72,2.98,29.01,2.98,21.66
			C2.98,14.24,5.85,7.48,10.54,2.43z"/>
		<path class="st0" d="M54.2,0.39C53.98,0.15,53.67,0.01,53.34,0c-0.33-0.01-0.64,0.12-0.88,0.35l-0.4,0.4
			c-0.46,0.46-0.47,1.2-0.03,1.67c4.69,5.05,7.56,11.81,7.56,19.23c0,7.36-2.82,14.07-7.44,19.11c-0.44,0.48-0.42,1.21,0.04,1.67
			l0.4,0.4c0.23,0.23,0.55,0.36,0.88,0.35c0.33-0.01,0.64-0.15,0.86-0.39c5.12-5.57,8.24-13,8.24-21.14
			C62.57,13.45,59.39,5.97,54.2,0.39z"/>
	</g>
	<path class="st1" d="M48.95,65.34L32.79,20.97c-0.01-0.02-0.02-0.04-0.03-0.06c-0.02-0.05-0.05-0.1-0.07-0.15
		c-0.02-0.05-0.05-0.09-0.08-0.13c-0.03-0.04-0.06-0.08-0.09-0.12c-0.03-0.04-0.07-0.08-0.11-0.12c-0.03-0.03-0.07-0.06-0.11-0.1
		c-0.04-0.04-0.09-0.07-0.13-0.1c-0.04-0.02-0.08-0.05-0.12-0.07c-0.05-0.03-0.11-0.06-0.17-0.08c-0.02-0.01-0.03-0.02-0.05-0.02
		c-0.02-0.01-0.04-0.01-0.07-0.02c-0.06-0.02-0.12-0.03-0.18-0.05c-0.05-0.01-0.09-0.02-0.14-0.02c-0.05-0.01-0.11-0.01-0.16-0.01
		c-0.05,0-0.11,0-0.16,0.01c-0.05,0.01-0.09,0.01-0.14,0.02c-0.06,0.01-0.12,0.03-0.18,0.05c-0.02,0.01-0.04,0.01-0.07,0.02
		c-0.02,0.01-0.03,0.02-0.05,0.02c-0.06,0.02-0.12,0.05-0.17,0.08c-0.04,0.02-0.08,0.04-0.12,0.07c-0.05,0.03-0.09,0.07-0.13,0.1
		c-0.04,0.03-0.07,0.06-0.11,0.1c-0.04,0.04-0.07,0.08-0.11,0.12c-0.03,0.04-0.06,0.08-0.09,0.12c-0.03,0.04-0.05,0.09-0.08,0.13
		c-0.03,0.05-0.05,0.1-0.07,0.15c-0.01,0.02-0.02,0.04-0.03,0.06L13.62,65.34c-0.3,0.83,0.13,1.76,0.96,2.06
		c0.18,0.07,0.37,0.1,0.55,0.1c0.66,0,1.27-0.41,1.51-1.06l2.09-5.75h25.1l2.09,5.75c0.24,0.65,0.85,1.06,1.51,1.06
		c0.18,0,0.37-0.03,0.55-0.1C48.82,67.1,49.25,66.18,48.95,65.34z M31.28,26.22l0.54,1.48l-1.59,1.42L31.28,26.22z M32.71,30.13
		l0.88,2.43h-3.6L32.71,30.13z M28.1,34.97h3.7l-4.9,3.3L28.1,34.97z M34.79,35.86l1.6,4.39h-8.13L34.79,35.86z M25.3,42.66h7.59
		l-9.17,4.35L25.3,42.66z M37.45,43.17l1.9,5.23H26.42L37.45,43.17z M22.33,50.81h13.05l-15.35,6.3L22.33,50.81z M23.53,58.28
		l16.9-6.94l2.52,6.94H23.53z"/>
	<path class="st2" d="M31.82,27.69l-0.54,0.48v3.23l1.43-1.27l0.88,2.43h-2.31v2.41h0.51l-0.51,0.34v2.91l3.51-2.36l1.6,4.39h-5.11
		v2.41h1.6l-1.6,0.76v2.67l6.17-2.92l1.9,5.23h-8.07v2.41h4.1l-4.1,1.68v2.61l9.15-3.75l2.52,6.94H31.28v2.41h12.55l2.09,5.75
		c0.24,0.65,0.85,1.06,1.51,1.06c0.18,0,0.37-0.03,0.55-0.1c0.83-0.3,1.26-1.23,0.96-2.06L32.79,20.97
		c-0.01-0.02-0.02-0.04-0.03-0.06c-0.02-0.05-0.05-0.1-0.07-0.15c-0.02-0.05-0.05-0.09-0.08-0.13c-0.03-0.04-0.06-0.08-0.09-0.12
		c-0.03-0.04-0.07-0.08-0.11-0.12c-0.03-0.03-0.07-0.06-0.11-0.1c-0.04-0.04-0.09-0.07-0.13-0.1c-0.04-0.02-0.08-0.05-0.12-0.07
		c-0.05-0.03-0.11-0.06-0.17-0.08c-0.02-0.01-0.03-0.02-0.05-0.02c-0.02-0.01-0.04-0.01-0.07-0.02c-0.06-0.02-0.12-0.03-0.18-0.05
		c-0.05-0.01-0.09-0.02-0.14-0.02c-0.05-0.01-0.11-0.01-0.16-0.01v6.3L31.82,27.69z"/>
	<path class="st3" d="M31.28,15.72c-3.28,0-5.94,2.66-5.94,5.94c0,3.28,2.66,5.94,5.94,5.94c3.28,0,5.94-2.66,5.94-5.94
		C37.22,18.38,34.56,15.72,31.28,15.72z"/>
	<path class="st4" d="M37.22,21.66c0-3.28-2.66-5.94-5.94-5.94v11.87C34.56,27.59,37.22,24.93,37.22,21.66z"/>
</g>
</svg>
