<?xml version="1.0" encoding="utf-8"?>
<!-- Generator: Adobe Illustrator 23.1.1, SVG Export Plug-In . SVG Version: 6.00 Build 0)  -->
<svg version="1.1" id="Layer_1" xmlns="http://www.w3.org/2000/svg" xmlns:xlink="http://www.w3.org/1999/xlink" x="0px" y="0px"
	 viewBox="0 0 54.31 67.55" style="enable-background:new 0 0 54.31 67.55;" xml:space="preserve">
<style type="text/css">
	.st0{fill:#F0C835;}
	.st1{fill:#3B5367;}
	.st2{fill:#488D97;}
	.st3{fill:#5096A0;}
	.st4{fill:#5EB9CA;}
	.st5{fill:#64C3D2;}
	.st6{fill:#F47643;}
</style>
<g>
	<g>
		<path class="st0" d="M29.16,12.59c-0.33-0.03-0.65,0.08-0.89,0.3c-0.24,0.22-0.38,0.54-0.38,0.86v0.17c0,0.61,0.46,1.11,1.07,1.17
			c2.56,0.22,5.05,1.31,7,3.26c1.99,1.99,3.08,4.55,3.27,7.16c0.03,0.43,0.39,0.76,0.82,0.77h0.49c0.33,0,0.65-0.14,0.87-0.39
			c0.22-0.25,0.33-0.57,0.3-0.9c-0.3-3.07-1.62-6.06-3.97-8.41C35.34,14.19,32.29,12.86,29.16,12.59z"/>
		<path class="st0" d="M29.12,6.29c-0.32-0.02-0.64,0.1-0.87,0.32c-0.23,0.22-0.37,0.53-0.37,0.85v0.17c0,0.62,0.48,1.13,1.1,1.17
			c4.16,0.24,8.24,1.94,11.41,5.11c3.21,3.21,4.92,7.37,5.12,11.58c0.02,0.44,0.38,0.78,0.82,0.78h0.5c0.32,0,0.63-0.13,0.86-0.37
			c0.22-0.24,0.33-0.55,0.31-0.88c-0.31-4.7-2.25-9.31-5.83-12.9C38.55,8.51,33.88,6.57,29.12,6.29z"/>
		<path class="st0" d="M29.11,0c-0.32-0.01-0.63,0.1-0.86,0.32c-0.23,0.22-0.36,0.53-0.36,0.85c0,0.72,0.56,1.31,1.28,1.35
			c5.71,0.29,11.33,2.6,15.68,6.95c4.35,4.35,6.67,9.98,6.95,15.7c0.03,0.62,0.54,1.11,1.17,1.11h0.21c0.31,0,0.61-0.13,0.82-0.35
			c0.21-0.23,0.33-0.53,0.31-0.84c-0.3-6.33-2.86-12.58-7.69-17.4C41.77,2.84,35.48,0.28,29.11,0z"/>
	</g>
	<g>
		<path class="st1" d="M14.65,66.05c-0.92,0-7,0-7.92,0c0.02-0.35,1.32-22.6,1.32-22.61c2.55,0,3.12,0,5.28,0
			C13.9,53.29,13.7,49.8,14.65,66.05z"/>
	</g>
	<g>
		<path class="st2" d="M17.98,66.17c-1.7,0-12.88,0-14.57,0c0.04-0.23,2.43-15.02,2.43-15.03c4.69,0,5.75,0,9.71,0
			C16.6,57.68,16.23,55.36,17.98,66.17z"/>
	</g>
	<path class="st3" d="M17.98,66.17c-1.75-10.81-1.37-8.49-2.43-15.03h-4.86v15.03C13.91,66.17,17.12,66.17,17.98,66.17z"/>
	<rect y="63.56" class="st4" width="25.18" height="3.99"/>
	<g>
		
			<rect x="23.61" y="24.85" transform="matrix(0.7075 -0.7067 0.7067 0.7075 -10.0589 27.2034)" class="st2" width="8.44" height="1.8"/>
		<rect x="18.22" y="21.87" class="st2" width="12.6" height="1.8"/>
		<rect x="29.92" y="22.77" class="st2" width="1.8" height="12.6"/>
	</g>
	<path class="st2" d="M16.93,42.13c0,3.08-2.49,5.57-5.57,5.57c-3.08,0-5.57-2.49-5.57-5.57s2.49-5.57,5.57-5.57
		C14.44,36.57,16.93,39.06,16.93,42.13z"/>
	<path class="st4" d="M11.36,42.13c7.42,7.42,19.46,7.42,26.89,0L11.36,15.25C3.94,22.67,3.94,34.71,11.36,42.13z"/>
	<path class="st5" d="M38.25,42.13L24.93,28.82L11.49,42.25C18.93,49.55,30.87,49.51,38.25,42.13z"/>
	<path class="st6" d="M33.12,25.07c-1.27,1.27-3.33,1.27-4.6,0c-1.27-1.27-1.27-3.33,0-4.6c1.27-1.27,3.33-1.27,4.6,0
		C34.38,21.74,34.38,23.8,33.12,25.07z"/>
</g>
</svg>
