<?xml version="1.0" encoding="utf-8"?>
<!-- Generator: Adobe Illustrator 23.1.1, SVG Export Plug-In . SVG Version: 6.00 Build 0)  -->
<svg version="1.1" id="Layer_1" xmlns="http://www.w3.org/2000/svg" xmlns:xlink="http://www.w3.org/1999/xlink" x="0px" y="0px"
	 viewBox="0 0 333.69 158.63" style="enable-background:new 0 0 333.69 158.63;" xml:space="preserve">
<style type="text/css">
	.st0{fill:#778837;}
	.st1{fill:#15141E;}
	.st2{fill:#EBDD8C;}
	.st3{fill:#9379B7;}
	.st4{fill:#6C5685;}
	.st5{fill:#48395B;}
	.st6{fill:#494164;}
	.st7{fill:#35C0CC;}
	.st8{fill:#1AA4B7;}
	.st9{fill:#272918;}
	.st10{fill:#FEEFEE;}
	.st11{fill:#463C4D;}
	.st12{fill:#DD652D;}
	.st13{fill:#F2E4A0;}
	.st14{fill:#FCF5D7;}
	.st15{fill:#93AA3C;}
	.st16{fill:#391C0F;}
</style>
<g>
	<path class="st0" d="M316.89,154.39c0.22-1.06,0.35-2.17,0.35-3.32c0-6.71-4.04-12.25-9.3-13.23c-1.17-7.87-6.36-13.8-12.59-13.8
		c-6.19,0-11.36,5.86-12.57,13.66c-0.15-0.01-0.3-0.03-0.45-0.03c-5.2,0-9.42,5.64-9.42,12.6c0,1.44,0.19,2.82,0.52,4.11H316.89z"/>
	<rect x="37.1" y="61.35" class="st1" width="37.55" height="7.2"/>
	<polygon class="st2" points="195.77,73.79 73.82,73.79 73.82,6.25 195.77,40.02 	"/>
	<polygon class="st3" points="284.54,152.96 46.04,152.96 46.04,147.43 51.7,147.43 48.57,82.32 46.04,82.32 46.04,67.48 
		308.3,25.68 	"/>
	<polygon class="st4" points="204.8,43.05 204.8,152.96 285.73,152.96 308.3,25.68 	"/>
	<g>
		<polygon class="st5" points="304.01,49.85 303.61,52.13 204.8,52.13 204.8,49.85 		"/>
		<polygon class="st5" points="301.78,62.46 301.38,64.74 204.8,64.74 204.8,62.46 		"/>
		<polygon class="st5" points="299.55,75.06 299.14,77.34 204.8,77.34 204.8,75.06 		"/>
		<polygon class="st5" points="297.31,87.66 296.91,89.94 204.8,89.94 204.8,87.66 		"/>
		<polygon class="st5" points="295.08,100.27 294.67,102.54 204.8,102.54 204.8,100.27 		"/>
		<polygon class="st5" points="292.85,112.87 292.44,115.15 204.8,115.15 204.8,112.87 		"/>
		<polygon class="st5" points="290.6,125.48 290.2,127.76 204.8,127.76 204.8,125.48 		"/>
		<polygon class="st5" points="288.37,138.08 287.97,140.35 204.8,140.35 204.8,138.08 		"/>
		<polygon class="st5" points="286.14,150.68 285.73,152.96 204.8,152.96 204.8,150.68 		"/>
	</g>
	<polygon class="st5" points="305.97,38.87 305.56,41.14 216.21,41.14 229.75,38.87 	"/>
	<polygon class="st5" points="307.92,27.83 307.52,30.11 281.91,30.11 295.5,27.83 	"/>
	<g>
		
			<rect x="33.85" y="43.48" transform="matrix(0.9858 -0.1682 0.1682 0.9858 -5.5409 30.8798)" class="st6" width="291.31" height="9.34"/>
	</g>
	<g>
		<polygon class="st6" points="203.44,45.51 63.4,6.75 65.27,0 207.72,39.43 		"/>
	</g>
	<g>
		<path class="st1" d="M73.82,49.31H34.13c-0.64,0-1.17-0.52-1.17-1.17l0,0c0-0.64,0.52-1.17,1.17-1.17h39.69V49.31z"/>
	</g>
	<g>
		<rect x="37.68" y="48.15" class="st1" width="1.56" height="14.08"/>
	</g>
	<g>
		<rect x="43.42" y="48.15" class="st1" width="1.56" height="14.08"/>
	</g>
	<g>
		<rect x="49.25" y="48.15" class="st1" width="1.56" height="14.08"/>
	</g>
	<g>
		<rect x="55.36" y="48.15" class="st1" width="1.56" height="14.08"/>
	</g>
	<g>
		<rect x="61.8" y="48.15" class="st1" width="1.56" height="14.08"/>
	</g>
	<g>
		<rect x="67.42" y="48.15" class="st1" width="1.56" height="14.08"/>
	</g>
	<g>
		<rect x="234.4" y="54.76" class="st7" width="28.84" height="68.09"/>
		<g>
			<polygon class="st8" points="244.64,59.68 263.24,59.68 263.24,54.76 234.4,54.76 234.4,122.85 244.64,122.85 			"/>
			<path class="st9" d="M233.1,53.69v70.24h15.57h1.04h14.83V53.69H233.1z M261.94,73.95h-12.23V55.83h12.23V73.95z M249.71,74.81
				h12.23v17.77h-12.23V74.81z M248.67,55.83v18.13H235.7V55.83H248.67z M248.67,92.59H235.7V74.81h12.97V92.59z M235.7,121.78
				V93.44h12.97v28.34H235.7z M249.71,121.78V93.44h12.23v28.34H249.71z"/>
		</g>
	</g>
	<polygon class="st9" points="145.27,147.43 48.18,147.43 46.04,82.32 145.27,82.32 	"/>
	<polygon class="st7" points="141.76,83.96 141.76,145.79 48.13,145.79 46.1,83.96 	"/>
	<polygon class="st8" points="46.1,83.96 46.44,94.47 131.4,94.72 131.4,145.79 141.76,145.79 141.76,83.96 	"/>
	<polygon class="st9" points="46.44,94.43 60.05,94.43 60.05,83.66 61.8,83.66 61.8,94.43 78.43,94.43 78.43,83.66 80.18,83.66 
		80.18,94.43 94.78,94.43 94.78,83.66 96.53,83.66 96.53,94.43 110.64,94.43 110.64,83.73 112.39,83.73 112.39,94.2 126.01,94.43 
		126.01,83.66 127.76,83.66 127.76,94.43 141.76,94.43 142.84,94.43 142.84,95.59 141.76,95.59 127.76,95.59 127.76,145.94 
		126.01,145.97 126.01,95.59 112.39,95.59 112.39,145.94 110.64,145.97 110.64,95.59 96.53,95.59 96.53,146.11 94.78,146.1 
		94.78,95.59 80.18,95.59 80.18,146.23 78.43,146.23 78.43,95.59 61.8,95.59 61.8,146.08 60.05,146.08 60.05,95.59 46.48,95.59 	"/>
	<g>
		<rect x="76.8" y="24.6" class="st7" width="43.59" height="12.61"/>
		<polygon class="st8" points="80.29,28.13 120.38,28.13 120.38,24.6 76.8,24.6 76.8,37.21 80.29,37.21 		"/>
		<path class="st10" d="M76.31,24.1v13.6h44.56V24.1H76.31z M90.76,36.71H77.28V25.09h13.48V36.71z M106.55,36.71H91.79V25.09h14.76
			V36.71z M119.89,36.71h-12.31V25.09h12.31V36.71z"/>
	</g>
	<rect x="170.43" y="92.37" class="st9" width="25.34" height="60.59"/>
	<rect x="170.43" y="92.37" class="st11" width="21.53" height="60.59"/>
	<path class="st12" d="M175.57,124.07c0,0.78-0.63,1.41-1.41,1.41c-0.78,0-1.41-0.63-1.41-1.41c0-0.78,0.63-1.41,1.41-1.41
		C174.94,122.66,175.57,123.29,175.57,124.07z"/>
	<g>
		<path class="st12" d="M188.39,83.75c0,2.92-2.37,5.3-5.3,5.3c-2.93,0-5.3-2.37-5.3-5.3c0-2.93,2.37-5.3,5.3-5.3
			C186.02,78.45,188.39,80.82,188.39,83.75z"/>
		<path class="st13" d="M188.07,83.75c0,2.75-2.23,4.97-4.97,4.97c-2.75,0-4.97-2.23-4.97-4.97s2.23-4.97,4.97-4.97
			C185.84,78.77,188.07,81,188.07,83.75z"/>
		<path class="st14" d="M179.21,84.65c0-2.75,2.23-4.97,4.97-4.97c0.96,0,1.85,0.27,2.6,0.74c-0.91-1.01-2.22-1.65-3.69-1.65
			c-2.75,0-4.97,2.23-4.97,4.97c0,1.79,0.95,3.35,2.37,4.23C179.7,87.1,179.21,85.93,179.21,84.65z"/>
	</g>
	<path class="st15" d="M49.88,153.21c0.16-0.52,0.25-1.06,0.25-1.62c0-3.28-2.84-5.99-6.53-6.47c-0.82-3.85-4.46-6.75-8.84-6.75
		c-4.35,0-7.98,2.87-8.83,6.68c-0.11,0-0.21-0.02-0.32-0.02c-3.65,0-6.61,2.76-6.61,6.16c0,0.71,0.13,1.38,0.37,2.01H49.88z"/>
	<rect y="152.96" class="st16" width="333.69" height="5.67"/>
</g>
</svg>
