<?xml version="1.0" encoding="utf-8"?>
<!-- Generator: Adobe Illustrator 23.1.1, SVG Export Plug-In . SVG Version: 6.00 Build 0)  -->
<svg version="1.1" id="Layer_1" xmlns="http://www.w3.org/2000/svg" xmlns:xlink="http://www.w3.org/1999/xlink" x="0px" y="0px"
	 viewBox="0 0 194.99 139.83" style="enable-background:new 0 0 194.99 139.83;" xml:space="preserve">
<style type="text/css">
	.st0{fill:#7E2E46;}
	.st1{fill:#E4624D;}
	.st2{fill:#46384E;}
	.st3{fill:#A3868B;}
	.st4{fill:#E3CEC3;}
	.st5{fill:#D4BCB6;}
	.st6{fill:#8D633A;}
	.st7{fill:#544842;}
	.st8{fill:#574963;}
	.st9{fill:#FFFBE6;}
	.st10{fill:#637171;}
</style>
<g>
	<g>
		<polygon class="st0" points="186.17,129.78 186.18,128.59 194.54,128.59 194.48,139.79 160.83,139.79 160.83,128.59 
			172.85,128.59 172.86,129.78 183.75,129.78 		"/>
		<polygon class="st1" points="124.91,129.78 128.36,129.78 148.34,129.78 148.36,128.59 160.83,128.59 160.83,139.79 
			114.58,139.79 114.66,128.59 124.9,128.59 		"/>
		<polygon class="st1" points="89.81,128.59 89.89,139.79 46.88,139.79 46.61,128.59 56.44,128.59 56.46,129.78 59.91,129.78 
			79.57,129.78 79.58,128.59 		"/>
		<polygon class="st2" points="184,101.17 183.75,129.78 172.86,129.78 172.85,128.59 172.62,101.17 		"/>
		<polygon class="st2" points="178.31,81.96 179.97,87.22 172.5,87.22 172.44,79.92 		"/>
		<polygon class="st2" points="79.82,101.17 79.58,128.59 79.57,129.78 59.91,129.78 59.54,101.17 		"/>
		<polygon class="st2" points="114.84,101.17 114.66,128.59 114.58,139.79 93.34,139.79 93.08,101.17 		"/>
		<polygon class="st2" points="148.36,128.59 148.34,129.78 128.36,129.78 128.1,101.17 148.71,101.17 		"/>
		<polygon class="st2" points="149.07,73.72 148.89,87.22 127.97,87.22 127.88,76.98 138.4,77.75 140.4,72.51 149.06,73.72 		"/>
		<polygon class="st2" points="115.11,72.39 114.97,87.22 92.95,87.22 92.87,78.26 102.99,76.47 102.99,63.83 112.57,60.9 
			115.1,72.39 		"/>
		<polygon class="st2" points="80.03,78.26 79.95,87.22 59.36,87.22 59.06,64.09 67.25,64.09 67.25,57.7 75.16,57.7 77.21,77.49 		
			"/>
		<polygon class="st3" points="56.44,128.59 56.09,101.17 59.54,101.17 59.91,129.78 56.46,129.78 		"/>
		<polygon class="st3" points="89.81,128.59 89.63,101.17 93.08,101.17 93.34,139.79 89.89,139.79 		"/>
		<polygon class="st3" points="128.1,101.17 128.36,129.78 124.91,129.78 124.9,128.59 124.65,101.17 		"/>
		<polygon class="st3" points="122.97,65.81 123.54,71.08 121.33,70.67 120.65,65.36 		"/>
		<polygon class="st3" points="127.88,76.98 127.97,87.22 124.53,87.22 124.38,71.24 127.83,72.07 		"/>
		<polygon class="st3" points="92.87,78.26 92.95,87.22 89.51,87.22 89.21,54.12 92.65,54.12 		"/>
		<polygon class="st3" points="104.65,44.81 103.12,54.12 100.19,54.12 101.59,44.49 		"/>
		<polygon class="st3" points="99.87,40.17 99.01,44.15 95.27,43.66 95.85,40.17 		"/>
		<polygon class="st3" points="92.42,29.04 92.52,40.17 89.08,40.17 88.97,28 		"/>
		<polygon class="st3" points="59.06,64.09 59.36,87.22 55.91,87.22 55.48,54.12 58.93,54.12 		"/>
		<polygon class="st3" points="58.32,7.07 58.75,40.17 55.3,40.17 54.87,0 58.32,1.11 		"/>
		<polygon class="st4" points="191.33,49.73 189.74,62.75 187.22,62.99 188.97,50.05 		"/>
		<polygon class="st4" points="186.41,101.17 186.18,128.59 186.17,129.78 183.75,129.78 184,101.17 		"/>
		<polygon class="st4" points="186.74,63.03 186.53,87.22 184.12,87.22 184.32,63.26 		"/>
		<polygon class="st3" points="187.22,62.99 189.74,62.75 191.33,49.73 194.99,49.47 194.54,128.59 186.18,128.59 186.41,101.17 
			184,101.17 172.62,101.17 172.85,128.59 160.83,128.59 160.83,38.49 166.51,38.49 167.78,71.08 172.37,72.07 172.44,79.92 
			172.5,87.22 179.97,87.22 184.12,87.22 186.53,87.22 186.74,63.03 		"/>
		<path class="st4" d="M124.38,71.24l0.15,15.98h3.44h20.92l0.18-13.5l0.25-19.6h-13.96l1.5-6.69l13.07-0.51l2.02-8.43h8.88v90.1
			h-12.47l0.35-27.42H128.1h-3.45l0.25,27.42h-10.24l0.18-27.42H93.08h-3.45l0.18,27.42H79.58l0.24-27.42H59.54h-3.45l0.35,27.42
			h-9.83H46.6L43.94,20.01l3.69-1.2L46.7,1.96L54.87,0l0.43,40.17h3.45h21.63l0.13-14.67v-0.05L88.97,28l0.11,12.17h3.44h3.33
			l-0.58,3.49l3.74,0.49l2.58,0.34l-1.4,9.63h-7.54h-3.44l0.3,33.1h3.44h22.02l0.14-14.83l0.07-8.11v-0.02l5.47,1.1l0.68,5.31
			l2.21,0.41L124.38,71.24z M80.03,78.26l0.22-24.14H58.93h-3.45l0.43,33.1h3.45h20.59L80.03,78.26z"/>
		<path class="st4" d="M124.38,71.24l0.15,15.98h3.44h20.92l0.18-13.5l0.25-19.6h-13.96l1.5-6.69l13.07-0.51l2.02-8.43h8.88v90.1
			h-12.47l0.35-27.42H128.1h-3.45l0.25,27.42h-10.24l0.18-27.42H93.08h-3.45l0.18,27.42H79.58l0.24-27.42H59.54h-3.45l0.35,27.42
			h-9.83H46.6L43.94,20.01l3.69-1.2L46.7,1.96L54.87,0l0.43,40.17h3.45h21.63l0.13-14.67v-0.05L88.97,28l0.11,12.17h3.44h3.33
			l-0.58,3.49l3.74,0.49l2.58,0.34l-1.4,9.63h-7.54h-3.44l0.3,33.1h3.44h22.02l0.14-14.83l0.07-8.11v-0.02l5.47,1.1l0.68,5.31
			l2.21,0.41L124.38,71.24z M80.03,78.26l0.22-24.14H58.93h-3.45l0.43,33.1h3.45h20.59L80.03,78.26z"/>
		<g>
			<polygon class="st5" points="56.3,117.67 52.35,117.67 52.35,121.45 56.35,121.45 			"/>
			<polygon class="st5" points="55.83,81.21 51.44,81.21 51.44,84.39 55.87,84.39 			"/>
			<polygon class="st5" points="79.81,101.88 85.5,101.88 85.5,98.64 78.59,98.64 78.59,101.17 79.82,101.17 			"/>
			<rect x="46.04" y="71.82" class="st5" width="8.1" height="3.8"/>
			<rect x="81.03" y="66.33" class="st5" width="7.27" height="3.41"/>
			<polygon class="st5" points="44.4,38.61 45.92,38.61 45.92,35.1 44.31,35.1 			"/>
			<polygon class="st5" points="48.73,64.3 45.03,64.3 45.11,67.76 48.73,67.76 			"/>
			<polygon class="st5" points="64.57,87.22 59.36,87.22 57.04,87.22 57.04,89.69 64.57,89.69 			"/>
			<polygon class="st5" points="114.7,122.08 121.12,122.08 121.12,118.48 114.73,118.48 			"/>
			<polygon class="st5" points="52.74,17.84 55.06,17.84 55.03,14.62 52.74,14.62 			"/>
			<polygon class="st5" points="49.81,52.49 44.74,52.49 44.81,55.64 49.81,55.64 			"/>
			<rect x="85.85" y="93.32" class="st5" width="7.82" height="3.67"/>
			<polygon class="st5" points="124.73,109.96 121.1,109.96 121.1,113.37 124.76,113.37 			"/>
			<rect x="132.09" y="93.99" class="st5" width="7.51" height="3.52"/>
			<polygon class="st5" points="154.36,101.38 148.71,101.38 148.66,105.12 154.36,105.12 			"/>
			<rect x="131.71" y="87.4" class="st5" width="7.31" height="3.43"/>
			<polygon class="st5" points="113.67,87.9 120.67,87.9 120.67,84.62 114.99,84.62 114.97,87.22 113.67,87.22 			"/>
			<rect x="148.71" y="123.52" class="st5" width="6.75" height="3.17"/>
			<rect x="155.71" y="116.91" class="st5" width="5.12" height="3.8"/>
			<rect x="114.86" y="91.24" class="st5" width="6.88" height="3.23"/>
			<rect x="156.24" y="86.87" class="st5" width="4.59" height="3.26"/>
			<rect x="139.72" y="96.03" class="st5" width="7.01" height="3.29"/>
			<polygon class="st5" points="151.93,108.8 149.81,108.8 149.81,112.13 156.89,112.13 156.89,109.15 159.89,109.15 159.89,105.42 
				151.93,105.42 			"/>
			<rect x="144.52" y="87.24" class="st5" width="7.93" height="3.72"/>
		</g>
		<g>
			<polygon class="st3" points="79.82,101.17 79.77,106.45 80.73,103.33 85.76,91.32 89.45,80.82 89.44,79.72 89.32,79.81 
				85.06,91.06 80.25,101.87 80.33,100.22 81.13,92.56 81.49,90.59 81.76,88.5 81.7,84.3 81.3,80.17 81.48,76.1 82.5,72.14 
				83.25,70.2 83.9,68.15 84.3,63.94 84.31,61.92 84.62,59.99 87.58,52.71 89.85,45.71 93.36,40.17 92.94,40.17 89.42,45.5 
				87,52.51 83.9,59.8 83.52,61.86 83.48,63.94 83.03,67.95 81.6,71.81 80.47,75.94 80.22,80.23 80.55,84.39 80.55,88.41 
				80.28,90.35 79.89,92.34 78.97,100.16 78.84,101.17 			"/>
			<polygon class="st3" points="48.36,104.93 50.72,103.9 51.72,103.49 50.65,103.68 48.13,104.21 46.01,104.62 46.04,105.8 			"/>
			<polygon class="st3" points="61.27,41.42 62.64,45.95 63.62,49.75 63.77,50.96 63.8,51.41 63.83,50.96 63.86,49.73 63.37,45.76 
				62.51,41.18 62.46,40.17 61.14,40.17 			"/>
			<polygon class="st3" points="45.72,92.59 47.86,93.14 51.15,93.35 53.84,93.65 54.65,93.87 54.95,93.96 54.68,93.81 53.91,93.43 
				51.25,92.6 48.1,91.9 45.73,91.07 45.68,91.18 			"/>
			<polygon class="st3" points="51.18,47.6 50.36,49.02 51.38,47.72 53.55,44.43 56.04,40.17 55.3,40.17 55.29,39 52.89,44.09 			
				"/>
			<polygon class="st3" points="69.29,45.64 67.04,51.07 69.95,45.98 73.41,40.17 71.94,40.17 			"/>
			<polygon class="st3" points="160.83,94.39 158.92,94.06 155.21,92.6 156.16,93.34 158.66,94.76 160.83,95.42 			"/>
			<polygon class="st3" points="100.97,89.18 101.19,87.22 100.12,87.22 100.22,89.11 100.06,92.09 			"/>
			<polygon class="st3" points="153.89,126.5 154.84,121.19 155.5,116.75 155.89,114.9 155.27,116.69 154.1,121.05 152.68,126.14 
				151.61,128.59 153.1,128.59 			"/>
			<polygon class="st3" points="149.13,68.92 149.11,70.3 149.9,70 150.94,69.3 151.66,68.28 152.39,66.55 150.68,74.57 
				149.02,77.42 148.99,79.74 151.86,75.02 154.08,64.7 154.34,63.2 154.51,62.88 155.27,60.96 156.25,57.24 157.21,53.86 
				158.75,51.08 160.83,48.57 160.83,46.22 157.56,50.2 155.84,53.35 155.09,55.93 153.94,57.95 153.54,60 153.44,60.47 
				153.3,61.01 153.04,62.14 152.9,63 152.32,63.95 151.27,65.79 150.49,67.69 149.33,68.84 			"/>
			<polygon class="st3" points="137.81,101.17 138.58,99.27 139.83,93.93 141.5,88.56 142.33,87.22 141.27,87.22 140.68,88.23 
				139.1,93.77 137.99,99.1 137.22,101.17 			"/>
			<polygon class="st3" points="103.72,97.95 104.63,95.69 105.96,93.54 108.06,89.75 108.47,88.48 108.57,88 108.41,88.46 
				107.85,89.65 105.35,93.1 103.76,95.14 102.54,97.5 100.7,100.94 100.95,101.17 102.18,101.17 			"/>
			<polygon class="st3" points="118.09,114.15 119.88,111.7 120.89,108.54 119.66,105.21 119.01,103.56 118.8,101.75 118.36,97.84 
				116.74,94.13 117.5,86.38 124.12,81.25 124.47,81.17 124.46,80.26 123.8,80.42 116.87,85.99 115.45,90.15 116.17,94.36 
				117.84,98 118.32,101.77 118.59,103.67 119.29,105.4 120.54,108.56 119.64,111.55 117.91,114 114.74,117.07 114.73,117.28 			"/>
		</g>
		<polygon class="st6" points="59.59,104.9 79.77,106.77 79.73,111.8 59.66,110.62 		"/>
		<polygon class="st6" points="59.71,114.39 79.71,113.75 79.67,118.56 59.71,117.67 		"/>
		<polygon class="st6" points="59.8,121.45 79.64,121.83 79.61,125.45 59.91,126.68 		"/>
		<polygon class="st6" points="128.13,104.64 148.64,106.43 148.58,111.67 128.19,111.36 		"/>
		<polygon class="st6" points="128.24,116.15 148.52,116.15 148.46,120.7 128.36,122.08 		"/>
		<polygon class="st6" points="91.49,101.17 91.49,139.79 100.06,139.79 98.44,103.49 		"/>
		<polygon class="st7" points="91.49,101.17 94.22,101.17 100.89,102.99 101.59,139.83 100.06,139.79 98.44,103.49 		"/>
		<path class="st7" d="M98.03,126.96l-5.32-0.52l-0.57-22.52l4.64,1.3l0.01,0.18L98.03,126.96z M93.19,125.99l4.3,0.42l-1.2-20.8
			l-3.64-1.02L93.19,125.99z"/>
		<path class="st7" d="M98.63,138.55h-6.01v-10.23l5.38,0.41L98.63,138.55z M93.12,138.05h4.98l-0.58-8.86l-4.41-0.33V138.05z"/>
	</g>
	<g>
		<g>
			<g id="XMLID_1_">
				<g>
					<polygon class="st8" points="3.42,46.53 3.42,47.38 1.82,47.36 1.82,46.53 					"/>
					<polygon class="st6" points="18.15,49.89 0.16,49.62 0,47.33 1.82,47.36 3.42,47.38 18.05,47.61 18.74,47.43 18.4,37.66 
						20.49,37.18 20.49,36.61 20.9,47.65 35.91,47.88 37.55,47.9 39.37,47.93 39.52,50.22 20.99,49.94 					"/>
					<polygon class="st8" points="3.61,43.33 3.42,44.09 1.82,44.09 1.63,43.26 					"/>
					<polygon class="st8" points="37.62,43.71 37.43,44.51 36.02,44.51 35.65,43.71 					"/>
					<polygon class="st8" points="37.68,46.96 37.55,47.9 35.91,47.88 35.83,46.96 					"/>
					<polygon class="st9" points="1.82,44.09 3.42,44.09 4.51,44.09 4.29,46.53 3.42,46.53 1.82,46.53 1.02,46.53 0.79,44.09 					
						"/>
					<polygon class="st9" points="36.02,44.51 37.43,44.51 38.47,44.51 38.25,46.96 37.68,46.96 35.83,46.96 34.97,46.96 
						34.75,44.51 					"/>
					<polygon class="st3" points="25.15,139.19 25.16,139.83 21.2,139.83 19.97,118.73 20.74,118.73 22.1,138.6 					"/>
					<polygon class="st4" points="24.87,118.73 25.15,139.19 22.1,138.6 20.74,118.73 21.27,118.73 21.83,118.73 23.57,118.73 					
						"/>
					<polygon class="st7" points="19.25,51.05 21.83,118.73 21.27,118.73 18.15,49.89 20.99,49.94 21.02,50.62 					"/>
					<polygon class="st7" points="18.4,37.66 18.74,47.43 18.05,47.61 17.54,36.37 20.49,36.61 20.49,37.18 					"/>
					<polygon class="st7" points="18.13,28.79 18.35,34.75 17.46,34.7 17.2,28.83 					"/>
					<polygon class="st6" points="21.02,50.62 23.57,118.73 21.83,118.73 19.25,51.05 					"/>
					<polygon class="st6" points="18.35,34.75 18.13,28.79 20.2,28.71 20.43,34.95 32.74,35.97 32.74,37.62 20.49,36.61 
						17.54,36.37 4.4,35.28 4.4,33.62 17.46,34.7 					"/>
				</g>
			</g>
		</g>
		<g>
			<path class="st10" d="M36.56,43.88c-0.11,0-0.21,0.08-0.21,0.2c-0.27,6.64-1.51,13.23-3.68,19.5c-1.09,3.11-2.51,6.17-4.75,8.57
				c-2.2,2.38-5.29,4.07-8.52,4.03c-3.23-0.02-6.33-1.67-8.57-4c-2.28-2.36-3.77-5.38-4.86-8.49c-1.51-4.36-2.39-8.94-2.64-13.55
				c0.34,0.88,0.78,1.72,1.27,2.52c0.51,0.81,1.09,1.58,1.76,2.28c0.67,0.68,1.5,1.29,2.49,1.48c0.99,0.2,2.02-0.13,2.8-0.72
				c0.79-0.59,1.38-1.41,1.73-2.32c0.68-1.85,0.46-3.83,0.25-5.69c-0.01-0.07-0.07-0.13-0.15-0.12c-0.07,0.01-0.13,0.08-0.12,0.15
				c0.2,1.87,0.39,3.81-0.27,5.56c-0.33,0.86-0.9,1.63-1.64,2.17c-0.73,0.55-1.66,0.82-2.55,0.64c-0.89-0.18-1.67-0.74-2.31-1.4
				c-0.64-0.67-1.2-1.43-1.7-2.23C4.19,51.28,3.6,50,3.27,48.67c-0.04-1.52-0.02-3.05,0.08-4.57c0.01-0.11-0.08-0.21-0.19-0.22
				c-0.11-0.01-0.21,0.08-0.22,0.19c-0.07,0.91-0.1,1.82-0.12,2.74l-0.18,0.37c-2.2,4.42-2.58,9.48-2.27,14.3
				c0.31,4.87,1.31,9.63,2.1,14.41c0.83,4.77,1.55,9.56,1.81,14.4c0.28,4.83,0.21,9.68-0.23,14.5c-0.01,0.07,0.05,0.14,0.12,0.15
				c0.07,0.01,0.14-0.05,0.15-0.12c0.46-4.83,0.56-9.7,0.31-14.55C4.39,85.41,3.7,80.59,2.9,75.81c-0.78-4.78-1.69-9.55-2.05-14.37
				c-0.33-4.57,0-9.31,1.89-13.51c0.03,0.17,0.05,0.33,0.09,0.5c0.07,5.23,0.93,10.46,2.6,15.43c1.08,3.16,2.57,6.28,4.92,8.76
				c2.33,2.45,5.56,4.23,9.05,4.29c1.73,0.01,3.45-0.44,4.97-1.22c1.53-0.78,2.88-1.86,4.03-3.11c2.31-2.53,3.73-5.67,4.81-8.82
				c2.14-6.34,3.34-12.99,3.55-19.67C36.76,43.98,36.67,43.88,36.56,43.88z"/>
			<path class="st10" d="M37.14,81.78c0.06-3.77,0.43-7.53,0.75-11.3c0.29-3.77,0.44-7.57,0.32-11.35c-0.11-3.79-0.45-7.56-1-11.31
				c-0.01-0.07-0.08-0.13-0.15-0.11c-0.07,0.01-0.13,0.08-0.12,0.15c0.52,3.74,0.82,7.51,0.89,11.28c0.08,3.77-0.1,7.54-0.43,11.3
				c-0.27,3.77-0.61,7.54-0.63,11.33c-0.03,3.79,0.32,7.61,1.37,11.26c0.02,0.07,0.1,0.11,0.17,0.09c0.07-0.02,0.11-0.1,0.09-0.17
				C37.39,89.33,37.08,85.55,37.14,81.78z"/>
			<path class="st10" d="M23.83,41.86l0.37,1.13c0.15,0.37,0.35,0.84,0.9,1.01c0.26,0.07,0.55,0,0.75-0.12
				c0.21-0.12,0.36-0.28,0.5-0.45c0.26-0.33,0.47-0.65,0.69-0.99c0.41-0.69,0.75-1.41,1.01-2.17c0.52-1.51,0.69-3.13,0.54-4.71
				c-0.01-0.07-0.07-0.13-0.15-0.12c-0.07,0.01-0.13,0.07-0.12,0.15c0.13,1.54-0.09,3.11-0.62,4.55c-0.27,0.72-0.61,1.42-1.02,2.06
				c-0.21,0.32-0.44,0.64-0.67,0.92c-0.23,0.28-0.52,0.47-0.76,0.39c-0.24-0.05-0.45-0.37-0.59-0.7c-0.14-0.35-0.27-0.72-0.4-1.09
				c-0.25-0.74-0.48-1.48-0.69-2.24c-0.41-1.5-0.73-3.04-0.95-4.58c-0.01-0.07-0.08-0.12-0.15-0.12c-0.07,0.01-0.13,0.08-0.12,0.15
				c0.19,1.56,0.47,3.11,0.85,4.64C23.38,40.35,23.59,41.11,23.83,41.86z"/>
			<path class="st10" d="M12.28,37.91c1.15,0.05,2.2-0.77,2.44-1.84c0.01-0.07-0.03-0.14-0.1-0.16c-0.07-0.02-0.15,0.02-0.17,0.09
				c-0.26,0.91-1.25,1.54-2.13,1.41c-0.89-0.03-1.76-0.82-1.85-1.77c-0.01-0.07-0.07-0.13-0.14-0.12c-0.07,0-0.13,0.07-0.13,0.14
				C10.25,36.76,11.13,37.76,12.28,37.91z"/>
			<path class="st10" d="M8.6,43.58c0.46-0.72,0.65-1.57,0.7-2.4c0.04-0.84-0.04-1.67-0.15-2.48C9,37.9,8.84,37.11,8.78,36.31
				c-0.06-0.79-0.01-1.6,0.27-2.34c0.03-0.07-0.01-0.15-0.07-0.17c-0.07-0.03-0.15,0-0.18,0.07c-0.33,0.78-0.42,1.63-0.4,2.46
				c0.02,0.83,0.14,1.65,0.26,2.45c0.15,0.79,0.28,1.59,0.26,2.38c-0.01,0.79-0.15,1.59-0.55,2.27c-0.04,0.06-0.02,0.14,0.04,0.18
				C8.48,43.66,8.56,43.64,8.6,43.58z"/>
		</g>
	</g>
</g>
</svg>
