<?xml version="1.0" encoding="utf-8"?>
<!-- Generator: Adobe Illustrator 23.1.1, SVG Export Plug-In . SVG Version: 6.00 Build 0)  -->
<svg version="1.1" id="Layer_1" xmlns="http://www.w3.org/2000/svg" xmlns:xlink="http://www.w3.org/1999/xlink" x="0px" y="0px"
	 viewBox="0 0 179.5 117.57" style="enable-background:new 0 0 179.5 117.57;" xml:space="preserve">
<style type="text/css">
	.st0{fill:#46384E;}
	.st1{fill:#E4624D;}
	.st2{fill:#7E2E46;}
	.st3{fill:#544842;}
	.st4{fill:#8D633A;}
	.st5{fill:#D65747;}
</style>
<g>
	<polygon class="st0" points="161.92,93.18 161.63,97.31 155.34,97.31 155.34,91.91 	"/>
	<polygon class="st0" points="144.3,90.16 144.43,97.31 130.96,97.31 130.41,76.72 138.14,80.55 138.14,89.04 	"/>
	<polygon class="st0" points="106.36,68.21 106.97,97.31 89.12,97.31 88.43,74.17 98.14,76.72 100.01,68.21 	"/>
	<polygon class="st0" points="41.87,90.34 42.14,95.95 26.31,95.95 25.38,84.55 30.73,84.55 29.37,74.17 32.61,74.17 35.16,88.97 	
		"/>
	<polygon class="st0" points="73.94,65.48 77.71,117.57 56.61,117.57 53.5,77.48 62.05,76.21 62.91,65.48 	"/>
	<polygon class="st1" points="166.56,71.78 164.27,97.31 161.63,97.31 161.92,93.18 163.42,71.78 	"/>
	<polygon class="st1" points="144.3,90.16 143.73,57.65 148.16,57.65 147.37,97.31 144.43,97.31 	"/>
	<polygon class="st2" points="91.25,23.78 92.05,43.53 87.93,43.53 87.93,23.78 	"/>
	<polygon class="st2" points="25.38,84.55 26.31,95.95 22.56,95.95 19.5,62.59 23.59,62.59 	"/>
	<polygon class="st2" points="53.5,77.48 56.61,117.57 53.2,117.57 48.1,60.38 52.18,60.52 	"/>
	<polygon class="st2" points="88.43,74.17 89.12,97.31 86.18,97.31 83.5,57.65 87.93,57.65 	"/>
	<polygon class="st3" points="10.31,31.48 11.82,46.58 10.61,46.85 9.12,31.27 	"/>
	<polygon class="st3" points="7.48,51.14 7.57,51.97 2.99,52.93 1.32,52.53 	"/>
	<polygon class="st3" points="25.29,44.29 25.29,48.25 12.57,50.92 13.55,63.13 12.19,63.25 11.13,52.26 10.95,50.35 23.64,47.49 
		23.17,44.02 	"/>
	<polygon class="st3" points="10.95,50.35 11.13,52.26 7.6,52.26 7.57,51.97 7.48,51.14 	"/>
	<polygon class="st3" points="106.96,29.77 106.97,30.62 102.91,31.14 101.61,30.62 	"/>
	<polygon class="st3" points="113.33,26.88 112.67,29.61 110.93,29.78 110.54,43.53 109.8,43.53 109.96,29.29 111.79,29 
		112.11,26.75 	"/>
	<polygon class="st3" points="112.11,0 111.21,26.88 109.99,27.05 110.31,0 	"/>
	<polygon class="st3" points="148.16,21.06 145.8,43.53 143.7,43.53 145.09,21.06 	"/>
	<polygon class="st4" points="145.09,21.06 143.7,43.53 141.71,43.53 142.1,21.06 	"/>
	<polygon class="st4" points="112.11,26.75 111.79,29 109.96,29.29 109.8,43.53 107.12,43.53 106.97,30.62 106.96,29.77 
		101.61,30.62 101.44,28.28 106.93,27.49 106.82,18.08 94.31,16.97 93.71,14.17 106.79,15.1 106.61,0 110.31,0 109.99,27.05 
		111.21,26.88 	"/>
	<polygon class="st4" points="11.13,52.26 12.19,63.25 8.77,63.56 7.6,52.26 	"/>
	<polygon class="st4" points="23.17,44.02 23.64,47.49 10.95,50.35 7.48,51.14 1.32,52.53 0,49.24 7.12,47.64 5.46,31.7 9.12,31.27 
		10.61,46.85 11.82,46.58 	"/>
	<path class="st2" d="M145.8,43.53h17.53l-0.42,14.93l-7.58-0.81l0.01,34.26v5.4h6.29h2.64l2.29-25.53h12.94l-1.36,45.79H120.1
		V43.53h21.61h1.99H145.8z M147.37,97.31l0.79-39.66h-4.43H129.9l0.51,19.07l0.55,20.59h13.47H147.37z"/>
	<path class="st1" d="M110.54,43.53h3.43h6.13v74.04H77.71l-3.77-52.09l-0.31-4.25l-21.45-0.71l-4.08-0.14l5.1,57.19H7.59
		l-4.6-53.49l5.78-0.52l3.42-0.31l1.36-0.12l5.95-0.54l3.06,33.36h3.75h15.83l-0.27-5.61l-1.43-29.62h-4.26l-3.06-14.98l38.98-1.53
		l-1.71-20.43h17.54v19.75h4.12h15.07h2.68H110.54z M106.97,97.31l-0.61-29.1l-0.22-10.56H87.93H83.5l2.68,39.66h2.94H106.97z"/>
	<path class="st5" d="M120.1,62.28h-3.21v-3.67h3.21V62.28z M43.34,63.46v3.8h5.37l-0.34-3.8H43.34z M46.58,117.09h-7.3v0.48h7.3
		V117.09z M19.24,97.32h1.45v-3.41h-7.26v1.35h-1.05v3.22h6.86V97.32z M42.71,86.24h-1.03l0.18,3.81h0.85V86.24z M16.51,87.79H9.1
		v3.48h7.41V87.79z M9.94,112.53h6.7v-3.14h-6.7V112.53z M16.16,99.63h-7.8v3.66h7.8V99.63z M49.24,76.71h-6.82v3.2h6.82V76.71z
		 M14.9,63.01l-1.35,0.12l-1.36,0.12l-3.42,0.31l-1.2,0.11v0.68h7.34V63.01z M69.1,53.74h-7.33v3.44h7.33V53.74z M35.93,99.17h-7.1
		v3.33h7.1V99.17z M4.23,78.49l0.27,3.16h0.51v-3.16H4.23z M14.67,75.89h1.56v2.01h4.68l-0.7-7.61v2.32h-5.54V75.89z M29.77,112.47
		h-7.68v3.61h7.68V112.47z M66.88,50.24h-6.85v3.21h6.85V50.24z M45.35,98.07h-6.79v3.19h6.79V98.07z M35.42,56.98h2.61v-3.27h-3.28
		L35.42,56.98z M106.28,64.32h0.63v-3.71h-0.71L106.28,64.32z M117.27,90.81h-7.38v3.46h7.38V90.81z M112.05,108.5h-7.75v3.64h7.75
		V108.5z M85.72,90.51h-5.63v3.51h5.86L85.72,90.51z M74.25,61.37h6.97V58.1h-6.97V61.37z M42.14,95.95H40.6v0.67h7.5v-3.52H42
		L42.14,95.95z M110.72,85.67h6.85v-3.22h-6.85V85.67z M81.9,109.61h-4.76l0.25,3.51h4.51V109.61z M87.7,34.26h0.23v-3.78H87.7
		V34.26z M74.25,30.06h-3.33l0.29,3.52h3.04V30.06z M117.86,52.13h-6.72v3.15h6.72V52.13z M81.06,76.63h3.73l-0.23-3.4h-3.5V76.63z
		 M106.45,72.38h6.08v-3.8h-6.16L106.45,72.38z M50.15,83.4h-2.06v3.48h2.37L50.15,83.4z M82.13,39.56h2.42v0.73h3.38v-4.26h-5.8
		V39.56z M84.27,49.15h7.19v-3.37h-7.19V49.15z M94.6,44.7v3.81h8.13V44.7H94.6z"/>
	<g>
		<path class="st2" d="M21.2,81.14l-0.09-1.03c-3-1-7.56-2.36-7.56-2.36S18.31,79.94,21.2,81.14z"/>
		<path class="st2" d="M81.79,81.03c0.65-0.79,1.03-1.25,1.03-1.25s-0.43,0.41-1.17,1.12c-0.73,0.71-1.76,1.73-3,2.93
			c-0.39,0.26-0.92,0.64-1.47,1.05c0.64-1.28,1.29-2.62,1.88-3.83c0.47-1.27,0.94-2.54,1.34-3.65l0.19,0c0-0.16,0-0.33-0.01-0.5
			c0.59-1.64,1.02-2.84,1.05-3.02c0.08-4.43,0.12-7.68,0.07-7.3c0.5-5.32,0.6-6.36,0.6-6.36s-0.12,1.05-0.74,6.52
			c0-1.14-0.18,2.44-0.37,7.06c-0.04,0.04-0.28,0.6-0.64,1.45c-0.15-5.57-0.63-15.03-0.63-15.03s-0.38,12.45-0.33,17.2l0.06,0
			c-0.42,1.03-0.89,2.18-1.34,3.31c-0.91,1.68-1.98,3.71-2.88,5.45l0.14,1.91c0.19-0.38,0.4-0.78,0.61-1.21
			c0.95-0.81,2.17-1.91,2.87-2.6C80.18,82.93,81.13,81.82,81.79,81.03z"/>
		<path class="st2" d="M48.61,49.31c0,0-0.53,4.54-0.83,7.9c-0.52-0.84-1-1.58-1.33-2.08c-1.69-5.19-2.61-8.03-2.61-8.03
			s0.19,0.73,0.54,2.11c0.37,1.39,0.91,3.45,1.62,6.11c0.38,0.78,1,1.96,1.67,3.22c-0.03,0.42-0.06,0.81-0.07,1.13l0.7,0.03
			c0.13,0.23,0.25,0.46,0.38,0.69l1.09,0.04c-0.36-0.61-0.74-1.23-1.12-1.85C48.71,55.25,48.61,49.31,48.61,49.31z"/>
		<path class="st2" d="M13.5,109.65c1.29-0.96,3.21-2.38,5.37-3.99c0.21-0.33,0.61-1.05,1.21-2.13c0.57-1.05,1.29-2.36,1.97-3.61
			c0.14-0.18,0.28-0.37,0.43-0.56c-0.17,4.85-0.25,12.42-0.25,12.42s0.96-9.2,1.29-13.79c0.53-0.71,1.05-1.4,1.52-2.04h-1.22
			c-0.24,0.33-0.48,0.67-0.73,1.02l-0.5-0.03c-0.01,0.24-0.03,0.5-0.04,0.78c-0.41,0.57-0.82,1.16-1.23,1.74
			c-0.65,1.3-1.32,2.65-1.87,3.73c-0.52,1.06-0.96,1.96-1,2.1c-2.06,1.65-3.89,3.11-5.13,4.1c-1.24,0.99-1.88,1.55-1.55,1.32
			c-3.54,3.21-4.17,3.78-4.17,3.78s0.64-0.56,4.24-3.7C11.55,111.08,12.2,110.59,13.5,109.65z"/>
		<path class="st2" d="M42.08,95.95h-1.21c2.04,2.85,7.23,9.36,7.23,9.36S44.21,99.1,42.08,95.95z"/>
		<path class="st2" d="M81.97,42.85c0,0-3.53-2.3-7.8-4.96c-0.77-0.42-1.76-0.95-2.72-1.45l0.09,1.06c0.83,0.37,1.66,0.73,2.31,1
			C78.21,40.88,81.97,42.85,81.97,42.85z"/>
		<path class="st2" d="M111.36,55.18c-0.61,0.07-1.65,0.25-2.63,0.44c1.42-1.36,2.84-2.75,3.52-3.47c1.19-1.87,2.05-3.22,2.62-4.1
			c0.55-0.88,0.81-1.29,0.81-1.29s-0.29,0.39-0.9,1.23c-0.6,0.84-1.53,2.12-2.81,3.91c-1.28,0.96-4.88,3.96-6.66,5.56l0.18,0.2h0.67
			l0.01,0.38c0.36-0.32,0.76-0.69,1.19-1.09c1.2-0.29,3.17-0.86,4.21-1.23c1.37-0.76,2.49-1.37,3.27-1.8
			c0.77-0.44,1.19-0.68,1.19-0.68s-0.46,0.19-1.27,0.52C113.94,54.09,112.78,54.58,111.36,55.18z"/>
		<path class="st2" d="M87.93,43.53v-0.42c-1.14,1.5-2.9,4.16-2.9,4.16s2.57-2.39,3.81-3.74H87.93z"/>
		<path class="st2" d="M106.78,88.3l0.02,1.04c2.25,1.63,4.78,3.38,4.78,3.38S108.96,90.24,106.78,88.3z"/>
		<path class="st2" d="M101.37,112.46c0,0-1.43-9.36-2.44-15.15h-0.96C99.19,103.05,101.37,112.46,101.37,112.46z"/>
	</g>
</g>
</svg>
