<?xml version="1.0" encoding="utf-8"?>
<!-- Generator: Adobe Illustrator 23.1.1, SVG Export Plug-In . SVG Version: 6.00 Build 0)  -->
<svg version="1.1" id="Layer_1" xmlns="http://www.w3.org/2000/svg" xmlns:xlink="http://www.w3.org/1999/xlink" x="0px" y="0px"
	 viewBox="0 0 180.31 194.47" style="enable-background:new 0 0 180.31 194.47;" xml:space="preserve">
<style type="text/css">
	.st0{fill:#7E2E46;}
	.st1{fill:#E4624D;}
	.st2{fill:#A3868B;}
	.st3{fill:#E3CEC3;}
	.st4{fill:#D4BCB6;}
	.st5{fill:#46384E;}
	.st6{fill:#637171;}
</style>
<g>
	<polygon class="st0" points="19.92,115.29 19.27,137.38 20.46,137.38 21.89,137.38 22.61,115.24 	"/>
	<polygon class="st0" points="21.29,68.86 20.05,110.77 22.76,110.71 24.14,68.91 24.14,68.9 	"/>
	<polygon class="st0" points="24.93,44.79 24.83,47.86 35.37,47.86 35.76,44.84 	"/>
	<polygon class="st0" points="6.57,44.68 6.61,47.86 21.9,47.86 22,44.77 6.58,44.68 	"/>
	<polygon class="st0" points="21.9,47.86 21.44,63.67 24.31,63.74 24.83,47.86 24.93,44.79 26.4,0 23.31,0 22,44.77 	"/>
	<polygon class="st0" points="73.9,145.38 73.74,149.77 77.41,149.87 77.55,145.87 78.64,114.33 75.03,114.38 	"/>
	<polygon class="st0" points="76.66,69.74 75.21,109.54 78.81,109.47 80.18,69.79 	"/>
	<polygon class="st0" points="78.03,32.24 76.83,65 80.34,65.08 81.48,32.24 	"/>
	<polygon class="st0" points="117.84,16.45 117.76,20.12 136.54,20.58 136.54,17.26 	"/>
	<polygon class="st1" points="91.9,15.35 91.9,19.48 111.77,19.97 111.84,16.2 	"/>
	<polygon class="st0" points="4.36,31.13 5.72,137.38 7.62,137.38 7.37,115.49 7.32,111.06 6.85,68.63 6.78,63.32 6.61,47.86 
		6.57,44.68 6.42,31.13 	"/>
	<polygon class="st2" points="9.33,137.38 9.93,138.73 13.2,138.73 12.61,137.38 	"/>
	<polygon class="st2" points="21.89,137.38 20.46,137.38 22.36,143.81 24.86,143.81 23.13,137.38 	"/>
	<polygon class="st2" points="76.84,152.6 77.79,155.46 80.23,155.46 79.25,153.33 78.91,152.6 	"/>
	<polygon class="st2" points="40.17,148.91 38.41,148.91 40.15,152.76 41.77,152.76 43.77,157.6 46.62,157.6 44.62,152.76 
		43.42,152.76 41.81,148.91 43.04,148.91 42.01,146.43 40.92,143.81 38.06,143.81 	"/>
	<polygon class="st0" points="115.47,1.07 112.74,136.19 112.78,136.19 115.02,136.19 115.25,126.38 115.55,113.72 115.67,108.64 
		116.57,70.36 116.68,65.95 117.76,20.12 117.84,16.45 118.2,1.07 	"/>
	<polygon class="st0" points="115.67,108.64 115.55,113.72 170.99,112.81 171.18,107.4 	"/>
	<polygon class="st0" points="116.68,65.95 116.57,70.36 172.47,71.25 172.61,67.29 	"/>
	<polygon class="st0" points="175.95,31.13 172.31,129.29 175.95,129.29 180.31,31.13 	"/>
	<polygon class="st1" points="170.99,112.81 170.4,129.29 172.31,129.29 175.95,31.13 173.89,31.13 172.61,67.29 172.47,71.25 
		171.18,107.4 	"/>
	<polygon class="st1" points="0,31.13 2.08,137.38 5.72,137.38 4.36,31.13 	"/>
	<polygon class="st1" points="20.05,110.77 7.32,111.06 7.37,115.49 7.38,115.49 19.92,115.29 22.61,115.24 75.03,114.38 
		78.64,114.33 109.91,113.82 110.01,108.77 78.81,109.47 75.21,109.54 22.76,110.71 	"/>
	<polygon class="st1" points="6.78,63.32 6.85,68.63 21.29,68.86 24.14,68.9 76.66,69.74 80.18,69.79 110.77,70.28 110.85,65.82 
		80.34,65.08 76.83,65 24.31,63.74 21.44,63.67 6.79,63.32 	"/>
	<polygon class="st1" points="110.85,65.82 110.77,70.28 110.01,108.77 109.91,113.82 109.66,126.38 109.47,136.19 112.74,136.19 
		115.47,1.07 112.14,1.07 111.84,16.2 111.77,19.97 	"/>
	<polygon class="st1" points="58.93,152.99 58.98,153.02 59.24,152.6 76.84,152.6 78.91,152.6 79.25,153.33 88.56,153.48 
		89.06,150.2 77.41,149.87 73.74,149.77 43.04,148.91 41.81,148.91 43.42,152.76 44.62,152.76 	"/>
	<polygon class="st0" points="136.48,152.25 123.81,152.25 123.81,155.82 134.41,155.82 134.8,154.75 140,154.75 149.63,154.75 
		150.12,152.25 143.3,152.25 	"/>
	<polygon class="st3" points="161.68,129.29 160.71,131.79 165.45,131.79 166.51,129.29 	"/>
	<polygon class="st3" points="152.72,148.01 150.97,148.01 150.12,152.25 149.63,154.75 152.48,154.75 153.55,148.33 155.81,148.33 
		157.72,131.79 154.47,131.79 154.1,135.16 	"/>
	<polygon class="st3" points="134.8,154.75 134.41,155.82 135.36,155.82 136.07,157.6 139.16,157.6 140,154.75 	"/>
	<polygon class="st3" points="128.08,161.01 127.85,181.31 129.5,181.31 129.73,161.01 	"/>
	<polygon class="st3" points="143.3,161.01 143.06,181.31 144.7,181.31 144.93,161.01 	"/>
	<polygon class="st3" points="158.51,161.01 158.28,181.31 159.92,181.31 160.15,161.01 	"/>
	<polygon class="st3" points="172.24,161.01 171.75,181.31 173.4,181.31 173.89,161.01 	"/>
	<polygon class="st3" points="172.31,135.16 171.83,155.46 173.42,155.46 173.89,135.16 	"/>
	<polygon class="st2" points="5.63,161.01 6.22,181.31 8.23,181.31 7.62,161.01 	"/>
	<polygon class="st2" points="22.93,161.01 23.53,194.47 25.53,194.47 24.92,161.01 	"/>
	<polygon class="st2" points="40.23,161.01 40.83,181.31 42.83,181.31 42.22,161.01 	"/>
	<polygon class="st2" points="56.93,161.01 57.22,181.31 59.21,181.31 58.93,161.01 	"/>
	<polygon class="st2" points="75.42,161.01 75.7,181.31 77.7,181.31 77.41,161.01 	"/>
	<polygon class="st2" points="93.91,161.01 94.19,181.31 96.19,181.31 95.91,161.01 	"/>
	<path class="st2" d="M172.31,129.29h3.64h4.36l-2.14,65.18h-66.02l0.63-58.29h2.24h1.55l1.55,6.07h6.89l0.6,8.8h-1.79v1.19v3.57
		h10.59h0.95l0.71,1.78h3.09l0.84-2.85h9.63h2.85l1.07-6.42h2.25l1.91-16.54h2.99h4.74l1.06-2.5h3.89H172.31z M127.85,181.31h1.65
		l0.23-20.3h-1.65h-9.88l0.32,20.3H127.85z M143.06,181.31h1.64l0.23-20.3h-1.64h-9.92l0.23,20.3H143.06z M158.28,181.31h1.64
		l0.23-20.3h-1.64h-9.92l0.23,20.3H158.28z M171.75,181.31h1.65l0.49-20.3h-1.65h-8.45l0.24,20.3H171.75z M171.83,155.46h1.58
		l0.48-20.3h-1.58h-8.13l0.22,20.3H171.83z"/>
	<path class="st3" d="M112.78,136.19l-0.63,58.29H34.91l0.29-33.47H24.92h-1.99l0.6,33.47H2.14L0,137.38h2.08h3.64h1.9h1.71
		l0.61,1.35h3.27h2.02v-1.35h4.04h1.19l1.9,6.43h2.5h13.2l2.11,5.11h-1.76l1.73,3.85h1.62l2,4.84h2.85h9.52l2.83-4.57l0.26-0.42
		h17.6l0.95,2.86h2.44h8.02l0.31-1.98l0.5-3.28l0.15-0.95h-2.02l0.47-2.81l0.6-3.59h1.79l1.19-6.66h3.33h14.91h3.28H112.78z
		 M8.23,181.31h9.38l0.29-20.3H7.62H5.63l0.6,20.3H8.23z M42.83,181.31h9.38l0.29-20.3H42.22h-1.99l0.6,20.3H42.83z M59.21,181.31
		h11.5l0.28-20.3H58.93h-2l0.29,20.3H59.21z M77.7,181.31h11.49l0.29-20.3H77.41h-1.99l0.28,20.3H77.7z M96.19,181.31h11.34
		l0.38-20.3h-12h-2l0.29,20.3H96.19z"/>
	<g>
		<polygon class="st4" points="92.05,174.75 94.1,174.75 94.15,177.85 92.05,177.85 		"/>
		<rect x="96.27" y="188.87" class="st4" width="7.36" height="3.45"/>
		<polygon class="st4" points="112.34,152.38 112.34,154.73 105.05,154.73 105.05,151.31 108.97,151.31 108.97,148.95 
			112.64,148.95 112.61,152.38 		"/>
		<polygon class="st4" points="107.63,142.43 112.71,142.43 112.68,145.72 107.63,145.72 		"/>
		<rect x="13.71" y="185.14" class="st4" width="6.68" height="3.14"/>
		<polygon class="st4" points="5.72,164.18 1.01,164.18 0.89,161.11 5.63,161.11 		"/>
		<rect x="7.12" y="142.64" class="st4" width="7.06" height="3.31"/>
		<polygon class="st4" points="1.4,174.81 6.03,174.81 6.13,178.25 1.53,178.25 		"/>
		<rect x="36.06" y="186.23" class="st4" width="6.67" height="3.13"/>
		<rect x="48.52" y="191.55" class="st4" width="6.26" height="2.92"/>
		<rect x="25.06" y="149.58" class="st4" width="6.53" height="3.06"/>
		<polygon class="st4" points="73.24,177.29 75.65,177.29 75.69,180.34 73.24,180.34 		"/>
		<polygon class="st4" points="105.7,183.26 112.27,183.26 112.24,186.44 105.7,186.44 		"/>
		<rect x="61.53" y="186.2" class="st4" width="6.47" height="3.04"/>
		<rect x="80.05" y="181.56" class="st4" width="6.86" height="3.22"/>
	</g>
	<polygon class="st5" points="79.25,153.33 80.23,155.46 88.25,155.46 88.56,153.48 	"/>
	<polygon class="st5" points="44.62,152.76 46.62,157.6 56.14,157.6 58.98,153.02 58.93,152.99 	"/>
	<polygon class="st5" points="118.2,161.01 118.52,181.31 127.85,181.31 128.08,161.01 	"/>
	<polygon class="st5" points="133.37,161.01 133.61,181.31 143.06,181.31 143.3,161.01 	"/>
	<polygon class="st5" points="148.59,161.01 148.82,181.31 158.28,181.31 158.51,161.01 	"/>
	<polygon class="st5" points="163.79,161.01 164.03,181.31 171.75,181.31 172.24,161.01 	"/>
	<polygon class="st5" points="164.17,135.16 164.4,155.46 171.83,155.46 172.31,135.16 	"/>
	<polygon class="st5" points="95.91,161.01 96.19,181.31 107.53,181.31 107.91,161.01 	"/>
	<polygon class="st5" points="77.41,161.01 77.7,181.31 89.19,181.31 89.48,161.01 	"/>
	<polygon class="st5" points="58.93,161.01 59.21,181.31 70.71,181.31 70.99,161.01 	"/>
	<polygon class="st5" points="42.22,161.01 42.83,181.31 52.21,181.31 52.5,161.01 	"/>
	<polygon class="st5" points="24.92,161.01 25.53,194.47 34.91,194.47 35.2,161.01 	"/>
	<polygon class="st5" points="7.62,161.01 8.23,181.31 17.61,181.31 17.9,161.01 	"/>
	<polygon class="st5" points="146.59,149.75 144.22,149.75 143.3,152.25 150.12,152.25 150.97,148.01 152.72,148.01 154.1,135.16 
		150.58,135.16 	"/>
	<polygon class="st5" points="115.25,126.38 115.02,136.19 116.56,136.19 118.11,142.26 125.01,142.26 125.6,151.06 123.81,151.06 
		123.81,152.25 136.48,152.25 132.5,137.92 123.14,137.32 119.06,126.38 	"/>
	<polygon class="st5" points="99.62,133.93 95.09,134.16 94.56,136.19 109.47,136.19 109.66,126.38 102.23,126.38 	"/>
	<polygon class="st5" points="87.19,149.25 87.65,146.43 77.55,145.87 77.41,149.87 89.06,150.2 89.21,149.25 	"/>
	<polygon class="st5" points="43.04,148.91 73.74,149.77 73.9,145.38 72.71,145.38 71.25,137.22 68.47,137.02 67.24,130.76 
		59.55,130.76 55.46,139.68 48.01,140.59 47.1,146.43 42.01,146.43 	"/>
	<g>
		<path class="st6" d="M104.16,16.18c-1.35,9.51-1.67,19.16-0.97,28.75c0.35,4.79,0.95,9.57,1.81,14.3
			c0.02,0.11,0.04,0.22,0.06,0.33l-0.57,8.83l-0.28,4.39c-0.09,1.46-0.2,2.93-0.21,4.43c0,1.5,0.1,3.03,0.46,4.54
			c0.18,0.74,0.41,1.55,0.89,2.28c0.24,0.37,0.56,0.73,0.98,1.01c0.43,0.28,0.97,0.45,1.5,0.43c1.11-0.06,1.88-0.75,2.41-1.38
			c0.27-0.33,0.5-0.67,0.7-1.02c0.18-0.34,0.37-0.67,0.53-1.02c0.66-1.38,1.14-2.84,1.47-4.31c0.56-2.5,0.77-5.03,0.88-7.53
			c0.16-0.2,0.32-0.39,0.46-0.6c0.7-1.09,1.25-2.11,1.83-3.2c1.12-2.15,2.1-4.37,2.94-6.65c1.68-4.54,2.82-9.26,3.54-14.03
			c1.44-9.55,1.2-19.22,0.57-28.77l-0.86,0.05c0.55,9.53,0.63,19.13-0.93,28.52c-0.78,4.68-1.96,9.3-3.65,13.72
			c-0.84,2.21-1.82,4.36-2.94,6.44c-0.27,0.51-0.56,1.03-0.86,1.54c0.15-5.33,0.15-10.67-0.02-15.99
			c-0.35-11.74-1.4-23.44-2.67-35.09l-0.86,0.09c1.16,11.66,2.09,23.34,2.32,35.03c0.13,5.85,0.06,11.7-0.19,17.53
			c-0.01,0.2-0.02,0.39-0.03,0.59c-0.53,0.59-1.14,1.06-1.72,1.19c-0.77,0.18-1.47-0.34-1.87-1.33c-0.4-0.96-0.63-2.2-0.95-3.33
			c-0.59-2.24-1.08-4.51-1.53-6.78l0.44-8.25l1.9-35.11l-0.86-0.05l-2.25,35.09l-0.18,2.84c-0.45-2.94-0.81-5.89-1.06-8.85
			c-0.8-9.49-0.6-19.08,0.63-28.54L104.16,16.18z M106.1,64.61c0.12,0.56,0.24,1.13,0.37,1.69c0.31,1.18,0.47,2.31,0.98,3.58
			c0.26,0.61,0.64,1.28,1.3,1.76c0.65,0.49,1.53,0.67,2.33,0.51c0.48-0.11,0.89-0.31,1.26-0.55c-0.15,1.97-0.39,3.92-0.85,5.81
			c-0.34,1.38-0.81,2.72-1.41,3.98c-0.15,0.32-0.33,0.62-0.49,0.93c-0.16,0.28-0.35,0.55-0.54,0.79c-0.4,0.48-0.87,0.8-1.26,0.8
			c-0.4,0.03-0.79-0.22-1.12-0.72c-0.33-0.49-0.53-1.11-0.7-1.79c-0.34-1.34-0.45-2.75-0.46-4.18c0.02-2.86,0.26-5.82,0.4-8.74
			L106.1,64.61z"/>
		<path class="st6" d="M100.55,56.99l-0.22-40.91l0.86-0.01l0.94,40.9l0.04,10.23c0.02,3.41,0.02,6.83-0.07,10.25
			c-0.18,6.83-0.78,13.71-2.44,20.38l-0.84-0.2c1.53-6.61,2.01-13.41,2.08-20.2C100.96,70.62,100.67,63.8,100.55,56.99z"/>
		<path class="st6" d="M142.04,66.51c-0.73,5.67-0.49,11.45,0.71,17.02c0.6,2.78,1.42,5.52,2.49,8.15c0.52,1.33,1.08,2.61,1.92,3.6
			c0.83,0.99,1.92,1.52,3.13,1.41c1.21-0.08,2.41-0.68,3.32-1.6c0.93-0.92,1.64-2.11,2.27-3.37c1.25-2.54,2.27-5.21,3.05-7.94
			c1.55-5.47,2.1-11.25,1.56-16.93l0.86-0.09c0.63,5.78,0.23,11.69-1.23,17.34c-0.73,2.83-1.72,5.59-2.97,8.24
			c-0.63,1.33-1.38,2.67-2.48,3.81c-1.09,1.14-2.6,1.98-4.27,2.12c-0.83,0.07-1.72-0.08-2.5-0.46c-0.77-0.38-1.41-0.96-1.9-1.58
			c-0.98-1.27-1.53-2.69-2.05-4.04c-1.04-2.73-1.83-5.55-2.39-8.41c-1.11-5.73-1.24-11.63-0.38-17.38L142.04,66.51z"/>
		<path class="st6" d="M122.34,65.56c-0.34,3.3-0.01,6.67,0.94,9.85c0.92-3.05,1.19-6.3,1.44-9.54h0c0,0,0,0,0-0.01l1.13,0.1
			c0,0,0,0,0,0.01c-0.41,4.46,0.44,9.03,2.39,13.05c1.31-1.62,2.14-3.64,2.61-5.71c0.56-2.5,1.21-4.94,1.27-7.38l1.53-0.11
			c0.97,5.19,1.41,10.47,1.55,15.72c0.15,5.26,0,10.51-0.22,15.75l-1.36,31.38l-0.86-0.03l0.95-31.39
			c0.14-5.23,0.24-10.45,0.03-15.65c-0.12-3.55-0.43-7.09-0.89-10.6c-0.21,0.88-0.43,1.76-0.63,2.64c-0.61,2.55-1.74,5.09-3.66,7.02
			l-1.04-0.15c-1.24-2.39-2.09-4.98-2.53-7.62c-0.29,1.45-0.68,2.89-1.22,4.29l-0.93-0.01c-1.32-3.73-1.78-7.76-1.33-11.68
			L122.34,65.56z"/>
		<path class="st6" d="M19.38,63.53c0.27,3.49,1.23,6.88,2.51,10.09c1.29,3.22,2.89,6.29,4.52,9.31c1.63,3.01,3.25,6.12,5.67,8.73
			c1.19,1.3,2.63,2.43,4.26,3.21c0.29,0.14,0.59,0.24,0.88,0.35c0.01,0.24,0.04,0.48,0.05,0.72c0.15,3.49-0.01,7-0.83,10.39
			l0.83,0.22c0.96-3.46,1.25-7.08,1.2-10.64c0-0.1-0.01-0.21-0.01-0.31c0.74,0.18,1.5,0.29,2.26,0.33c0.05,0.58,0.11,1.16,0.15,1.74
			c0.5,5.61,0.72,11.24,0.56,16.88c-0.15,5.63-0.61,11.26-1.4,16.85l0.85,0.13c0.9-5.6,1.49-11.26,1.75-16.94
			c0.25-5.68,0.2-11.37-0.18-17.05c-0.05-0.55-0.11-1.09-0.17-1.63c3.36-0.22,6.55-1.65,9.13-3.69c2.08-1.61,3.83-3.55,5.42-5.58
			c0.25,1.15,0.53,2.3,0.84,3.43c0.16,0.61,0.35,1.22,0.52,1.82c0.19,0.56,0.3,1.33,1.03,1.99c0.38,0.35,1.06,0.49,1.58,0.25
			c0.52-0.24,0.78-0.62,0.98-0.94c0.2-0.34,0.32-0.64,0.44-0.93l0.38-0.87c0.49-1.17,0.93-2.36,1.35-3.56
			c0.82-2.4,1.47-4.87,1.95-7.36c0.96-4.99,1.3-10.11,0.85-15.18l-1.55-0.04c-0.45,3.32-1.41,6.57-2.78,9.66
			c-1.33,3-3.01,5.85-4.91,8.54c-0.29-1.56-0.54-3.13-0.73-4.7c-0.57-4.94-0.62-9.94-0.12-14.89h0c0,0,0,0,0-0.01l-1.1-0.11
			c0,0,0,0,0,0.01h0c-0.22,2.56-0.59,5.11-1.1,7.63c-0.25,1.26-0.54,2.51-0.87,3.76c-0.16,0.62-0.33,1.24-0.51,1.86
			c-0.09,0.32-0.17,0.6-0.28,0.84c-0.11,0.24-0.28,0.45-0.4,0.51c-0.11,0.05-0.2,0.04-0.31-0.07c-0.12-0.12-0.23-0.38-0.3-0.66
			c-0.15-0.61-0.3-1.24-0.42-1.87c-0.26-1.26-0.46-2.52-0.62-3.8c-0.31-2.55-0.4-5.12-0.29-7.68l-0.86-0.04
			c-0.13,2.61-0.05,5.23,0.24,7.83c0.15,1.3,0.35,2.59,0.6,3.88c0.13,0.64,0.27,1.27,0.42,1.92c0.09,0.34,0.2,0.72,0.52,1.08
			c0.32,0.38,0.99,0.55,1.46,0.28c0.45-0.25,0.66-0.61,0.84-0.94c0.17-0.34,0.26-0.69,0.35-0.99c0.19-0.62,0.37-1.25,0.54-1.88
			c0.23-0.84,0.43-1.69,0.63-2.54c0.04,2.01,0.15,4.03,0.36,6.03c0.21,2.01,0.54,4.01,0.92,5.99c-1.74,2.34-3.61,4.56-5.86,6.33
			c-2.44,1.95-5.39,3.29-8.48,3.51c-0.52-4.72-1.26-9.38-1.71-14.05c-0.54-5.58-0.57-11.27,0.96-16.66l-0.82-0.24
			c-1.67,5.52-1.78,11.35-1.37,17.01c0.34,4.7,0.99,9.33,1.41,13.97c-0.75-0.04-1.49-0.17-2.21-0.36c-0.11-3.06-0.38-6.1-0.68-9.12
			c-0.46-3.5-0.9-6.99-1.03-10.48c-0.14-3.49,0.06-7,0.96-10.37l-0.83-0.23c-1.01,3.45-1.37,7.06-1.37,10.63
			c0,3.58,0.35,7.12,0.7,10.64c0.37,2.84,0.76,5.67,0.97,8.5c-0.11-0.04-0.22-0.08-0.32-0.13c-1.47-0.69-2.8-1.71-3.94-2.93
			c-2.29-2.43-3.92-5.47-5.57-8.47c-1.65-3.01-3.25-6.03-4.54-9.18c-1.29-3.14-2.24-6.43-2.53-9.81L19.38,63.53z M57.88,85.28
			c0.19-0.26,0.39-0.52,0.57-0.78c2.87-3.98,5.35-8.37,6.9-13.09c-0.07,2.95-0.37,5.89-0.91,8.8c-0.45,2.43-1.06,4.84-1.84,7.19
			c-0.4,1.17-0.82,2.34-1.29,3.48l-0.36,0.86c-0.12,0.29-0.23,0.58-0.35,0.78c-0.12,0.21-0.27,0.35-0.33,0.38
			c-0.06,0.01-0.08,0.03-0.18-0.04c-0.1-0.08-0.24-0.28-0.33-0.51c-0.1-0.22-0.18-0.52-0.27-0.82c-0.18-0.59-0.37-1.18-0.53-1.79
			c-0.34-1.19-0.65-2.4-0.92-3.61C57.98,85.84,57.94,85.56,57.88,85.28z"/>
	</g>
	<g>
		<path class="st2" d="M11.42,181.31c1.12,2.77,3.2,8.74,3.2,8.74s-3.11-6.19-4.21-8.74H11.42z"/>
		<path class="st2" d="M0.27,144.52l0.4-0.34c0.67,0.8,1.56,1.89,2.46,3.02c2.25,0.9,5.55,2.28,7.69,3.21
			c1.62,0.89,3.06,1.69,2.89,1.63c0.6,0.68,1.16,1.32,1.53,1.73c0.09,0.1,0.16,0.19,0.22,0.26c0.05,0.07,0.07,0.08,0.11,0.1
			c0.08,0.05,0.03,0.03-0.07-0.01c5.35,2.91,7.24,3.94,7.24,3.94s-1.93-0.97-7.41-3.72c0.18,0.1,0.16,0.1,0.09,0.07
			c-0.05-0.01-0.15-0.07-0.21-0.15c-0.06-0.07-0.15-0.15-0.24-0.25c-0.36-0.38-0.93-0.98-1.54-1.62c0.28,0.19-1.32-0.62-2.88-1.41
			c-1.7-0.61-4.2-1.54-6.28-2.34c0.47,0.6,0.93,1.18,1.33,1.7c0.51,0.66,0.94,1.24,1.26,1.65c0.22,2.76,0.36,4.7,0.36,5.05
			c1.56,2.27,1.79,2.62,1.79,2.62s-0.25-0.34-1.9-2.63c0.03,0.72-0.26-1.7-0.64-4.88c-0.04-0.03-0.14-0.14-0.24-0.25
			c-0.1-0.11-0.21-0.23-0.33-0.35c-0.23-0.25-0.48-0.53-0.76-0.83c-0.54-0.6-1.15-1.29-1.78-1.99c-0.19-0.22-0.39-0.44-0.58-0.66
			c-0.12-0.05-0.25-0.1-0.37-0.14l0.07-0.19c-0.81-0.92-1.58-1.81-2.21-2.56L0.27,144.52z"/>
		<path class="st2" d="M100.41,136.19c-0.84,2.45-2.02,5.8-2.97,8.43c-0.26,1.55-0.51,3.11-0.71,4.32c-0.1,0.6-0.19,1.12-0.26,1.49
			c-0.04,0.19-0.06,0.34-0.08,0.45c-0.02,0.09-0.03,0.09-0.03,0.11c1.75,2.86,3.47,5.67,2.91,4.85c0.6,2.14,1.09,3.93,1.44,5.17
			h-0.17c-0.36-1.21-0.88-2.92-1.5-4.98c-0.26-0.35-1.59-2.41-3.21-4.93c0-0.03,0.01-0.16,0.03-0.3c0.01-0.11,0.03-0.27,0.05-0.45
			c0.05-0.38,0.12-0.89,0.19-1.5c0.06-0.42,0.12-0.89,0.19-1.38c-1.52,4.28-2.6,7.28-2.53,6.91c-0.61,4.4-0.7,5.08-0.7,5.08
			s0.08-0.68,0.62-5.1c-0.2,0.42,1.22-4.1,2.99-9.65c0.01-0.09,0.02-0.17,0.04-0.26c0.11-0.35,0.23-0.71,0.34-1.07
			c-0.04-1.88-0.07-4.65-0.08-7.19h0.88c-0.03,1.7-0.08,3.5-0.12,5.11c0.59-1.8,1.18-3.59,1.7-5.11H100.41z"/>
		<polygon class="st2" points="34.97,187.39 36.57,183.78 38.16,180.22 39.43,177.17 38.5,175.28 39.26,172.77 37.67,168.74 
			39.29,161.8 39.91,152.24 39.49,161.79 38.06,168.73 39.75,172.75 39.04,175.26 40.04,177.26 38.83,180.49 37.34,184.11 
			36.4,186.29 37.46,185.73 39.11,186.15 40.09,186.43 42.32,186.76 44.84,186.49 45.42,186.43 45.42,186.47 47.75,184.89 
			45.46,186.58 45.49,186.59 44.88,186.73 42.33,187.16 39.99,187.06 38.95,186.89 37.59,186.64 37.58,186.65 37.44,186.72 
			37.17,186.89 36.63,187.2 35.82,187.65 34.95,189.68 34.97,187.39 		"/>
		<path class="st2" d="M70.98,163.1c-0.01-0.01-0.01-0.02-0.02-0.03l0.01-0.86c0.15,0.16,0.3,0.32,0.47,0.48
			c0.71,0.75,1.5,1.6,2.32,2.46c0.59,0.63,1.18,1.26,1.75,1.89l0.02,1.33c-0.75-0.86-1.56-1.79-2.35-2.7
			C72.41,164.77,71.65,163.89,70.98,163.1z"/>
		<path class="st2" d="M91.1,192.22c0.01,0.14,0.01,0.29,0.02,0.44c0.1,0.64,0.19,1.25,0.27,1.81h-0.91
			c-0.07-0.55-0.14-1.13-0.22-1.75c0-0.38,0-0.76,0.01-0.94c0.13-0.24,0.27-0.48,0.38-0.68c0.1-0.17,0.19-0.33,0.18-0.29
			c0.12-1.29,0.25-2.62,0.35-3.63c0.11-1.04,0.19-1.75,0.24-1.83c0.09-0.52,0.17-1,0.23-1.3c0.04-0.12,0-0.18-0.01-0.2
			c-0.01-0.02,0.01,0,0.05,0.08c-1.64-3.86-2.12-5-2.12-5s0.54,1.13,2.35,4.97c-0.06-0.14-0.07-0.18-0.05-0.14
			c0.03,0.03,0.1,0.16,0.05,0.34c-0.04,0.29-0.1,0.78-0.17,1.29c0.03,0.06,0.02,0.79-0.01,1.83c-0.04,1.06-0.1,2.45-0.16,3.81
			c-0.06,0.12-0.27,0.55-0.48,0.97c0,0.02,0-0.01,0.01,0.04C91.1,192.08,91.1,192.15,91.1,192.22z"/>
		<path class="st2" d="M65.49,152.6c0.69,0.96,1.77,2.44,3.37,4.66c-0.13-0.2-0.12-0.2-0.05-0.11c0.06,0.04,0.1,0.2,0.12,0.31
			c0.03,0.12,0.06,0.27,0.1,0.45c0.15,0.69,0.38,1.78,0.63,2.95c0.04,0.04,0.09,0.09,0.14,0.14h-0.54
			c-0.21-1.21-0.41-2.32-0.53-3.03c-0.07-0.36-0.08-0.63-0.13-0.67c-0.07-0.11-0.03-0.07,0.06,0.04c-1.54-2.27-2.57-3.78-3.23-4.75
			H65.49z"/>
	</g>
</g>
</svg>
