<?xml version="1.0" encoding="utf-8"?>
<!-- Generator: Adobe Illustrator 23.1.1, SVG Export Plug-In . SVG Version: 6.00 Build 0)  -->
<svg version="1.1" id="Layer_1" xmlns="http://www.w3.org/2000/svg" xmlns:xlink="http://www.w3.org/1999/xlink" x="0px" y="0px"
	 viewBox="0 0 174.97 344.51" style="enable-background:new 0 0 174.97 344.51;" xml:space="preserve">
<style type="text/css">
	.st0{fill:#46384E;}
	.st1{fill:#637171;}
	.st2{fill:#A3868B;}
	.st3{fill:#E3CEC3;}
	.st4{fill:#D4BCB6;}
</style>
<g>
	<polygon class="st0" points="30.55,228.86 30.68,223.06 12.62,223.48 13.23,238.57 30.47,238.77 30.55,228.86 	"/>
	<polygon class="st0" points="68.74,230.65 69.12,222.18 48.36,222.66 48.23,224.19 47.58,229.5 46.17,230.64 41.96,229.07 
		41.97,228.92 41.58,222.81 32.26,223.03 32.47,228.86 33.03,238.8 68.07,239.22 68.74,230.65 	"/>
	<polygon class="st0" points="78.91,229.59 81.74,228.99 83.33,229.14 83.65,223.7 83.74,221.84 72.59,222.1 72.43,232.45 
		71.62,239.26 77.56,239.34 77.51,235.94 78.85,230.23 78.82,230.2 78.91,229.59 	"/>
	<polygon class="st0" points="89.33,221.72 86.9,221.77 86.8,225.17 85.01,230.46 84.62,231.18 81.57,231.66 80.25,231.15 
		80.16,237.68 80.03,239.36 88.65,239.47 89.33,221.72 	"/>
	<polygon class="st0" points="108.56,239.7 109.64,228.67 109.73,221.25 90.91,221.68 91.61,239.5 108.56,239.7 	"/>
	<polygon class="st0" points="118.33,221.05 118.91,237.89 115.84,237.89 115.48,230.97 114.38,230.98 113.02,230.45 111.45,239.74 
		126.44,239.92 126.66,220.86 118.33,221.05 	"/>
	<polygon class="st0" points="63.87,124.07 64.46,123.99 66.11,139.05 67.69,139.05 66.83,120.34 29.39,120.94 30.97,139.05 
		43.78,139.05 43.04,129.07 45.63,127.17 47.13,127.93 47.46,129.52 48.06,135.56 48.12,139.05 62.86,139.05 63.87,124.07 	"/>
	<polygon class="st0" points="85.91,139.05 88.5,119.99 69.28,120.3 68.93,139.05 85.91,139.05 	"/>
	<polygon class="st0" points="100.1,119.8 100.16,119.99 100.26,127.24 97.94,128.91 94.07,129.59 92.16,139.05 110.3,139.05 
		109.85,129.67 111.18,127.43 114.65,127.51 116.89,127.89 117.09,128.23 117.17,129.39 117.22,129.99 117.32,129.74 117.43,129.76 
		117.63,139.05 127.61,139.05 127.83,119.36 100.1,119.8 	"/>
	<polygon class="st0" points="23.1,121.04 8.48,121.27 8.48,121.29 9.19,139.05 23.84,139.05 23.1,121.04 	"/>
	<polygon class="st0" points="60.96,189.63 61.19,188.38 61.21,186.33 59.09,186.24 58.97,185.41 61.38,184.61 61.72,182.96 
		61.83,182.96 62.19,184.39 67.82,183.62 71.31,182.89 72.28,171.71 44.85,171.18 44.91,171.62 46.35,183.18 46.33,189.42 
		60.96,189.63 	"/>
	<polygon class="st0" points="88.81,190.03 93.53,190.1 94.33,183.7 95.3,172.15 73.43,171.73 73.53,180.89 73.73,180.86 
		85.92,181.41 88.84,189.95 88.81,190.03 	"/>
	<polygon class="st0" points="101.15,190.21 102.21,172.28 98.05,172.2 96.77,190.14 101.15,190.21 	"/>
	<polygon class="st0" points="107.99,183.72 107.48,183.04 103.31,182.32 103.08,190.23 108.32,190.31 107.99,183.72 	"/>
	<polygon class="st0" points="122.29,172.67 121.02,189.9 120.29,189.8 121.32,172.65 109.76,172.43 110.34,177.46 110.33,177.54 
		110.58,178.57 110.05,180.18 109.44,182.75 109.61,190.33 127.01,190.58 127.22,172.77 122.29,172.67 	"/>
	<polygon class="st0" points="105.46,173.56 107.76,173.56 107.97,174.6 108.27,172.93 108.31,172.4 103.12,172.3 103.25,178.01 
		104.06,177.93 105.46,173.56 	"/>
	<polygon class="st0" points="20.14,170.7 10.47,170.51 11.22,188.92 19.37,189.03 20.14,170.7 	"/>
	<polygon class="st0" points="25.14,170.8 21.7,170.73 21.17,189.06 25.04,189.11 25.14,170.8 	"/>
	<polygon class="st0" points="26.73,170.83 26.17,189.13 42.57,189.37 42.31,181.49 41.45,181.7 35.94,182.3 33.79,181.14 
		33.25,170.95 26.73,170.83 	"/>
	<polygon class="st0" points="92.51,274.58 93.24,268.18 78.61,268.49 78.63,270.24 77.93,278.82 76.08,278.59 75.9,269.45 
		75.98,268.55 14.51,269.85 15.07,283.84 15.07,283.85 28.73,284.07 27.74,282.08 30.31,277.77 30.34,277.76 30.34,277.76 
		30.41,277.68 30.65,277.73 39.12,278.21 59.39,275.47 61.47,277.45 61.1,282.63 61.84,283.36 62.51,284.61 91.24,285.06 
		92.51,274.58 	"/>
	<polygon class="st0" points="100.94,276.8 100.57,276.77 95.33,276.14 92.67,285.09 104.6,285.28 105.48,277.32 105.49,277.23 
		104.16,277.13 100.94,276.8 	"/>
	<polygon class="st0" points="117.06,285.47 118.3,267.65 107.89,267.87 109.23,277.32 109.62,285.36 117.06,285.47 	"/>
	<polygon class="st0" points="119.76,267.62 117.93,285.49 125.91,285.61 126.12,267.48 119.76,267.62 	"/>
	<polygon class="st0" points="147.86,134.87 146.01,134.39 145.04,133.17 144.69,117.99 129.86,119.31 129.58,139.05 147.66,139.05 
		147.86,134.87 	"/>
	<polygon class="st0" points="157.7,116.83 150.42,117.48 150.27,118.32 149.71,128.11 149.47,139.05 155.96,139.05 156.2,137.68 
		157.7,116.83 	"/>
	<polygon class="st0" points="159.03,116.71 158.93,123.81 158.83,128.5 158.9,133.15 158.79,139.05 166.27,139.05 166.9,116.01 
		159.03,116.71 	"/>
	<polygon class="st0" points="152.05,172.18 151.67,190.93 164.86,191.12 165.38,171.8 152.05,172.18 	"/>
	<polygon class="st0" points="140.33,184.22 141.25,172.5 130.13,172.82 129.12,172.8 128.87,190.61 139.56,190.76 140.33,184.22 	
		"/>
	<polygon class="st0" points="142.45,172.46 142,190.8 148.12,190.88 150.9,172.22 142.45,172.46 	"/>
	<polygon class="st0" points="139.94,267.19 135.91,267.27 137.66,285.8 140.32,285.84 139.94,267.19 	"/>
	<polygon class="st0" points="140.34,267.18 141.83,285.87 162.29,286.19 162.81,266.7 140.34,267.18 	"/>
	<polygon class="st0" points="134.77,267.3 127.82,267.45 127.56,285.64 135,285.76 134.77,267.3 	"/>
	<polygon class="st0" points="128.73,274.66 128.13,274.66 128.13,274.55 128.73,274.55 128.73,274.66 	"/>
	<polygon class="st0" points="128.53,220.81 128.45,220.81 128.19,239.94 143.77,240.13 143.74,225.66 145.41,225.66 145.92,240.15 
		154.44,240.25 155.94,230.54 156.7,218.8 128.53,220.81 	"/>
	<polygon class="st0" points="158.99,218.64 158.68,228.18 156.91,240.28 163.53,240.36 164.12,218.27 158.99,218.64 	"/>
	<polygon class="st0" points="160.58,313.02 160.1,344.51 150.77,344.51 152.02,313.02 160.58,313.02 	"/>
	<polygon class="st0" points="148.83,313.02 148.37,344.51 139.02,344.51 140.29,313.02 148.83,313.02 	"/>
	<polygon class="st0" points="137.09,313.02 136.62,344.51 127.28,344.51 128.55,313.02 137.09,313.02 	"/>
	<polygon class="st0" points="125.35,313.02 124.88,344.51 99.92,344.51 100.74,313.02 125.35,313.02 	"/>
	<polygon class="st0" points="97.56,313.02 97.51,344.51 72.75,344.51 73.14,313.02 97.56,313.02 	"/>
	<polygon class="st0" points="69.95,313.02 70.35,344.51 45.58,344.51 45.54,313.02 69.95,313.02 	"/>
	<polygon class="st0" points="42.35,313.02 43.18,344.51 18.2,344.51 17.74,313.02 42.35,313.02 	"/>
	<g>
		<path class="st1" d="M166.27,0v41.26l-33.58,3.79h-0.01l0.63-38.61h-4.6l-0.84,65.17l-39.59-2.06l-0.6-15.84l25.81,0.5l0.29-3.85
			l-26.22-0.01L85.93,6.44h-4.61l1.78,43.91h-6.37l0.44,3.14l6.06,0.12l0.63,15.7L68.05,68.5l0.42-18.13h-4.61l-0.29,17.9
			L49.7,67.54l-1.84-33.83h-4.61l2,33.59l-10.37-0.53V70l10.57,0.64l1.26,21.18h4.31L49.88,70.9l13.63,0.81l-0.33,20.11h4.32
			l0.47-19.84l16.05,0.96l0.76,18.88h4.31L88.4,73.19l39.42,2.35l-0.21,16.27h2.62h1.69l0.26-15.56l34.09-5.22v20.78h4.71l2-91.82
			H166.27z M166.27,66.77l-34.02,4.84l0.35-21.24l33.67-5.32V66.77z"/>
		<polygon class="st1" points="5.98,45.34 8.48,91.82 12.96,91.82 10.47,45.34 		"/>
	</g>
	<polygon class="st1" points="8.48,121.29 9.19,139.05 7.49,139.05 6.78,121.31 8.48,121.27 	"/>
	<polygon class="st1" points="23.65,121.04 24.24,139.05 22.51,139.05 21.91,121.06 23.63,121.03 	"/>
	<polygon class="st1" points="38.82,120.79 39.29,139.05 37.52,139.05 37.04,120.82 38.79,120.79 	"/>
	<polygon class="st1" points="53.99,120.55 54.33,139.05 52.54,139.05 52.17,120.58 53.95,120.54 	"/>
	<polygon class="st1" points="69.17,120.3 69.38,139.05 67.55,139.05 67.31,120.33 69.1,120.3 	"/>
	<polygon class="st1" points="84.34,120.05 84.43,139.05 82.57,139.05 82.44,120.09 84.26,120.05 	"/>
	<polygon class="st1" points="99.51,119.81 99.48,139.05 97.58,139.05 97.57,119.84 99.42,119.81 	"/>
	<polygon class="st1" points="114.68,119.56 114.53,139.05 112.59,139.05 112.7,119.6 114.57,119.57 	"/>
	<g>
		<polygon class="st1" points="129.86,119.31 129.58,139.05 127.61,139.05 127.83,119.36 129.73,119.32 		"/>
		<polygon class="st1" points="137.6,118.52 139.47,118.45 139.59,118.44 139.21,139.05 137.27,139.05 		"/>
		<polygon class="st1" points="147.37,117.69 149.22,117.58 149.33,117.57 148.85,139.05 146.94,139.05 		"/>
		<polygon class="st1" points="157.13,116.85 158.96,116.71 159.07,116.7 158.49,139.05 156.6,139.05 		"/>
		<polygon class="st1" points="168.81,115.83 168.13,139.05 166.27,139.05 166.9,116.01 		"/>
	</g>
	<g>
		<polygon class="st1" points="167.16,171.75 166.58,191.14 164.86,191.12 165.38,171.8 		"/>
		<polygon class="st1" points="155.4,190.99 155.84,172.04 157.65,172.01 157.16,191.01 		"/>
		<polygon class="st1" points="145.94,190.85 146.3,172.28 148.14,172.28 147.73,190.88 		"/>
		<polygon class="st1" points="136.47,190.71 136.76,172.52 138.63,172.54 138.3,190.74 		"/>
		<polygon class="st1" points="127.01,190.58 127.22,172.77 129.12,172.8 128.87,190.61 		"/>
	</g>
	<polygon class="st1" points="114.29,172.51 114.17,190.4 112.33,190.37 112.42,172.48 	"/>
	<polygon class="st1" points="99.46,172.23 99.46,190.19 97.64,190.16 97.61,172.19 	"/>
	<polygon class="st1" points="84.62,171.94 84.75,189.97 82.95,189.95 82.8,171.91 	"/>
	<polygon class="st1" points="69.79,171.66 70.04,189.76 68.27,189.74 68,171.62 	"/>
	<polygon class="st1" points="54.96,171.37 55.34,189.55 53.58,189.52 53.19,171.34 	"/>
	<polygon class="st1" points="40.13,171.09 40.63,189.34 38.89,189.31 38.38,171.05 	"/>
	<polygon class="st1" points="25.3,170.8 25.92,189.13 24.2,189.1 23.58,170.77 	"/>
	<polygon class="st1" points="10.47,170.51 11.22,188.92 9.52,188.89 8.77,170.48 	"/>
	<g>
		<polygon class="st1" points="163.53,240.36 164.12,218.27 165.77,218.15 165.77,218.16 165.12,240.39 		"/>
		<polygon class="st1" points="154.76,218.92 156.44,218.82 156.44,218.82 155.89,240.27 154.26,240.25 		"/>
		<polygon class="st1" points="145.39,219.57 147.11,219.48 147.11,219.49 146.66,240.16 144.98,240.14 		"/>
		<polygon class="st1" points="136.03,220.21 137.78,220.15 137.78,220.15 137.43,240.05 135.71,240.03 		"/>
		<polygon class="st1" points="128.45,220.81 128.19,239.94 126.44,239.92 126.66,220.86 		"/>
	</g>
	<polygon class="st1" points="112.19,221.19 113.97,221.15 113.82,239.77 112.07,239.75 112.19,221.34 	"/>
	<polygon class="st1" points="97.73,221.52 99.49,221.48 99.45,239.6 97.71,239.57 97.73,221.67 	"/>
	<polygon class="st1" points="83.26,221.85 85.02,221.81 85.08,239.43 83.34,239.4 83.26,222 	"/>
	<polygon class="st1" points="68.79,222.18 70.54,222.15 70.71,239.25 68.98,239.23 68.79,222.34 	"/>
	<polygon class="st1" points="54.32,222.52 56.06,222.48 56.34,239.08 54.61,239.06 54.32,222.67 	"/>
	<polygon class="st1" points="39.86,222.85 41.58,222.81 41.97,238.91 40.25,238.89 39.86,223 	"/>
	<polygon class="st1" points="25.39,223.18 27.1,223.14 27.6,238.74 25.88,238.72 25.39,223.33 	"/>
	<polygon class="st1" points="12.62,223.48 13.23,238.57 11.52,238.55 10.92,223.67 10.92,223.51 	"/>
	<polygon class="st1" points="14.51,269.85 15.07,283.84 15.07,283.85 13.36,283.82 13.36,283.71 12.8,269.89 	"/>
	<path class="st1" d="M26.96,269.59l1.71-0.03c0,0,0.46,14.51,0.46,14.52l-1.7-0.03l0-0.11L26.96,269.59z"/>
	<path class="st1" d="M41.13,269.29l1.71-0.03c0,0,0.36,15.04,0.36,15.05l-1.69-0.03l0-0.11L41.13,269.29z"/>
	<path class="st1" d="M55.29,268.98l1.7-0.03c0,0,0.25,15.56,0.25,15.57l-1.69-0.03l0-0.11L55.29,268.98z"/>
	<path class="st1" d="M69.46,268.68l1.7-0.03c0,0,0.15,16.09,0.15,16.09l-1.68-0.03l0-0.1L69.46,268.68z"/>
	<path class="st1" d="M83.63,268.38l1.7-0.03c0,0,0.05,16.61,0.05,16.62l-1.67-0.03l0-0.1L83.63,268.38z"/>
	<polygon class="st1" points="97.79,268.08 99.49,268.05 99.44,285.19 97.77,285.17 97.77,285.07 	"/>
	<polygon class="st1" points="111.96,267.78 113.66,267.75 113.5,285.41 111.84,285.39 111.84,285.29 	"/>
	<g>
		<polygon class="st1" points="127.82,267.45 127.56,285.64 125.91,285.61 126.12,267.48 		"/>
		<polygon class="st1" points="136.95,267.25 136.61,285.78 135.01,285.76 135.3,267.29 		"/>
		<polygon class="st1" points="146.08,267.06 145.66,285.93 144.1,285.9 144.47,267.09 		"/>
		<polygon class="st1" points="155.22,266.86 154.71,286.07 153.19,286.05 153.64,266.9 		"/>
		<polygon class="st1" points="164.35,266.67 163.76,286.22 162.29,286.19 162.81,266.7 		"/>
	</g>
	<polygon class="st1" points="163.76,313.02 162.51,344.51 160.1,344.51 160.58,313.02 	"/>
	<polygon class="st1" points="152.02,313.02 150.77,344.51 148.37,344.51 148.83,313.02 	"/>
	<polygon class="st1" points="140.29,313.02 139.02,344.51 136.62,344.51 137.09,313.02 	"/>
	<polygon class="st1" points="127.19,313.02 128.55,313.02 127.28,344.51 124.88,344.51 125.35,313.02 	"/>
	<polygon class="st1" points="100.74,313.02 99.92,344.51 97.51,344.51 97.56,313.02 	"/>
	<polygon class="st1" points="73.14,313.02 72.75,344.51 70.35,344.51 69.95,313.02 	"/>
	<polygon class="st1" points="45.54,313.02 45.58,344.51 43.18,344.51 42.35,313.02 	"/>
	<polygon class="st1" points="17.74,313.02 18.2,344.51 15.8,344.51 14.55,313.02 	"/>
	<polygon class="st2" points="163.76,286.22 168.81,286.29 167.96,313.02 163.76,313.02 160.58,313.02 152.02,313.02 148.83,313.02 
		140.29,313.02 137.09,313.02 128.55,313.02 127.19,313.02 127.56,285.64 162.29,286.19 	"/>
	<polygon class="st2" points="162.81,266.7 127.82,267.45 128.19,239.94 163.53,240.36 165.12,240.39 170.26,240.44 169.44,266.56 
		164.35,266.67 	"/>
	<polygon class="st2" points="166.58,191.14 171.82,191.22 170.97,217.78 165.77,218.15 164.12,218.27 128.53,220.81 128.45,220.81 
		128.87,190.61 164.86,191.12 	"/>
	<polygon class="st2" points="168.13,139.05 173.47,139.05 172.44,171.6 167.16,171.75 165.38,171.8 130.13,172.82 129.12,172.8 
		129.58,139.05 166.27,139.05 	"/>
	<polygon class="st2" points="131.92,91.82 166.27,91.82 170.97,91.82 174.97,91.82 174.22,115.36 168.81,115.83 166.9,116.01 
		129.86,119.31 130.23,91.82 	"/>
	<polygon class="st3" points="127.61,91.82 130.23,91.82 129.86,119.31 129.73,119.32 127.83,119.36 8.48,121.27 6.78,121.31 
		0.94,121.4 0,91.82 8.48,91.82 12.96,91.82 46.71,91.82 51.02,91.82 63.18,91.82 67.5,91.82 84.78,91.82 89.09,91.82 	"/>
	<polygon class="st3" points="127.61,139.05 129.58,139.05 129.12,172.8 127.22,172.77 10.47,170.51 8.77,170.48 2.48,170.36 
		1.5,139.05 7.49,139.05 9.19,139.05 	"/>
	<polygon class="st3" points="11.22,188.92 127.01,190.58 128.87,190.61 128.45,220.81 126.66,220.86 12.62,223.48 10.92,223.51 
		4.17,223.67 3.07,188.8 9.52,188.89 	"/>
	<polygon class="st3" points="128.19,239.94 127.82,267.45 126.12,267.48 14.51,269.85 12.8,269.89 5.64,270.04 4.64,238.47 
		11.52,238.55 13.23,238.57 126.44,239.92 	"/>
	<polygon class="st3" points="127.56,285.64 127.19,313.02 125.35,313.02 100.74,313.02 97.56,313.02 73.14,313.02 69.95,313.02 
		45.54,313.02 42.35,313.02 17.74,313.02 14.55,313.02 7,313.02 6.08,283.71 13.36,283.82 15.07,283.85 125.91,285.61 	"/>
	<g>
		<polygon class="st4" points="18.24,148.79 10.86,148.7 11.21,152 18.1,151.95 		"/>
		<polygon class="st4" points="49.29,143.44 42.68,143.36 43,146.31 49.16,146.26 		"/>
		<polygon class="st4" points="27.47,149.43 20.8,149.34 21.11,152.32 27.34,152.28 		"/>
		<polygon class="st4" points="15.79,267.18 16.07,269.82 22.63,269.68 22.74,267.27 		"/>
		<polygon class="st4" points="42.83,111 36.25,110.92 36.56,113.86 42.71,113.82 		"/>
		<polygon class="st4" points="18.42,112.4 23.9,112.36 23.9,112.39 30.71,112.34 30.85,109.22 23.55,109.13 23.61,109.67 
			18.13,109.6 		"/>
		<polygon class="st4" points="50.64,120.6 57.33,120.49 57.46,117.53 50.3,117.44 		"/>
		<polygon class="st4" points="59.03,166.86 52.16,166.77 52.49,169.84 58.9,169.8 		"/>
		<polygon class="st4" points="88.37,163.85 94.65,163.81 94.78,160.93 88.05,160.85 		"/>
		<polygon class="st4" points="100.53,142.11 94.13,142.03 94.44,144.89 100.41,144.85 		"/>
		<polygon class="st4" points="87.7,166.1 80.7,166.01 81.03,169.14 87.56,169.09 		"/>
		<polygon class="st4" points="66.66,155.67 67.02,159.06 73.3,159.02 73.57,161.54 79.91,161.49 80.04,158.59 74.13,158.51 
			74.26,155.77 		"/>
		<polygon class="st4" points="66.38,141.42 59.63,141.33 59.95,144.35 66.25,144.3 		"/>
		<polygon class="st4" points="79.62,97.39 72.74,97.31 73.06,100.38 79.49,100.34 		"/>
		<polygon class="st4" points="57.87,288.58 63.75,288.54 63.87,285.85 57.57,285.77 		"/>
		<polygon class="st4" points="62.51,303.89 68.48,303.85 68.6,301.11 62.21,301.03 		"/>
		<polygon class="st4" points="75.21,308.88 68.36,308.79 68.68,311.85 75.08,311.81 		"/>
		<polygon class="st4" points="53.38,293.15 46.93,293.07 47.24,295.95 53.25,295.9 		"/>
		<polygon class="st4" points="81.02,108.75 87.48,108.71 87.62,105.74 80.69,105.66 		"/>
		<polygon class="st4" points="93.19,289.04 100.01,288.99 100.15,285.87 92.85,285.78 		"/>
		<polygon class="st4" points="114.15,296.63 121.22,296.58 121.37,293.34 113.79,293.24 		"/>
		<polygon class="st4" points="108.43,303.18 100.81,303.08 101.17,306.49 108.28,306.44 		"/>
		<polygon class="st4" points="88.07,307.05 81.44,306.97 81.76,309.93 87.94,309.89 		"/>
		<polygon class="st4" points="118.89,149.77 111.75,149.68 112.09,152.87 118.76,152.83 		"/>
		<polygon class="st4" points="57.28,117.3 64.18,117.25 64.29,114.85 68.26,114.82 68.4,111.7 61.11,111.61 61.36,114.05 
			56.93,113.99 		"/>
		<polygon class="st4" points="120,105.11 120.13,102.18 113.28,102.1 113.6,105.16 		"/>
		<polygon class="st4" points="36.57,294.62 42.49,294.58 42.61,291.87 36.27,291.79 		"/>
		<polygon class="st4" points="18.39,312.24 10.76,312.14 10.85,313.02 14.55,313.02 17.74,313.02 18.36,313.02 		"/>
		<polygon class="st4" points="42.42,162.07 35.44,161.99 35.77,165.11 42.29,165.06 		"/>
		<polygon class="st4" points="92.08,211.82 84.98,211.73 85.32,214.9 91.94,214.85 		"/>
		<polygon class="st4" points="105.39,190.75 98.62,190.67 98.94,193.69 105.26,193.65 		"/>
		<polygon class="st4" points="115.37,214.28 121.76,214.24 121.89,211.31 115.05,211.23 		"/>
		<polygon class="st4" points="118.6,194.17 111.22,194.08 111.57,197.38 118.46,197.33 		"/>
		<polygon class="st4" points="83.19,197.8 75.67,197.7 76.02,201.06 83.05,201.01 		"/>
		<polygon class="st4" points="119.42,256.91 125.7,256.87 125.83,253.99 119.1,253.9 		"/>
		<polygon class="st4" points="71.84,192.13 64.66,192.04 65,195.25 71.7,195.2 		"/>
		<polygon class="st4" points="123.55,114.28 129.55,114.24 129.67,111.5 123.25,111.42 		"/>
		<polygon class="st4" points="128.86,191.26 122.35,191.18 122.67,194.21 128.82,194.17 		"/>
		<polygon class="st4" points="120.08,243.62 113.65,243.54 113.95,246.41 119.95,246.37 		"/>
		<polygon class="st4" points="51.21,208.24 51.33,205.5 44.93,205.42 45.23,208.28 		"/>
		<polygon class="st4" points="54.11,191.92 61.15,191.87 61.24,189.91 66.26,189.87 66.26,189.71 53.86,189.53 		"/>
		<polygon class="st4" points="7.73,109.7 14.7,109.66 14.85,106.46 7.38,106.37 		"/>
		<polygon class="st4" points="42.79,103.39 49.43,103.35 49.57,100.3 42.46,100.22 		"/>
		<polygon class="st4" points="26,284.91 18.4,284.81 18.76,288.21 25.85,288.16 		"/>
		<polygon class="st4" points="8.35,158.49 2.11,158.41 2.21,161.6 8.21,161.56 		"/>
		<polygon class="st4" points="6.95,207.35 11.77,207.32 11.9,204.46 5.22,204.37 5.51,207.1 3.64,207.08 3.74,209.98 6.83,209.96 
					"/>
		<polygon class="st4" points="23.09,208.31 23.22,205.37 16.36,205.29 16.68,208.35 		"/>
		<polygon class="st4" points="41.22,200.1 41.54,203.06 47.73,203.02 47.85,200.18 		"/>
		<polygon class="st4" points="15.22,248.74 15.37,245.48 7.73,245.38 8.09,248.79 		"/>
		<polygon class="st4" points="24.5,200.74 24.86,204.09 31.85,204.04 32,200.83 		"/>
		<polygon class="st4" points="99.51,243.93 92.78,243.85 93.1,246.85 99.38,246.81 		"/>
		<polygon class="st4" points="35.95,215.71 36.09,212.62 28.86,212.53 29.2,215.76 		"/>
		<polygon class="st4" points="68.09,263.52 61.2,263.43 61.53,266.51 67.96,266.46 		"/>
		<polygon class="st4" points="80.07,258.57 73.3,258.48 73.62,261.51 79.94,261.46 		"/>
		<polygon class="st4" points="87.24,257.57 93.75,257.52 93.88,254.54 86.91,254.46 		"/>
		<polygon class="st4" points="52.99,239.08 46.09,238.99 46.41,242.07 52.85,242.03 		"/>
		<polygon class="st4" points="36.65,250.51 29.91,250.42 30.23,253.43 36.52,253.39 		"/>
		<polygon class="st4" points="40.66,262.88 46.93,262.83 47.06,259.96 40.34,259.87 		"/>
	</g>
	<g>
		<polygon class="st2" points="93.36,267.72 91.76,261 91.98,256.88 93.54,252.99 95.47,249.48 96.35,246.31 96.11,244.1 
			95.78,243.34 96.06,244.11 96.17,246.29 95.13,249.33 93.03,252.72 91.2,256.72 90.78,261.06 91.1,262.57 90.65,261.54 
			88.22,258.34 85.02,255.68 77.51,252.29 71.01,248.7 67.45,243.94 65.96,240.13 65.37,239.19 65.35,239.19 65.92,240.15 
			67.28,244 70.77,248.96 77.27,252.8 84.56,256.31 87.55,258.9 89.79,262 92.22,267.92 92.25,268.08 92.28,268.07 92.33,268.2 
			93.52,268.17 93.33,267.73 		"/>
		<polygon class="st2" points="40.2,99.6 43.55,108.48 40.76,99.44 38.7,91.82 37.76,91.82 		"/>
		<polygon class="st2" points="69.06,120.3 69.16,119.93 70.11,116.88 72.35,112.78 76.48,108.72 78.29,106.1 78.7,102.87 
			77.83,99.86 77.57,96.99 78.9,91.82 77.76,91.82 76.59,96.95 76.96,100.08 77.91,103.01 76.04,108.36 72.05,112.57 69.94,116.83 
			69.11,119.91 69.02,120.3 		"/>
		<polygon class="st2" points="29.55,104.84 30.61,114.59 30.13,104.81 30.07,91.82 28.97,91.82 		"/>
		<polygon class="st2" points="47.75,287 49.67,297.15 51.49,304.83 52.51,308 51.67,304.79 50.25,297.06 49.36,291.29 50.9,293.56 
			53.68,296.29 56.83,301.64 56.99,303.57 56.94,304.28 57.04,303.57 57.01,301.61 56.19,298.82 54.11,295.91 51.53,293.09 
			49.61,289.94 48.48,285.54 48.3,284.38 46.99,284.36 		"/>
		<polygon class="st2" points="127.44,294.94 124.69,297.04 121.95,301.07 116.75,313.02 117.81,313.02 122.49,301.28 
			124.95,297.29 127.43,295.21 		"/>
		<polygon class="st2" points="84.06,292.2 83.94,292.89 83.64,294.75 83.33,300.89 85.33,310.84 84.68,309.53 81.86,305.48 
			80.55,300.66 79.33,292.3 79.16,288.74 79.15,292.31 79.97,300.76 81.1,305.74 82.33,308.1 83.89,310.09 84.87,313.02 
			86.92,313.02 83.91,300.86 83.83,294.77 83.99,292.9 		"/>
		<polygon class="st2" points="93.02,117.61 97.09,107.03 100.12,99.82 96.55,106.82 92.83,115.24 91.61,100.17 92.01,117.1 
			91.73,117.74 92.03,117.85 92.08,119.93 93.21,119.91 		"/>
		<polygon class="st2" points="12.68,254.92 19.89,251.11 12.44,254.41 5.22,256.66 5.25,257.6 		"/>
		<polygon class="st2" points="115.72,302.28 117.2,295.94 117.44,288.3 118.34,285.49 116.91,285.47 116.46,288.23 116.61,295.92 
			115.55,302.21 114.58,303.95 114.12,304.54 114.62,303.98 		"/>
		<polygon class="st2" points="37.16,267.3 37.69,266 45.61,258.31 51.61,251.32 54.01,248.29 51.47,251.21 45.18,257.93 
			38.47,264.09 39.95,260.47 41.24,256.13 41.34,251.61 41.11,244.18 42.3,242.26 43.08,241.87 42.27,242.22 40.94,244.14 
			40.59,247.54 40.76,251.64 40.46,255.99 39.03,260.12 36.51,265.88 32.6,269.47 34.15,269.44 36.58,267.08 		"/>
		<polygon class="st2" points="106.84,159.66 104.95,151.49 104.72,147.96 104.77,151.5 106.28,159.81 108.72,169.46 108.78,172.41 
			109.82,172.43 109.69,169.29 		"/>
		<polygon class="st2" points="41.67,145.96 41.31,149.14 41.77,152.5 41.45,155.78 39.29,158.5 36.72,161.17 35.17,164.48 
			34.94,165.81 34.23,167.22 34.66,167.32 34.02,170.86 34.01,170.97 35.14,170.99 35.78,166.95 39.09,162.62 46.46,159.03 
			50.57,156.99 54.19,154.05 61.04,148.26 68.81,144.96 75.3,142.25 78.86,139.23 78.95,139.05 78.9,139.05 78.82,139.2 
			75.21,142.1 68.68,144.63 60.75,147.77 56.96,150.36 53.62,153.51 50.09,156.27 46.07,158.16 38.42,161.76 36.73,163.34 
			37.46,161.66 39.86,159.03 42.09,156.03 42.35,152.42 41.79,149.12 42.03,146.03 43.38,140.81 43.87,139.05 43.75,139.05 
			43.2,140.77 		"/>
		<polygon class="st2" points="88.02,190.02 81.22,204.62 76.97,209.38 71.16,212.4 57.7,213.75 45.59,217.02 36.53,221.85 
			34.82,222.97 35.09,222.96 36.63,222 45.74,217.34 57.76,214.3 71.38,213.14 77.55,210.03 82.04,205.15 89.23,190.03 		"/>
		<polygon class="st2" points="92.94,190.09 91.44,190.1 83.16,204.3 82.47,210.05 82.6,213 83.46,215.8 84.09,218.35 83.77,220.85 
			83.55,221.85 83.89,221.84 84.13,220.92 84.56,218.35 84.01,215.59 83.27,210.08 84.12,204.5 		"/>
	</g>
</g>
</svg>
