<?xml version="1.0" encoding="utf-8"?>
<!-- Generator: Adobe Illustrator 23.1.1, SVG Export Plug-In . SVG Version: 6.00 Build 0)  -->
<svg version="1.1" id="Layer_1" xmlns="http://www.w3.org/2000/svg" xmlns:xlink="http://www.w3.org/1999/xlink" x="0px" y="0px"
	 viewBox="0 0 138.97 128.64" style="enable-background:new 0 0 138.97 128.64;" xml:space="preserve">
<style type="text/css">
	.st0{fill:#7E2E46;}
	.st1{fill:#E4624D;}
	.st2{fill:#46384E;}
	.st3{fill:#A3868B;}
	.st4{fill:#E3CEC3;}
	.st5{fill:#D4BCB6;}
	.st6{fill:#8D633A;}
	.st7{fill:#544842;}
</style>
<g>
	<polygon class="st0" points="130.85,119.4 130.86,118.3 138.55,118.3 138.5,128.61 107.54,128.61 107.54,118.3 118.6,118.3 
		118.61,119.4 128.62,119.4 	"/>
	<polygon class="st1" points="74.49,119.4 77.67,119.4 96.05,119.4 96.07,118.3 107.54,118.3 107.54,128.61 64.99,128.61 
		65.06,118.3 74.48,118.3 	"/>
	<polygon class="st1" points="42.2,118.3 42.27,128.61 2.7,128.61 2.46,118.3 11.5,118.3 11.52,119.4 14.69,119.4 32.78,119.4 
		32.79,118.3 	"/>
	<polygon class="st2" points="128.85,93.08 128.62,119.4 118.61,119.4 118.6,118.3 118.38,93.08 	"/>
	<polygon class="st2" points="123.62,75.4 125.15,80.24 118.27,80.24 118.22,73.53 	"/>
	<polygon class="st2" points="33.01,93.08 32.79,118.3 32.78,119.4 14.69,119.4 14.35,93.08 	"/>
	<polygon class="st2" points="65.23,93.08 65.06,118.3 64.99,128.61 45.45,128.61 45.21,93.08 	"/>
	<polygon class="st2" points="96.07,118.3 96.05,119.4 77.67,119.4 77.43,93.08 96.39,93.08 	"/>
	<polygon class="st2" points="96.72,67.82 96.55,80.24 77.31,80.24 77.22,70.82 86.9,71.53 88.74,66.71 96.71,67.82 	"/>
	<polygon class="st2" points="65.48,66.6 65.35,80.24 45.09,80.24 45.02,72 54.33,70.35 54.33,58.72 63.14,56.03 65.47,66.6 	"/>
	<polygon class="st2" points="33.2,72 33.13,80.24 14.19,80.24 13.91,58.96 21.45,58.96 21.45,53.08 28.72,53.08 30.61,71.29 	"/>
	<polygon class="st3" points="11.5,118.3 11.18,93.08 14.35,93.08 14.69,119.4 11.52,119.4 	"/>
	<polygon class="st3" points="42.2,118.3 42.03,93.08 45.21,93.08 45.45,128.61 42.27,128.61 	"/>
	<polygon class="st3" points="77.43,93.08 77.67,119.4 74.49,119.4 74.48,118.3 74.25,93.08 	"/>
	<polygon class="st3" points="72.71,60.54 73.23,65.39 71.2,65.02 70.57,60.13 	"/>
	<polygon class="st3" points="77.22,70.82 77.31,80.24 74.14,80.24 74,65.54 77.18,66.3 	"/>
	<polygon class="st3" points="45.02,72 45.09,80.24 41.92,80.24 41.65,49.79 44.81,49.79 	"/>
	<polygon class="st3" points="55.85,41.22 54.45,49.79 51.75,49.79 53.04,40.93 	"/>
	<polygon class="st3" points="51.46,36.96 50.66,40.62 47.22,40.17 47.76,36.96 	"/>
	<polygon class="st3" points="44.6,26.72 44.69,36.96 41.53,36.96 41.43,25.76 	"/>
	<polygon class="st3" points="13.91,58.96 14.19,80.24 11.01,80.24 10.62,49.79 13.79,49.79 	"/>
	<polygon class="st3" points="13.23,6.5 13.63,36.96 10.45,36.96 10.06,0 13.23,1.02 	"/>
	<polygon class="st4" points="135.6,45.75 134.14,57.73 131.82,57.95 133.43,46.05 	"/>
	<polygon class="st4" points="131.07,93.08 130.86,118.3 130.85,119.4 128.62,119.4 128.85,93.08 	"/>
	<polygon class="st4" points="131.38,57.99 131.18,80.24 128.96,80.24 129.15,58.2 	"/>
	<polygon class="st3" points="131.82,57.95 134.14,57.73 135.6,45.75 138.97,45.51 138.55,118.3 130.86,118.3 131.07,93.08 
		128.85,93.08 118.38,93.08 118.6,118.3 107.54,118.3 107.54,35.41 112.76,35.41 113.93,65.39 118.15,66.3 118.22,73.53 
		118.27,80.24 125.15,80.24 128.96,80.24 131.18,80.24 131.38,57.99 	"/>
	<path class="st4" d="M74,65.54l0.14,14.7h3.16h19.25l0.17-12.42l0.23-18.03H84.11l1.38-6.15l12.02-0.47l1.86-7.76h8.17v82.89H96.07
		l0.32-25.23H77.43h-3.17l0.23,25.23h-9.42l0.17-25.23H45.21h-3.17l0.17,25.23h-9.41l0.22-25.23H14.35h-3.17l0.32,25.23H2.46H2.45
		L0,18.41l3.39-1.1L2.54,1.8L10.06,0l0.4,36.96h3.17h19.9l0.12-13.5v-0.05l7.78,2.35l0.1,11.2h3.16h3.06l-0.53,3.21l3.44,0.45
		l2.37,0.31l-1.29,8.86h-6.94h-3.16l0.28,30.45h3.16h20.26l0.13-13.64l0.06-7.46v-0.02l5.03,1.01l0.63,4.89l2.03,0.38L74,65.54z
		 M33.2,72l0.2-22.21H13.79h-3.17l0.4,30.45h3.17h18.94L33.2,72z"/>
	<path class="st4" d="M74,65.54l0.14,14.7h3.16h19.25l0.17-12.42l0.23-18.03H84.11l1.38-6.15l12.02-0.47l1.86-7.76h8.17v82.89H96.07
		l0.32-25.23H77.43h-3.17l0.23,25.23h-9.42l0.17-25.23H45.21h-3.17l0.17,25.23h-9.41l0.22-25.23H14.35h-3.17l0.32,25.23H2.46H2.45
		L0,18.41l3.39-1.1L2.54,1.8L10.06,0l0.4,36.96h3.17h19.9l0.12-13.5v-0.05l7.78,2.35l0.1,11.2h3.16h3.06l-0.53,3.21l3.44,0.45
		l2.37,0.31l-1.29,8.86h-6.94h-3.16l0.28,30.45h3.16h20.26l0.13-13.64l0.06-7.46v-0.02l5.03,1.01l0.63,4.89l2.03,0.38L74,65.54z
		 M33.2,72l0.2-22.21H13.79h-3.17l0.4,30.45h3.17h18.94L33.2,72z"/>
	<g>
		<polygon class="st5" points="11.37,108.26 7.74,108.26 7.74,111.73 11.42,111.73 		"/>
		<polygon class="st5" points="10.94,74.71 6.9,74.71 6.9,77.64 10.98,77.64 		"/>
		<polygon class="st5" points="33,93.73 38.23,93.73 38.23,90.75 31.87,90.75 31.87,93.08 33.01,93.08 		"/>
		<rect x="1.93" y="66.08" class="st5" width="7.45" height="3.49"/>
		<rect x="34.12" y="61.02" class="st5" width="6.68" height="3.14"/>
		<polygon class="st5" points="0.42,35.52 1.82,35.52 1.82,32.29 0.34,32.29 		"/>
		<polygon class="st5" points="4.4,59.16 1,59.16 1.08,62.34 4.4,62.34 		"/>
		<polygon class="st5" points="18.98,80.24 14.19,80.24 12.05,80.24 12.05,82.52 18.98,82.52 		"/>
		<polygon class="st5" points="65.1,112.31 71.01,112.31 71.01,109 65.12,109 		"/>
		<polygon class="st5" points="8.1,16.41 10.23,16.41 10.2,13.45 8.1,13.45 		"/>
		<polygon class="st5" points="5.4,48.29 0.73,48.29 0.8,51.19 5.4,51.19 		"/>
		<rect x="38.55" y="85.85" class="st5" width="7.19" height="3.38"/>
		<polygon class="st5" points="74.33,101.16 70.99,101.16 70.99,104.3 74.36,104.3 		"/>
		<rect x="81.09" y="86.47" class="st5" width="6.91" height="3.24"/>
		<polygon class="st5" points="101.59,93.27 96.39,93.27 96.34,96.71 101.59,96.71 		"/>
		<rect x="80.75" y="80.41" class="st5" width="6.73" height="3.16"/>
		<polygon class="st5" points="64.15,80.87 70.59,80.87 70.59,77.85 65.37,77.85 65.35,80.24 64.15,80.24 		"/>
		<rect x="96.38" y="113.64" class="st5" width="6.21" height="2.92"/>
		<rect x="102.83" y="107.55" class="st5" width="4.71" height="3.49"/>
		<rect x="65.24" y="83.94" class="st5" width="6.33" height="2.97"/>
		<rect x="103.32" y="79.92" class="st5" width="4.22" height="3"/>
		<rect x="88.12" y="88.34" class="st5" width="6.45" height="3.03"/>
		<polygon class="st5" points="99.35,100.1 97.4,100.1 97.4,103.16 103.92,103.16 103.92,100.42 106.67,100.42 106.67,96.98 
			99.35,96.98 		"/>
		<rect x="92.54" y="80.26" class="st5" width="7.3" height="3.42"/>
	</g>
	<g>
		<polygon class="st3" points="33.01,93.08 32.97,97.93 33.85,95.07 38.48,84.02 41.87,74.35 41.86,73.34 41.75,73.43 37.83,83.77 
			33.4,93.72 33.48,92.2 34.22,85.15 34.55,83.34 34.79,81.42 34.74,77.56 34.38,73.75 34.54,70.02 35.48,66.37 36.17,64.59 
			36.76,62.7 37.13,58.83 37.14,56.97 37.43,55.19 40.14,48.5 42.24,42.05 45.47,36.96 45.08,36.96 41.84,41.86 39.61,48.31 
			36.76,55.01 36.42,56.91 36.38,58.82 35.97,62.51 34.65,66.07 33.6,69.86 33.37,73.81 33.68,77.63 33.68,81.34 33.43,83.12 
			33.07,84.95 32.23,92.15 32.11,93.08 		"/>
		<polygon class="st3" points="4.06,96.53 6.24,95.59 7.16,95.21 6.17,95.39 3.86,95.88 1.91,96.25 1.93,97.33 		"/>
		<polygon class="st3" points="15.94,38.1 17.2,42.27 18.11,45.77 18.24,46.88 18.27,47.29 18.3,46.88 18.32,45.75 17.87,42.1 
			17.09,37.88 17.04,36.96 15.82,36.96 		"/>
		<polygon class="st3" points="1.64,85.18 3.61,85.69 6.63,85.88 9.11,86.16 9.86,86.36 10.13,86.44 9.88,86.3 9.18,85.95 
			6.73,85.19 3.83,84.54 1.65,83.78 1.6,83.88 		"/>
		<polygon class="st3" points="6.66,43.79 5.9,45.1 6.84,43.9 8.84,40.88 11.14,36.96 10.45,36.96 10.44,35.88 8.23,40.56 		"/>
		<polygon class="st3" points="23.32,41.99 21.25,46.98 23.93,42.3 27.11,36.96 25.76,36.96 		"/>
		<polygon class="st3" points="107.54,86.84 105.78,86.53 102.37,85.19 103.24,85.87 105.54,87.18 107.54,87.79 		"/>
		<polygon class="st3" points="52.46,82.05 52.67,80.24 51.69,80.24 51.78,81.98 51.63,84.72 		"/>
		<polygon class="st3" points="101.16,116.38 102.02,111.5 102.63,107.41 102.99,105.7 102.42,107.36 101.35,111.37 100.04,116.05 
			99.05,118.3 100.43,118.3 		"/>
		<polygon class="st3" points="96.78,63.41 96.76,64.68 97.48,64.4 98.44,63.76 99.11,62.82 99.78,61.23 98.2,68.6 96.67,71.23 
			96.65,73.36 99.29,69.02 101.32,59.52 101.57,58.14 101.73,57.85 102.42,56.09 103.32,52.66 104.21,49.55 105.63,47 107.54,44.68 
			107.54,42.53 104.53,46.18 102.94,49.08 102.26,51.45 101.2,53.31 100.83,55.2 100.74,55.64 100.61,56.13 100.37,57.17 
			100.24,57.96 99.71,58.84 98.74,60.52 98.03,62.27 96.95,63.34 		"/>
		<polygon class="st3" points="86.36,93.08 87.07,91.33 88.22,86.41 89.76,81.48 90.52,80.24 89.55,80.24 89,81.17 87.55,86.26 
			86.53,91.17 85.82,93.08 		"/>
		<polygon class="st3" points="55,90.11 55.83,88.03 57.06,86.06 58.99,82.57 59.37,81.4 59.46,80.96 59.31,81.39 58.8,82.48 
			56.5,85.65 55.03,87.53 53.91,89.7 52.22,92.86 52.45,93.08 53.58,93.08 		"/>
		<polygon class="st3" points="68.21,105.02 69.87,102.76 70.79,99.85 69.66,96.8 69.07,95.27 68.87,93.61 68.47,90.01 66.97,86.59 
			67.68,79.47 73.77,74.75 74.09,74.68 74.08,73.84 73.47,73.98 67.09,79.11 65.79,82.94 66.46,86.81 67.99,90.16 68.43,93.63 
			68.68,95.37 69.32,96.96 70.47,99.88 69.64,102.62 68.05,104.88 65.13,107.7 65.13,107.89 		"/>
	</g>
	<polygon class="st6" points="14.4,96.5 32.96,98.23 32.92,102.86 14.46,101.77 	"/>
	<polygon class="st6" points="14.51,105.23 32.91,104.65 32.87,109.07 14.51,108.26 	"/>
	<polygon class="st6" points="14.59,111.73 32.84,112.09 32.81,115.41 14.69,116.55 	"/>
	<polygon class="st6" points="77.46,96.27 96.33,97.91 96.26,102.73 77.51,102.45 	"/>
	<polygon class="st6" points="77.55,106.86 96.21,106.86 96.16,111.05 77.67,112.31 	"/>
	<polygon class="st6" points="43.74,93.08 43.74,128.61 51.63,128.61 50.14,95.21 	"/>
	<polygon class="st7" points="43.74,93.08 46.26,93.08 52.39,94.75 53.04,128.64 51.63,128.61 50.14,95.21 	"/>
	<path class="st7" d="M49.76,116.8l-4.9-0.48l-0.52-20.72l4.27,1.19l0.01,0.16L49.76,116.8z M45.31,115.91l3.96,0.39l-1.1-19.13
		l-3.35-0.94L45.31,115.91z"/>
	<path class="st7" d="M50.32,127.47h-5.53v-9.41l4.95,0.37L50.32,127.47z M45.25,127.01h4.58l-0.53-8.15l-4.05-0.31V127.01z"/>
</g>
</svg>
