<?xml version="1.0" encoding="utf-8"?>
<!-- Generator: Adobe Illustrator 23.1.1, SVG Export Plug-In . SVG Version: 6.00 Build 0)  -->
<svg version="1.1" id="Layer_1" xmlns="http://www.w3.org/2000/svg" xmlns:xlink="http://www.w3.org/1999/xlink" x="0px" y="0px"
	 viewBox="0 0 187.93 235.32" style="enable-background:new 0 0 187.93 235.32;" xml:space="preserve">
<style type="text/css">
	.st0{fill:#A97A96;}
	.st1{fill:#A3868B;}
	.st2{fill:#7E2E46;}
	.st3{fill:#E3CEC3;}
	.st4{fill:#46384E;}
	.st5{fill:#FFF7CD;}
	.st6{fill:#D4BCB6;}
	.st7{fill:#E4624D;}
	.st8{fill:#8D633A;}
	.st9{fill:#637171;}
</style>
<g>
	<polygon class="st0" points="187.93,0 186.96,5.72 183.65,5.72 145.02,5.72 145.57,0 	"/>
	<path class="st1" d="M183.65,5.72l-1.22,216.53h-9.76l0.27-32.01h-2.82h-13.28l0.28,32.01H143.1l0.08-216.53h1.84H183.65z
		 M174.02,64.13l0.38-44.98h-2.82h-16.2l0.39,44.98h15.43H174.02z M173.55,119.05l0.33-38.64h-2.82h-15.15l0.33,38.64h14.49H173.55z
		 M173.08,173.96l0.33-38.63h-2.82h-14.21l0.32,38.63h13.56H173.08z"/>
	<polygon class="st2" points="182.43,222.25 182.36,235.32 143.09,235.32 143.1,222.25 157.12,222.25 157.13,223.63 169.84,223.63 
		172.66,223.63 172.67,222.25 	"/>
	<polygon class="st3" points="174.4,19.15 174.02,64.13 171.2,64.13 171.58,19.15 	"/>
	<polygon class="st3" points="173.88,80.41 173.55,119.05 170.73,119.05 171.06,80.41 	"/>
	<polygon class="st3" points="173.41,135.33 173.08,173.96 170.26,173.96 170.59,135.33 	"/>
	<polygon class="st3" points="172.94,190.24 172.67,222.25 172.66,223.63 169.84,223.63 170.12,190.24 	"/>
	<polygon class="st4" points="171.58,19.15 171.2,64.13 155.77,64.13 155.38,19.15 	"/>
	<polygon class="st4" points="171.06,80.41 170.73,119.05 156.24,119.05 155.91,80.41 	"/>
	<polygon class="st4" points="170.59,135.33 170.26,173.96 156.7,173.96 156.38,135.33 	"/>
	<polygon class="st4" points="170.12,190.24 169.84,223.63 157.13,223.63 157.12,222.25 156.84,190.24 	"/>
	<polygon class="st5" points="145.57,0 145.02,5.72 143.18,5.72 4.46,5.72 0.97,5.72 0,0 	"/>
	<path class="st3" d="M143.18,5.72l-0.08,216.53h-0.01h-14.56l0.41-32.01h-24.06h-4.02l0.3,32.01h-0.01H89.2l0.21-32.01h-25.4h-4.02
		l0.21,32.01H48.25l0.29-32.01H24.86h-4.01l0.41,32.01H9.77L4.46,5.72H143.18z M130.57,64.13l0.58-44.98h-27.82h-4.02l0.41,44.98
		h4.02H130.57z M129.86,119.05l0.5-38.64h-26.48h-4.01l0.35,38.64h4.01H129.86z M129.15,173.96l0.5-38.63h-25.27h-4.02l0.36,38.63
		h4.01H129.15z M90.56,64.13l0.41-44.98H62.46h-4.02l0.41,44.98h4.02H90.56z M90.06,119.05l0.35-38.64h-27.4H59l0.35,38.64h4.01
		H90.06z M89.56,173.96l0.35-38.63h-26.4h-4.02l0.35,38.63h4.02H89.56z M49.69,64.13l0.4-44.98H22.65h-4.02l0.58,44.98h4.02H49.69z
		 M49.19,119.05l0.35-38.64h-26.1h-4.02l0.5,38.64h4.02H49.19z M48.69,173.96l0.35-38.63H24.15h-4.01l0.5,38.63h4.01H48.69z"/>
	<g>
		<polygon class="st6" points="12.47,112.61 7.08,112.61 7.17,116.31 12.47,116.31 		"/>
		<rect x="7.81" y="39.59" class="st6" width="7.86" height="3.69"/>
		<rect x="11.31" y="70.47" class="st6" width="7.42" height="3.48"/>
		<rect x="23.11" y="128.44" class="st6" width="7.54" height="3.54"/>
		<polygon class="st6" points="13.67,157.58 8.18,157.58 8.27,161.04 13.67,161.04 		"/>
		<rect x="10.27" y="80.48" class="st6" width="7.83" height="3.67"/>
		<polygon class="st6" points="12.26,133.57 7.6,133.57 7.68,137.21 12.26,137.21 		"/>
		<polygon class="st6" points="19.53,89.06 14.96,89.06 14.96,92.77 19.58,92.77 		"/>
		<rect x="134.66" y="18.43" class="st6" width="7.63" height="3.58"/>
		<rect x="122.09" y="10.36" class="st6" width="7.77" height="3.64"/>
		<rect x="106.97" y="66.78" class="st6" width="7.66" height="3.6"/>
		<polygon class="st6" points="135.75,111.66 129.96,111.66 129.91,115.39 135.75,115.39 		"/>
		<polygon class="st6" points="20.3,147.6 16.6,147.6 16.6,151.17 20.35,151.17 		"/>
		<polygon class="st6" points="94.62,84.64 99.91,84.64 99.88,81.02 94.62,81.02 		"/>
		<rect x="132.75" y="124.33" class="st6" width="7.26" height="3.41"/>
		<rect x="127.75" y="187.02" class="st6" width="6.81" height="3.19"/>
		<rect x="130.4" y="180.55" class="st6" width="6.86" height="3.22"/>
		<rect x="97.37" y="182.1" class="st6" width="6.88" height="3.23"/>
		<polygon class="st6" points="106.81,173.96 104.73,173.96 100.72,173.96 100.7,172.14 99.77,172.14 99.77,175.44 106.81,175.44 		
			"/>
		<rect x="80.08" y="180.77" class="st6" width="7.52" height="3.53"/>
		<rect x="58.11" y="182.23" class="st6" width="7.71" height="3.62"/>
		<rect x="28.5" y="173.96" class="st6" width="6.76" height="3.13"/>
		<polygon class="st6" points="9.06,185.66 8.87,185.66 8.97,189.48 9.06,189.48 		"/>
		<polygon class="st6" points="95.18,190.77 89.41,190.77 89.39,193.97 95.18,193.97 		"/>
		<polygon class="st6" points="12.87,217.76 9.66,217.76 9.74,220.99 12.87,220.99 		"/>
		<polygon class="st6" points="20.97,199.83 16.27,199.83 16.27,203.48 21.02,203.48 		"/>
		<rect x="136.21" y="211.12" class="st6" width="6.89" height="3.74"/>
		<polygon class="st6" points="101.01,206.14 93.36,206.14 93.36,209.78 101.04,209.78 		"/>
		<rect x="136.92" y="142.23" class="st6" width="6.2" height="3.83"/>
		<polygon class="st6" points="132.33,201.63 128.79,201.63 128.75,205.01 132.33,205.01 		"/>
		<rect x="50.13" y="30.49" class="st6" width="7.8" height="3.66"/>
		<rect x="62.32" y="14.48" class="st6" width="7.54" height="3.54"/>
		<polygon class="st6" points="10.56,37.88 10.56,34.12 5.16,34.12 5.25,37.88 		"/>
		<rect x="49.54" y="84.79" class="st6" width="8.02" height="3.77"/>
		<rect x="24.65" y="64.13" class="st6" width="7.24" height="3.26"/>
		<rect x="55.03" y="66.59" class="st6" width="7" height="3.29"/>
		<polygon class="st6" points="4.79,19.18 12.23,19.18 12.23,15.48 4.7,15.48 		"/>
		<polygon class="st6" points="59.17,98.65 52.88,98.65 52.88,102.47 59.2,102.47 		"/>
		<rect x="64.62" y="123.05" class="st6" width="7.77" height="3.65"/>
		<polygon class="st6" points="59.49,135.33 60.68,135.33 60.68,133.89 53.05,133.89 53.05,137.46 59.51,137.46 		"/>
	</g>
	<polygon class="st7" points="143.1,222.25 143.09,235.32 89.11,235.32 89.2,222.25 101.15,222.25 101.16,222.25 101.17,223.63 
		105.18,223.63 128.51,223.63 128.53,222.25 143.09,222.25 	"/>
	<polygon class="st4" points="131.15,19.15 130.57,64.13 103.74,64.13 103.33,19.15 	"/>
	<polygon class="st4" points="130.36,80.41 129.86,119.05 104.23,119.05 103.88,80.41 	"/>
	<polygon class="st4" points="129.65,135.33 129.15,173.96 104.73,173.96 104.38,135.33 	"/>
	<polygon class="st4" points="128.53,222.25 128.51,223.63 105.18,223.63 104.88,190.24 128.94,190.24 	"/>
	<polygon class="st1" points="104.88,190.24 105.18,223.63 101.17,223.63 101.16,222.25 100.86,190.24 	"/>
	<polygon class="st1" points="104.38,135.33 104.73,173.96 100.72,173.96 100.36,135.33 	"/>
	<polygon class="st1" points="103.88,80.41 104.23,119.05 100.22,119.05 99.87,80.41 	"/>
	<polygon class="st1" points="103.33,19.15 103.74,64.13 99.72,64.13 99.31,19.15 	"/>
	<polygon class="st4" points="90.97,19.15 90.56,64.13 62.87,64.13 62.46,19.15 	"/>
	<polygon class="st4" points="90.41,80.41 90.06,119.05 63.36,119.05 63.01,80.41 	"/>
	<polygon class="st4" points="89.91,135.33 89.56,173.96 63.86,173.96 63.51,135.33 	"/>
	<polygon class="st4" points="89.41,190.24 89.2,222.25 89.11,235.32 64.31,235.32 64.01,190.24 	"/>
	<polygon class="st1" points="60.2,222.25 59.99,190.24 64.01,190.24 64.31,235.32 60.29,235.32 	"/>
	<polygon class="st1" points="63.51,135.33 63.86,173.96 59.84,173.96 59.49,135.33 	"/>
	<polygon class="st1" points="63.01,80.41 63.36,119.05 59.35,119.05 59,80.41 	"/>
	<polygon class="st1" points="62.46,19.15 62.87,64.13 58.85,64.13 58.44,19.15 	"/>
	<polygon class="st7" points="60.2,222.25 60.29,235.32 10.09,235.32 9.77,222.25 21.26,222.25 21.28,223.63 25.3,223.63 
		48.24,223.63 48.25,222.25 	"/>
	<polygon class="st4" points="50.09,19.15 49.69,64.13 23.23,64.13 22.65,19.15 	"/>
	<polygon class="st4" points="49.54,80.41 49.19,119.05 23.94,119.05 23.44,80.41 	"/>
	<polygon class="st4" points="49.04,135.33 48.69,173.96 24.65,173.96 24.15,135.33 	"/>
	<polygon class="st4" points="48.54,190.24 48.25,222.25 48.24,223.63 25.3,223.63 24.86,190.24 	"/>
	<polygon class="st1" points="24.86,190.24 25.3,223.63 21.28,223.63 21.26,222.25 20.85,190.24 	"/>
	<polygon class="st1" points="24.15,135.33 24.65,173.96 20.64,173.96 20.14,135.33 	"/>
	<polygon class="st1" points="23.44,80.41 23.94,119.05 19.92,119.05 19.42,80.41 	"/>
	<polygon class="st1" points="22.65,19.15 23.23,64.13 19.21,64.13 18.63,19.15 	"/>
	<g>
		<path class="st1" d="M100.63,164.73l-0.01-0.93c-0.07-0.05-0.13-0.09-0.2-0.14c-2.04-1.27-6.19-3.66-8.81-5.07
			c-0.44-1.03-0.85-2.01-1.22-2.89l-0.67,0.29l-0.02,1.89c0.52,1.2,1.08,2.5,1.67,3.85c0.89,2.02,1.82,4.13,2.7,6.12
			c2.3,1.85,4.66,3.74,6.64,5.33l-0.01-1.38c-1.71-1.46-3.67-3.12-5.57-4.74c-0.79-1.91-1.63-3.95-2.43-5.89
			c-0.06-0.14-0.12-0.28-0.18-0.42c2.55,1.29,5.76,2.84,7.5,3.61C100.23,164.48,100.43,164.6,100.63,164.73z"/>
		<path class="st1" d="M19.01,143.18C18.8,143.47,18.79,143.49,19.01,143.18L19.01,143.18z"/>
		<path class="st1" d="M19.01,143.18c0-0.01,0.01-0.01,0.01-0.02c0.03-0.04,0.05-0.07,0.07-0.1
			C19.06,143.11,19.04,143.14,19.01,143.18z"/>
		<path class="st1" d="M47.5,76.47c0.01,0.02,0.02,0.05,0.02,0.08C47.85,77.3,47.89,77.4,47.5,76.47z"/>
		<path class="st1" d="M19.13,143.06c0.26-0.15,0.63-0.36,1.1-0.63l0-0.03c-0.48,0.28-0.86,0.49-1.12,0.64
			c-0.04,0.05-0.06,0.08-0.09,0.12c-1.25,1.77-1.45,2.06-1.48,2.1c0.03-0.04,0.23-0.33,1.56-2.2
			C18.74,143.59,18.76,143.53,19.13,143.06z"/>
		<path class="st1" d="M60.05,199.82c-0.6,0.65-1.19,1.29-1.72,1.87c-0.67,1.54-1.35,3.07-1.86,4.23c-0.49,1.14-0.81,1.92-0.72,1.84
			c-3.81,2.4-6.78,4.31-5.8,3.79c-0.64,0.59-1.17,1.08-1.63,1.5l0,0.12c0.45-0.39,0.97-0.84,1.59-1.38
			c0.15-0.02,2.69-1.47,6.34-3.57c0.09-0.1,0.48-0.81,1.05-1.91c0.55-1.08,1.27-2.52,2-3.95c0.24-0.23,0.51-0.49,0.76-0.73
			L60.05,199.82z"/>
		<path class="st1" d="M105.79,176.24c-0.1-0.09-0.27-0.25-0.52-0.48c-0.21-0.19-0.49-0.43-0.82-0.72
			c-0.36-0.31-0.78-0.68-1.25-1.08h-1.53c0.86,0.68,1.63,1.28,2.22,1.75c0.35,0.27,0.64,0.49,0.86,0.67
			c0.12,0.09,0.21,0.16,0.3,0.22c0.08,0.06,0.09,0.06,0.12,0.08c2.21,5.43,4.06,9.96,5.53,13.56h0.32
			C109.66,186.55,107.9,181.86,105.79,176.24z"/>
		<path class="st1" d="M28.1,173.96h-0.28c0,0.01-0.01,0.01-0.01,0.02c0-0.01,0-0.01,0.01-0.02h-0.05
			c-0.58,1.31-3.12,7.66-6.15,15.3c-0.13,0.21-0.33,0.55-0.58,0.98h0.98c0.13-0.25,0.24-0.48,0.32-0.64
			C25.35,181.54,27.8,174.94,28.1,173.96L28.1,173.96z"/>
		<path class="st1" d="M20.85,190.54c-0.63,1.09-1.54,2.67-2.57,4.51c-1.56,2.78-3.44,6.14-5.2,9.28c-0.12,0.09-0.25,0.18-0.37,0.27
			c0.27-0.84,0.55-1.72,0.85-2.63c0.59-1.85,1.2-3.81,1.8-5.71c-0.12-2.76-0.24-5.65-0.34-8.01c-0.11-2.3-0.21-4.15-0.27-4.67
			c0.81-5.98,1.53-11.29,1.57-12.01c1.83-4.1,3.18-7.13,4.17-9.34l0-0.28c-1.06,2.24-2.53,5.37-4.55,9.65
			c0.13-1.41-0.85,4.63-2.02,11.93c-0.03,0.68-0.02,2.42,0.01,4.76c0.03,2.29,0.08,5.1,0.12,7.78c-0.62,1.81-1.25,3.68-1.85,5.45
			c-0.55,1.65-1.07,3.21-1.53,4.58c-0.42,0.31-0.84,0.61-1.26,0.92l0.04,1.73c0.79-0.6,1.6-1.2,2.43-1.82l0.08,0.03
			c0.01-0.04,0.03-0.08,0.04-0.12c0.71-0.53,1.42-1.07,2.14-1.6c1.73-3.27,3.59-6.77,5.12-9.66c0.61-1.16,1.16-2.21,1.63-3.12
			L20.85,190.54z"/>
		<path class="st1" d="M141.23,37.86c0.7-1.73,1.34-3.3,1.94-4.77l0-3.42c-0.3,0.59-0.64,1.24-1.04,2.02
			c-0.7,1.73-1.45,3.6-2.28,5.68c-0.88,3-1.82,6.25-2.52,8.65c-1.42,3-2.9,6.13-3.47,7.33c-0.9,1.4-1.8,2.8-1.93,3
			c-0.16,0.54-0.32,1.08-0.44,1.49c-0.03,0.12-0.06,0.21-0.08,0.28c-0.01,0.03-0.01,0.05-0.01,0.05c-0.25,0.04-0.5,0.09-0.75,0.13
			l-0.01,1.15c0.53-0.08,1.09-0.17,1.65-0.26c0.01-0.04,0.37-1.19,0.72-2.33c0.13-0.19,1.03-1.54,1.93-2.89
			c0.35-0.71,1.02-2.08,1.82-3.7c-0.05,2.76-0.08,6-0.21,9.21c-0.19,4.2-0.36,8.27-0.46,11.29c0.92,6.67,1.73,12.46,1.66,11.32
			c0.57,1.96,1.09,3.75,1.4,4.81c0.04,0.13,0.07,0.25,0.11,0.36c0.04,0.08,0.04,0.16,0.02,0.23c-0.03,0.17-0.04,0.29-0.05,0.34
			c-0.02,0.12,0.03-0.06,0.11-0.46c-0.34,1.83-0.63,3.43-0.79,4.34c-0.09,0.94-0.06,1.15-0.01,0.19c-0.11,2.08-0.2,3.7-0.25,4.59
			c0.02,0.13,0.04,0.24,0.06,0.34c-0.01-0.05-0.03-0.11-0.05-0.17c0.02,0.07,0.03,0.12,0.05,0.19c0.08,0.44,0.13,0.51,0.04,0.16
			c0.96,3.65,1.09,4.13,1.1,4.18c-0.01-0.05-0.14-0.55-1.16-4.53c0.09,0.3,0.13,0.47,0.14,0.53c-0.02-0.07-0.06-0.31-0.12-0.69
			c0.06-0.89,0.16-2.51,0.3-4.58c-0.04,0.96-0.05,0.73,0.06-0.17c0.18-0.92,0.51-2.53,0.87-4.38c-0.09,0.52-0.1,0.62-0.08,0.53
			c0.01-0.06,0.04-0.17,0.08-0.35c0.01-0.05,0.02-0.11,0.04-0.17c-0.01-0.06-0.03-0.12-0.05-0.19c-0.03-0.11-0.06-0.24-0.1-0.37
			c-0.28-1.04-0.74-2.76-1.25-4.67c0.07-0.02-0.55-5.49-1.22-11.4c0.25-2.85,0.56-7.04,0.86-11.2c0.27-4.18,0.33-8.43,0.44-11.59
			l-0.41-0.01c0.23-0.47,0.47-0.95,0.7-1.42C139.33,44.12,140.31,40.86,141.23,37.86z"/>
		<path class="st1" d="M47.5,76.47C47.5,76.47,47.49,76.47,47.5,76.47c-0.02-0.04-0.03-0.07-0.04-0.1
			C47.47,76.41,47.48,76.43,47.5,76.47z"/>
		<path class="st1" d="M89.51,8.77c-2.42,1.89-4.77,3.76-6.02,4.81c-2.21,0.97-4.14,1.82-5.39,2.37c-0.61,0.28-1.06,0.49-1.29,0.59
			c-0.23,0.06-0.24,0.08,0.03,0.05c-1.39,0.28-2.51,0.5-3.14,0.63c-0.17,0.01-0.3,0.09-0.37,0.15c-0.08,0.05-0.13,0.09-0.15,0.1
			c-0.03,0.03,0.06-0.02,0.32-0.18c-2.79,1.71-3.04,1.86-3.04,1.86s0.26-0.15,3.07-1.81c-0.24,0.15-0.34,0.21-0.3,0.2
			c0.02-0.01,0.07-0.04,0.15-0.08c0.08-0.05,0.18-0.11,0.34-0.12c0.63-0.11,1.76-0.31,3.17-0.55c-0.3,0.07-0.28,0.09-0.01,0.05
			c0.28-0.09,0.72-0.25,1.37-0.5c1.29-0.5,3.28-1.28,5.56-2.16c1.5-0.98,3.87-2.62,6.41-4.4c0.36-0.24,0.72-0.49,1.08-0.74
			c-1.96,3.38-4.14,7.14-5.86,10.12h1.56c1.59-2.68,3.5-5.89,5.26-8.86c-0.01,0.13-0.02,0.24-0.04,0.37
			c-0.1,1.12-0.21,2.3-0.31,3.48c0.27,1.81,0.51,3.31,0.64,4c0.4,0.92,0.8,1.83,1.09,2.51c0.29,0.65,0.5,1.11,0.48,1
			c0.63,3.7,1.21,7.12,1.33,7.41c-0.62,3.81-0.9,6.4-1.08,7.97c-0.18,1.59-0.25,2.2-0.25,2.2s0.1-0.6,0.35-2.19
			c0.25-1.6,0.61-4.13,1.37-8.09c0.19,0.73-0.27-2.99-0.86-7.54c0-0.05-0.14-0.47-0.4-1.15c-0.25-0.65-0.58-1.54-0.92-2.42
			c-0.01-0.34-0.23-2.29-0.39-3.72c0.14-1.11,0.28-2.24,0.41-3.3c0.09-0.83,0.18-1.6,0.26-2.32c1.05-1.02,1.99-1.93,2.87-2.78h-3.2
			C92.3,6.66,90.87,7.7,89.51,8.77z"/>
		<path class="st1" d="M48.68,10.86c-1.85,3.23-3.57,6.3-4.63,8.26c0,0.01-0.01,0.02-0.01,0.04h0.85c1.17-1.78,3-4.67,4.86-7.64
			c1.23-1.99,2.54-4,3.7-5.79h-1.72C50.74,7.34,49.68,9.1,48.68,10.86z"/>
		<path class="st1" d="M54.15,200.12c-0.88,0.19-1.38,0.3-1.38,0.3s0.51-0.01,1.41-0.02c0.92-0.02,2.14-0.06,3.76-0.14
			c0.57-0.1,1.34-0.26,2.11-0.45l-0.01-1.41c-0.87,0.35-1.77,0.74-2.29,1.01C56.33,199.68,55.01,199.94,54.15,200.12z"/>
		<path class="st1" d="M134.48,186.72c3.22,2.02,5.64,3.54,7.25,4.55c0.56,0.34,1.01,0.62,1.38,0.85V192
			c-0.34-0.24-0.76-0.54-1.26-0.91c-1.57-1.1-3.91-2.76-7.04-4.96c-0.23-0.16-1.09-0.61-2.34-1.22c-1.23-0.59-2.78-1.34-4.27-2.06
			c-0.69-0.44-1.44-0.91-2.18-1.38c-1.79-2.71-3.55-5.34-5.02-7.51h-1.8c1.18,1.69,2.61,3.72,4.15,5.87
			c-0.07-0.04-0.16-0.1-0.23-0.14c0,0,1.2,2.44,2.33,3.08c0.87,1.21,1.74,2.42,2.6,3.6c0.87,1.22,1.76,2.38,2.52,3.52
			c0.76,1.14,1.47,2.2,2.1,3.15c1.27,1.89,2.25,3.34,2.69,3.94c1.95,7.24,2.35,8.72,2.35,8.72s-0.36-1.49-2.16-8.8
			c-0.39-0.71-1.24-2.19-2.4-4.17c-0.58-0.99-1.23-2.09-1.93-3.27c-0.7-1.18-1.53-2.38-2.35-3.64c-0.39-0.59-0.78-1.19-1.18-1.8
			c1.53,0.63,3.11,1.28,4.36,1.79C133.33,186.32,134.31,186.7,134.48,186.72z"/>
		<path class="st1" d="M109.05,65.72c-4.08,0.79-7.89,1.52-10.3,1.99c-0.61,0.12-1.13,0.22-1.54,0.3c-0.18,0.04-0.46,0.07-0.59,0.2
			c-0.13,0.08-0.23,0.15-0.31,0.2c-0.3,0.19-0.22,0.16,0.51-0.28c-2.01,1.24-3.89,2.41-5,3.1c-0.11,0.09-0.33,0.15-0.39,0.3
			c-0.07,0.13-0.12,0.24-0.17,0.33c-0.09,0.18-0.15,0.29-0.17,0.33c-0.03,0.07,0.06-0.09,0.4-0.73c-0.89,1.69-1.72,3.27-2.19,4.17
			c-0.28,1.01-0.3,1.23-0.01,0.07c-0.39,1.73-0.81,3.31-1.19,4.71h0.18c0.39-1.39,0.81-2.95,1.21-4.64
			c-0.27,1.14-0.22,0.89,0.04-0.04c0.47-0.88,1.3-2.42,2.18-4.07c-0.27,0.51-0.4,0.77-0.34,0.68c0.02-0.04,0.08-0.15,0.18-0.32
			c0.04-0.08,0.09-0.17,0.15-0.28c0.04-0.1,0.16-0.12,0.3-0.22c1.1-0.67,2.97-1.8,4.96-3.01c-0.6,0.38-0.76,0.49-0.42,0.29
			c0.08-0.05,0.19-0.11,0.32-0.19c0.1-0.08,0.2-0.08,0.44-0.12c0.41-0.07,0.94-0.16,1.55-0.27c2.44-0.44,6.31-1.14,10.46-1.88
			c-0.4,0.19,1.67-0.55,5.13-1.81c0.34-0.13,0.71-0.26,1.08-0.4h-2.44C110.68,65.05,109.14,65.66,109.05,65.72z"/>
		<path class="st1" d="M50.49,16.22c-0.51,0.68-1.27,1.74-2.11,2.93h1.23c0.58-1.03,1.08-1.93,1.39-2.54
			c2.09-2.4,3.64-4.19,4.67-5.37c1.02-1.2,1.53-1.79,1.53-1.79s-0.55,0.55-1.67,1.66C54.41,12.23,52.74,13.93,50.49,16.22z"/>
		<path class="st1" d="M30.1,66.38c0.73-0.71,1.47-1.48,2.2-2.25h-1.31c-0.48,0.59-0.96,1.18-1.44,1.74c-2.74,3.1-5.03,5.7-5.03,5.7
			S27.06,69.2,30.1,66.38z"/>
		<path class="st1" d="M50.1,82.45c0.42,0.94,0.46,1.03,0.46,1.03S50.51,83.39,50.1,82.45c-0.14-0.32-0.32-0.75-0.56-1.3l0,0.03
			C49.77,81.71,49.96,82.14,50.1,82.45z"/>
		<path class="st1" d="M54.76,116.79c0.11,1.43,0.23,2.99,0.35,4.65c0.95,3.28,1.92,6.59,2.39,8.04c0.84,1.48,1.66,2.93,2.43,4.28
			c0.31,0.54,0.61,1.06,0.9,1.56h0.96c-0.96-1.84-2.11-4.02-3.28-6.25c-0.26-1.18-1.23-4.9-2.01-7.87c-0.15-2.56-0.3-4.94-0.41-6.84
			c0.02-0.03,0.03-0.06,0.05-0.09c0.45-0.77,0.91-1.54,1.36-2.32c0.6-1.03,1.19-2.05,1.77-3.05l-0.03-2.86
			c-0.94,1.65-1.95,3.43-2.97,5.23c-0.44,0.78-0.88,1.57-1.32,2.35c-0.12,0.24-0.24,0.48-0.37,0.72l-0.01,0c0,0,0,0.01,0,0.01
			c-0.28,0.55-0.56,1.1-0.84,1.64c-0.76,1.49-1.49,2.93-2.15,4.24c-1.24,0.52-2.47,1.04-3.39,1.42c-0.98,0.41-1.57,0.67-1.64,0.72
			c-2.93,2.76-5.72,5.39-7.66,7.22c-0.96,0.92-1.7,1.63-2.15,2.07c-0.23,0.22-0.36,0.38-0.41,0.4c-0.08,0.06-0.03,0.04,0.08-0.02
			c-1.76,1.2-3.38,2.31-4.79,3.28h0.67c1.32-0.87,2.8-1.85,4.41-2.91c-0.15,0.12-0.15,0.12-0.07,0.08c0.12-0.05,0.28-0.22,0.51-0.41
			c0.47-0.41,1.25-1.1,2.24-1.98c1.95-1.75,4.75-4.27,7.69-6.91c0.06-0.01,0.68-0.25,1.53-0.58c1.03-0.41,2.42-0.95,3.81-1.5
			C53.13,119.79,53.93,118.32,54.76,116.79z"/>
		<path class="st1" d="M12.94,77.19c0,0,2.34-2.42,5.56-5.74c1.56-1.71,3.34-3.65,5.15-5.63c0.5-0.56,0.99-1.13,1.49-1.7h-1.36
			c-0.29,0.36-0.57,0.72-0.86,1.08c-1.69,2.08-3.35,4.11-4.8,5.9C15.12,74.63,12.94,77.19,12.94,77.19z"/>
		<path class="st1" d="M52.62,57.8c-0.27,0.03-0.31,0.29-0.39,0.44c-0.12,0.28-0.2,0.46-0.24,0.55c-0.06,0.15,0.02-0.02,0.42-0.87
			c-1,2.23-1.91,4.27-2.73,6.09l0,0.12h-0.05c-0.22,0.48-0.43,0.96-0.63,1.41c-0.94,2.17-1.62,4-2.15,5.31
			c-0.13,0.33-0.25,0.63-0.36,0.9c-0.05,0.14-0.1,0.27-0.15,0.39c-0.02,0.06-0.06,0.13-0.06,0.19c0.02,0.06,0.03,0.12,0.05,0.18
			c0.12,0.42,0.21,0.71,0.25,0.85c0.08,0.27,0.01-0.03-0.27-1.04c0.52,1.82,0.9,3.33,1.18,4.17c0.72,1.69,1.27,2.97,1.7,3.94h0.01
			c-0.43-1-1-2.31-1.74-4.05c0.45,1.04,0.41,0.96,0.08,0.17c-0.27-0.8-0.67-2.39-1.19-4.23c0.28,0.97,0.37,1.3,0.3,1.02
			c-0.04-0.14-0.11-0.42-0.22-0.85c-0.01-0.05-0.03-0.1-0.04-0.15c0-0.05,0.04-0.1,0.05-0.16c0.05-0.12,0.1-0.24,0.15-0.37
			c0.11-0.27,0.23-0.56,0.37-0.89c0.56-1.31,1.25-3.12,2.21-5.28c0.98-2.14,2.13-4.66,3.42-7.49c-0.29,0.66-0.43,0.98-0.34,0.79
			c0.04-0.08,0.13-0.27,0.26-0.54c0.03-0.28,0.38-0.3,0.84-0.5c1.29-0.48,3.21-1.2,5.4-2.01l0-0.45c-2.24,0.86-4.21,1.62-5.52,2.13
			C53.02,57.64,52.81,57.72,52.62,57.8z"/>
	</g>
	<polygon class="st1" points="4.46,5.72 143.18,5.72 143.18,8.63 4.46,7.87 	"/>
	<polygon class="st8" points="21.68,36.68 49.95,34.39 49.94,35.53 21.68,39.02 	"/>
	<polygon class="st8" points="21.68,33.78 49.97,32.32 49.99,30.5 21.68,31.57 	"/>
	<polygon class="st8" points="21.68,27.32 22.13,29.7 50.01,28.5 50.02,27.1 	"/>
	<polygon class="st8" points="61.68,80.48 62.46,119.05 90.06,119.05 90.08,117.02 64.62,117.91 64.62,94.93 90.3,92.25 
		90.31,91.01 64.62,92.67 64.01,81.75 90.41,81.66 90.41,80.41 	"/>
	<polygon class="st8" points="23.41,161.95 48.78,164.44 48.8,161.53 23.41,160 	"/>
	<polygon class="st8" points="23.75,173.96 48.69,173.96 48.69,172.14 23.75,172.51 25.3,162.14 23.41,161.95 22.4,173.96 	"/>
	<polygon class="st8" points="104.88,203.37 128.79,201.63 128.69,209.78 104.88,211.12 	"/>
	<polygon class="st8" points="105.18,213.59 128.6,216.4 128.6,220.36 105.16,221.57 	"/>
	<polygon class="st8" points="104.95,198.39 128.83,198.78 128.94,194.32 104.95,192.02 	"/>
	<polygon class="st8" points="104.43,140.38 129.61,138.72 129.55,143.41 104.47,145.27 	"/>
	<path class="st9" d="M180.45,49.88c0.04-0.42,0.07-0.84,0.11-1.26c-9.51,0-19.01,0-28.52,0c0.04,0.42,0.07,0.84,0.11,1.26
		c0.64,0,1.27,0,1.91,0c0.4,4.77,0.8,9.54,1.2,14.32c-0.63,0-1.26,0-1.89,0c0.09,1.11,0.19,2.22,0.28,3.34c8.43,0,16.86,0,25.29,0
		c0.09-1.11,0.19-2.22,0.28-3.34c-0.58,0-1.16,0-1.74,0c0.4-4.77,0.8-9.54,1.2-14.32C179.28,49.88,179.86,49.88,180.45,49.88z
		 M166.95,49.88c1.57,0,3.14,0,4.71,0c-0.1,4.77-0.21,9.54-0.33,14.32c-1.53,0-3.05,0-4.58,0
		C166.81,59.43,166.88,54.65,166.95,49.88z M165.97,64.2c-1.53,0-3.06,0-4.59,0c-0.11-4.77-0.21-9.54-0.31-14.32
		c1.57,0,3.14,0,4.71,0C165.86,54.65,165.92,59.43,165.97,64.2z M155.21,49.88c1.57,0,3.14,0,4.71,0c0.23,4.77,0.47,9.54,0.69,14.32
		c-1.53,0-3.06,0-4.59,0C155.75,59.43,155.48,54.65,155.21,49.88z M176.7,64.2c-1.53,0-3.05,0-4.58,0c0.23-4.77,0.46-9.54,0.7-14.32
		c1.57,0,3.14,0,4.71,0C177.26,54.65,176.98,59.43,176.7,64.2z"/>
	<path class="st9" d="M180.45,104.78c0.04-0.42,0.07-0.84,0.11-1.26c-9.51,0-19.01,0-28.52,0c0.04,0.42,0.07,0.84,0.11,1.26
		c0.64,0,1.27,0,1.91,0c0.4,4.77,0.8,9.54,1.2,14.32c-0.63,0-1.26,0-1.89,0c0.09,1.11,0.19,2.22,0.28,3.34c8.43,0,16.86,0,25.29,0
		c0.09-1.11,0.19-2.22,0.28-3.34c-0.58,0-1.16,0-1.74,0c0.4-4.77,0.8-9.54,1.2-14.32C179.28,104.78,179.86,104.78,180.45,104.78z
		 M166.95,104.78c1.57,0,3.14,0,4.71,0c-0.1,4.77-0.21,9.54-0.33,14.32c-1.53,0-3.05,0-4.58,0
		C166.81,114.32,166.88,109.55,166.95,104.78z M165.97,119.09c-1.53,0-3.06,0-4.59,0c-0.11-4.77-0.21-9.54-0.31-14.32
		c1.57,0,3.14,0,4.71,0C165.86,109.55,165.92,114.32,165.97,119.09z M155.21,104.78c1.57,0,3.14,0,4.71,0
		c0.23,4.77,0.47,9.54,0.69,14.32c-1.53,0-3.06,0-4.59,0C155.75,114.32,155.48,109.55,155.21,104.78z M176.7,119.09
		c-1.53,0-3.05,0-4.58,0c0.23-4.77,0.46-9.54,0.7-14.32c1.57,0,3.14,0,4.71,0C177.26,109.55,176.98,114.32,176.7,119.09z"/>
	<path class="st9" d="M180.45,159.76c0.04-0.42,0.07-0.84,0.11-1.26c-9.51,0-19.01,0-28.52,0c0.04,0.42,0.07,0.84,0.11,1.26
		c0.64,0,1.27,0,1.91,0c0.4,4.77,0.8,9.54,1.2,14.32c-0.63,0-1.26,0-1.89,0c0.09,1.11,0.19,2.22,0.28,3.34c8.43,0,16.86,0,25.29,0
		c0.09-1.11,0.19-2.22,0.28-3.34c-0.58,0-1.16,0-1.74,0c0.4-4.77,0.8-9.54,1.2-14.32C179.28,159.76,179.86,159.76,180.45,159.76z
		 M166.95,159.76c1.57,0,3.14,0,4.71,0c-0.1,4.77-0.21,9.54-0.33,14.32c-1.53,0-3.05,0-4.58,0
		C166.81,169.3,166.88,164.53,166.95,159.76z M165.97,174.07c-1.53,0-3.06,0-4.59,0c-0.11-4.77-0.21-9.54-0.31-14.32
		c1.57,0,3.14,0,4.71,0C165.86,164.53,165.92,169.3,165.97,174.07z M155.21,159.76c1.57,0,3.14,0,4.71,0
		c0.23,4.77,0.47,9.54,0.69,14.32c-1.53,0-3.06,0-4.59,0C155.75,169.3,155.48,164.53,155.21,159.76z M176.7,174.07
		c-1.53,0-3.05,0-4.58,0c0.23-4.77,0.46-9.54,0.7-14.32c1.57,0,3.14,0,4.71,0C177.26,164.53,176.98,169.3,176.7,174.07z"/>
	<path class="st9" d="M174.95,67.53c-0.42,2.1-0.84,4.19-1.26,6.29c-2.87,0-5.73,0-8.6,0c0.39-2.1,0.78-4.19,1.17-6.29
		c-0.35,0-0.69,0-1.04,0c-3.1,17.27-6.2,34.53-9.31,51.8c0.24,0,0.48,0,0.71,0c0.48-2.6,0.97-5.2,1.45-7.8c2.69,0,5.38,0,8.06,0
		c-0.52,2.6-1.04,5.2-1.56,7.8c0.21,0,0.43,0,0.64,0c3.58-17.27,7.17-34.53,10.77-51.8C175.64,67.53,175.29,67.53,174.95,67.53z
		 M173.47,74.93c-0.41,2.07-0.83,4.14-1.24,6.21c-2.83,0-5.67,0-8.5,0c0.39-2.07,0.77-4.14,1.16-6.21
		C167.74,74.93,170.61,74.93,173.47,74.93z M161,95.79c0.39-2.07,0.77-4.14,1.16-6.22c2.79,0,5.59,0,8.38,0
		c-0.41,2.07-0.83,4.14-1.24,6.22C166.53,95.79,163.77,95.79,161,95.79z M169.07,96.89c-0.41,2.07-0.83,4.14-1.24,6.22
		c-2.73,0-5.46,0-8.19,0c0.39-2.07,0.77-4.14,1.16-6.22C163.56,96.89,166.31,96.89,169.07,96.89z M162.36,88.47
		c0.39-2.07,0.77-4.14,1.16-6.21c2.83,0,5.66,0,8.48,0c-0.41,2.07-0.83,4.14-1.24,6.21C167.96,88.47,165.16,88.47,162.36,88.47z
		 M158.28,110.43c0.38-2.07,0.77-4.14,1.15-6.21c2.72,0,5.45,0,8.17,0c-0.42,2.07-0.83,4.14-1.25,6.21
		C163.67,110.43,160.97,110.43,158.28,110.43z"/>
</g>
</svg>
