<?xml version="1.0" encoding="utf-8"?>
<!-- Generator: Adobe Illustrator 23.1.1, SVG Export Plug-In . SVG Version: 6.00 Build 0)  -->
<svg version="1.1" id="Layer_1" xmlns="http://www.w3.org/2000/svg" xmlns:xlink="http://www.w3.org/1999/xlink" x="0px" y="0px"
	 viewBox="0 0 176.91 90.82" style="enable-background:new 0 0 176.91 90.82;" xml:space="preserve">
<style type="text/css">
	.st0{fill:#874E5F;}
	.st1{fill:#BA773C;}
	.st2{fill:#D09665;}
	.st3{fill:#46384E;}
	.st4{fill:url(#SVGID_1_);}
	.st5{fill:url(#SVGID_2_);}
</style>
<g>
	<polygon class="st0" points="172.88,70.41 171.93,73.4 171.79,76.32 167.09,78.77 163.56,78.14 162.77,74.3 169.53,70.53 	"/>
	<polygon class="st1" points="167.96,85.19 159.42,86.11 152.67,86.88 156.53,86.03 162.87,84.56 175.1,80.73 174.5,82.67 
		174.19,83.49 	"/>
	<polygon class="st0" points="143.94,63.1 141.91,57.72 142.21,50.55 141.77,44.87 143.93,44.71 144.79,50.63 145.21,55 
		148.64,55.12 153.24,54.98 156.5,55.6 156.67,56.67 153.96,59.48 145.37,64.98 144.45,65.31 	"/>
	<polygon class="st0" points="143.44,38.08 143.93,44.71 141.77,44.87 141.32,39.01 	"/>
	<polygon class="st0" points="142.25,87.95 138.39,89.2 132.51,88.08 131.92,87.44 131.78,86.83 130.96,83.01 133.52,82.97 
		137.67,82.62 139.26,82.84 141.79,81.5 152.77,77.36 158.93,75.05 158.41,76.63 153.81,78.51 146.84,80.89 141.79,83.09 
		141.41,85.63 141.61,86.19 	"/>
	<polygon class="st2" points="129.5,87.37 130.89,88.79 123.83,88.58 	"/>
	<polygon class="st0" points="130.69,45.11 128.21,49.84 128.34,58.61 128.42,62.72 127.23,67.5 127.17,70.13 122.48,70.03 
		115.94,69.84 114.32,69.64 113.36,66.86 112.01,62.22 111.63,60.45 115.16,48.17 118.46,47.56 125.35,45.25 131.56,42.89 	"/>
	<polygon class="st1" points="115.56,28.18 109.52,25.51 107.96,24.61 112.07,25.44 118.04,27.81 122.1,30.71 	"/>
	<path class="st1" d="M128.84,86.5l2.27,0.12l0.68,0.21l0.13,0.6l0.59,0.64l5.88,1.13l3.85-1.25l-0.63-1.76l3.31-0.05l3.73,0.01
		l0.36,1.15l2.05,1.1l6.9-1.11l5.64-0.07l6.32-0.3l2.52-0.19l0.51,0.06l-0.11,0.28l-0.71,0.33l-12.73,1.18l-13.24,1.11l-7.81,1.14
		l-10.93-0.33l-4.84-0.18l-2.16-0.83l-1.42,0.05l-0.26-0.99l-1.9-2.27l-0.05-0.23l4.42,0.75L128.84,86.5z M129.5,87.37l-5.67,1.21
		l7.06,0.21L129.5,87.37z"/>
	<polygon class="st3" points="118.76,88.53 119.02,89.52 115.24,89.66 111.75,87.9 108.36,88.85 107.04,86.02 105.35,83.96 
		104.84,82.27 105.51,80.41 112.89,81.25 116.24,83.31 116.81,86.03 116.86,86.26 	"/>
	<polygon class="st0" points="112.8,69.56 111.27,70.1 105.8,67.82 100.39,63.44 99.54,61.53 102.47,51.6 112.71,49.02 
		111.71,53.45 110.27,59.9 112.49,69.64 	"/>
	<polygon class="st1" points="107.04,86.02 108.36,88.85 107.63,89.05 106.19,87.44 106.15,86.39 106.12,85.78 104.05,83.45 
		105.39,80.4 105.51,80.41 104.84,82.27 105.35,83.96 	"/>
	<polygon class="st0" points="97.67,47.99 99,48.36 94.74,59.67 93.52,63.31 94.41,65.07 93.8,66.06 93.91,66.78 95.02,72.56 
		96.21,79.7 96.82,81.96 91.94,83.2 89.5,82.31 84.34,82.6 82.54,82.44 81.74,78.8 80.55,73.94 79.77,69.72 80.49,67.95 80,66.49 
		80.1,64.89 79.62,63.44 81.41,59.07 84.04,53.23 88.04,46.06 89.76,45.83 	"/>
	<polygon class="st2" points="102.22,87.36 103.71,88 99.9,89.06 98.28,89.04 94.77,88.71 	"/>
	<polygon class="st2" points="88.11,88.89 78.61,88.76 77.07,87.85 85.68,86.8 89.75,88.79 	"/>
	<polygon class="st1" points="87.2,28.65 97.45,31.93 104.05,34.06 92.95,31.92 84.15,28.3 80.25,25.84 	"/>
	<path class="st2" d="M111.63,60.45l0.38,1.77l1.35,4.64l0.97,2.78l1.62,0.2l6.54,0.19l4.69,0.1l1.64,0.04l6.4-1.6l9.25-3.26
		l0.93-0.33l8.59-5.51l2.71-2.81l-0.16-1.06l-0.48-3.03l-1.32-1.45l-2.08-2.83l-1.2-1.58l0.37-1.81l-2.8-3.82l-2.83-4.22l-2.73,1.21
		l-2.12,0.94l-2.59,1.15l-7.17,2.73l-6.21,2.36l-6.88,2.31l-3.31,0.61L111.63,60.45z M112.71,49.02l-10.24,2.57l-2.93,9.94
		l0.85,1.91l5.41,4.38l5.47,2.28l1.53-0.54l-0.32,0.08l-2.22-9.74l1.44-6.44L112.71,49.02z M84.7,85.23l-1.71,0.22l-0.31-2.36
		l-0.14-0.64l1.8,0.15l5.16-0.29l2.44,0.89l4.88-1.24l-0.6-2.26l-1.2-7.14l-1.11-5.78l-0.11-0.73l0.6-0.98l-0.89-1.76l1.22-3.64
		L99,48.36l-1.33-0.36l0.69-2.52l5.21,1.36l2.1,0.62l2.38-0.76l5.49-2.06l16.86-6.7l2.94-1.24l3.18-0.76l5.87-1.55l2.3-2.76
		l0.4-1.41l1.51,0.43l1.65,4.7l1.46,3.39l2.13,2.94l2.22,2.52l0.55,1.63l1.4,2.2l4.01,4.75l0.94,5.15l3.2,2.09l7.39,3.68l5.35,4.92
		l-0.94,1.66l0.15,7.19l-1.02,3.27l-12.23,3.82l-6.34,1.47l-3.86,0.85l6.75-0.77l8.54-0.92l6.23-1.7l-1.23,3.31l-0.51-0.06
		l-2.52,0.19l-6.32,0.3l-5.64,0.07l-6.9,1.11l-2.05-1.1l-0.36-1.15l-3.73-0.01l-3.31,0.05l-0.2-0.56l0.37-2.53l5.05-2.21l6.97-2.37
		l4.6-1.88l0.53-1.58l-6.16,2.3l-10.99,4.14l-2.52,1.34l-1.6-0.22l-4.15,0.35l-2.55,0.04l0.82,3.82l-0.68-0.21l-2.27-0.12
		l-7.61,0.28l-4.42-0.75l-0.57-2.72l-3.35-2.07l-7.38-0.84l-0.11-0.01l-1.34,3.05l2.07,2.33l0.03,0.61l-0.76-0.13l-3.18-0.58
		l-5.59,1.08l-5.19-0.33L84.7,85.23z M171.93,73.4l0.96-2.99l-3.36,0.12l-6.76,3.77l0.79,3.84l3.53,0.63l4.7-2.45L171.93,73.4z"/>
	<polygon class="st1" points="79.56,69.71 79.77,69.72 80.55,73.94 81.74,78.8 82.54,82.44 81.36,82.34 80.01,75.66 79.54,70.05 	
		"/>
	<polygon class="st1" points="81.41,59.07 79.62,63.44 80.1,64.89 80,66.49 80.49,67.95 79.77,69.72 79.56,69.71 79.71,67.35 
		78.68,63.54 81.16,57.18 86.84,46.22 88.04,46.06 84.04,53.23 	"/>
	<polygon class="st1" points="63.54,8.56 78.39,14.36 84.55,17.55 88.25,19.93 92.24,21.47 100.61,24.73 103.58,26.55 95.78,24.03 
		85.41,19.18 73.13,13.51 65.23,9.72 	"/>
	<polygon class="st1" points="78.46,31.21 83.44,35.67 97.01,42.23 103.26,44.76 105.64,45.37 108.12,44.37 113.61,42.45 
		121.95,38.95 130.26,36.51 140.66,33.29 144.69,31.61 142.39,34.38 136.52,35.92 133.33,36.69 130.4,37.93 113.54,44.64 
		108.05,46.69 105.67,47.45 103.57,46.83 98.36,45.47 85.34,38.66 82.96,36.23 78.07,32.71 63.77,27.21 63.98,26.67 71.62,28.05 	
		"/>
	<polygon class="st1" points="58.01,0.5 63.6,4.36 58.96,1.94 54.96,0.03 55.21,0 57.21,0.04 	"/>
	<polygon class="st2" points="50.42,84.92 57.16,85.97 50.36,85.77 46.45,86.4 44.11,84.43 46.7,84.8 	"/>
	<polygon class="st1" points="52.74,31.12 41.56,27.57 49.98,29.15 62.66,34.94 74.79,39.53 79.94,41.95 79.39,43.56 74.6,55.35 
		70.48,65.57 70.38,66.47 67.62,66.85 48.41,61.53 48.46,61.37 57.65,63.34 64.28,65.24 69.35,63.69 76.82,43.33 72.03,41.19 
		62.66,36.31 	"/>
	<polygon class="st1" points="52.74,4.47 45.14,1.83 43.93,1.45 46.59,1.12 50.1,2.71 54.7,5.14 58.28,6.77 	"/>
	<path class="st1" d="M44.97,82.23l5.28,1.08l5.72,0.5l4.15,1.48l3.25-0.02l15.12,0.75l4.5-0.57l1.71-0.22l6.72,1.2l5.19,0.33
		l5.59-1.08l3.18,0.58l0.76,0.13l0.04,1.04l1.44,1.62l-0.39,0.11l-7.34-0.11l3.82-1.06l-1.49-0.64l-7.45,1.35l3.51,0.33l-10.17-0.15
		l1.64-0.1l-4.07-1.99l-8.61,1.04l1.54,0.91l-6.57-0.1l-13.43-0.29l-10.72,0.33l-3.04,0.32l-0.41-0.61l-1.3-0.69l-1.87-0.19
		l0.45-2.03l-0.84-2.72L44.97,82.23z M46.45,86.4l3.91-0.63l6.8,0.2l-6.74-1.05L46.7,84.8l-2.59-0.36L46.45,86.4z"/>
	<polygon class="st3" points="40.87,82.79 41.71,85.5 41.26,87.53 29.93,86.39 18.09,85.74 18.23,85.31 16.82,84.89 15.8,81.36 
		17.17,76.26 19.82,72.6 21.22,65.76 24.75,61.93 27.97,61.41 29.55,61.77 32.71,65.36 35.92,68.76 38.49,72.56 39.08,77.14 
		40.53,81.7 	"/>
	<polygon class="st1" points="44.77,8.31 57.95,11.89 70.31,16.57 51.51,11.75 36.14,6.56 29.87,4.68 32.29,4.05 35.84,5.42 	"/>
	<polygon class="st1" points="34.96,26.22 28.5,24.51 24.94,23.13 24.2,22.27 	"/>
	<polygon class="st1" points="27.14,15.68 25.31,14.73 26.77,14.18 36.04,17.54 46.2,19.14 58.37,24.5 63.98,26.67 63.77,27.21 
		63.06,26.95 43.51,21.32 33.23,18.01 	"/>
	<polygon class="st1" points="14.02,81.99 15.11,79.22 16.6,75.45 17.75,72.92 18.7,70.89 22.16,61.95 24.52,60.62 27.97,61.41 
		24.75,61.93 21.22,65.76 19.82,72.6 17.17,76.26 15.8,81.36 16.82,84.89 16.77,84.87 15.55,84.98 	"/>
	<polygon class="st1" points="12.61,31.96 16.01,22.74 18.88,19.45 22.71,20.52 24.2,22.27 22.56,21.67 18.66,21.37 18,21.34 
		17.27,22.62 15.19,27.13 12.21,37.5 10.21,45.11 22.12,51.96 36.06,56.73 48.46,61.37 48.41,61.53 44.38,60.41 34.27,57.39 
		22.68,53.79 16.6,50.62 11.97,48.97 8.29,46.96 8.89,43.6 9.5,42.54 11.61,36.66 	"/>
	<polygon class="st2" points="15.11,79.22 14.02,81.99 15.55,84.98 11.89,85.28 6.93,78.12 6.88,78.05 7.86,77.37 10.18,77.83 
		13.47,78.57 	"/>
	<polygon class="st1" points="5.03,49.86 4.83,55.14 6.52,61.11 4.42,57.66 3.22,54.71 2.67,51.79 2.5,51.31 3.59,48.82 4.13,45.69 
			"/>
	<path class="st2" d="M24.94,23.13l3.56,1.38l6.46,1.71L24.2,22.27l-1.49-1.75l-3.83-1.07l-2.87,3.29l-3.39,9.22l-1,4.7L9.5,42.54
		l-0.6,1.06l-0.6,3.36l3.68,2.01l4.63,1.65l6.08,3.17l11.59,3.6l10.11,3.02l4.04,1.12l19.21,5.32l2.75-0.38l0.11-0.9l4.12-10.21
		l4.79-11.8l0.55-1.61l-5.15-2.42l-12.12-4.59l-12.68-5.79l-8.42-1.58l11.18,3.55l9.93,5.19l9.37,4.89l4.79,2.13l-7.47,20.37
		l-5.08,1.55l-6.63-1.9l-9.19-1.97l-12.4-4.64l-13.94-4.77l-11.9-6.85l2-7.61l2.98-10.37l2.07-4.5L18,21.34l0.66,0.03l3.9,0.3
		l1.64,0.6L24.94,23.13z M4.42,57.66l2.1,3.45l-1.69-5.97l0.2-5.29l-0.9-4.17l1.21-6.97l3.94-12.16l3.22-9.09l2.31-5.41l4-2.95
		l7.07-3.4l3.99-1.02l6.26,1.88l15.38,5.19l18.8,4.82l-12.36-4.69L44.77,8.31l-8.93-2.89l-3.55-1.37l8.57-2.2l3.07-0.4l1.21,0.37
		l7.6,2.64l5.54,2.3L54.7,5.14L50.1,2.71l-3.51-1.59l8.38-1.09l4,1.91l4.64,2.42L58.01,0.5l-0.8-0.46L63,0.16l2.78,0.74l7.83,2.38
		l16.57,6.97l14.77,7.16l29.82,11.04l3.82,1.17l2.1-0.68l4.4,1.26l-0.4,1.41l-4.04,1.67l-10.39,3.22l-8.31,2.44l-8.35,3.5
		l-5.49,1.92l-2.48,1l-2.38-0.61l-6.25-2.53l-13.57-6.56l-4.98-4.46l-6.84-3.17l-7.64-1.38l-5.61-2.17L46.2,19.14l-10.16-1.61
		l-9.27-3.36l-1.46,0.55l1.83,0.96l6.09,2.33l10.28,3.31l19.55,5.62l0.71,0.27l14.3,5.5l4.9,3.52l2.38,2.43l13.01,6.81l-0.69,2.52
		l-7.91-2.16l-1.72,0.23l-1.2,0.16l-5.68,10.96l-2.49,6.36l1.03,3.81l-0.15,2.36l-0.02,0.34l0.47,5.6l1.36,6.68l1.18,0.11l0.14,0.64
		l0.31,2.36l-4.5,0.57l-15.12-0.75l-3.25,0.02l-4.15-1.48l-5.72-0.5l-5.28-1.08l-4.1,0.55l-0.33-1.09l-1.45-4.56l-0.59-4.58
		l-2.57-3.8l-3.2-3.4l-3.17-3.59l-1.58-0.36l-3.45-0.78l-2.36,1.33l-3.45,8.94l-0.96,2.03l-1.15,2.53l-1.49,3.77l-1.64-0.65
		l-2.55-2.99l-2.29-1.31l-4.37-7.48l-1.89-6.42l-0.51-1.79l-0.07-0.2l-0.12-5.19l0.83-1.88l0.17,0.48l0.55,2.93L4.42,57.66z
		 M115.56,28.18l6.54,2.53l-4.05-2.91l-5.98-2.36l-4.11-0.83l1.57,0.9L115.56,28.18z M92.95,31.92l11.09,2.14l-6.6-2.13L87.2,28.65
		l-6.95-2.81l3.9,2.47L92.95,31.92z M95.78,24.03l7.79,2.52l-2.96-1.83l-8.38-3.26l-3.99-1.54l-3.7-2.38l-6.16-3.18l-14.85-5.8
		l1.69,1.17l7.9,3.79l12.28,5.67L95.78,24.03z"/>
	<polygon class="st2" points="7.49,75.71 7.86,77.37 6.88,78.05 1.19,69.85 0,65.97 1.07,61.3 1.39,60.28 2.42,62.76 4.1,69.02 
		5.97,72.82 	"/>
	<polygon class="st1" points="10.92,75.58 13.47,78.57 10.18,77.83 7.86,77.37 7.49,75.71 5.97,72.82 4.1,69.02 2.42,62.76 
		1.39,60.28 1.8,58.92 1.79,58.39 1.86,58.59 2.36,60.38 4.26,66.79 8.63,74.27 	"/>
	<linearGradient id="SVGID_1_" gradientUnits="userSpaceOnUse" x1="76.8026" y1="-20.3236" x2="86.568" y2="61.2185">
		<stop  offset="0" style="stop-color:#BFBF95"/>
		<stop  offset="0.3082" style="stop-color:#777662"/>
		<stop  offset="0.7869" style="stop-color:#282824"/>
		<stop  offset="1" style="stop-color:#010101"/>
	</linearGradient>
	<path class="st4" d="M145.1,30.21l-4.4-1.26l-2.1,0.68l-3.82-1.17l-29.82-11.04l-14.77-7.16L73.61,3.28L65.78,0.9L63,0.16
		l-5.79-0.12l0.8,0.46l5.58,3.86l-4.64-2.42l-4-1.91l-8.38,1.09l3.51,1.59l4.61,2.44l3.58,1.63l-5.54-2.3l-7.6-2.64l-1.21-0.37
		l-3.07,0.4l-8.57,2.2l3.55,1.37l8.93,2.89l13.18,3.58l12.36,4.69l-18.8-4.82L36.14,6.56l-6.26-1.88L25.88,5.7l-7.07,3.4l-0.67,0.5
		l6.43,3.17l10.75,2.08l4.51,1.93L44.64,18l10.33,4.11l10.48,3.39l4.04,0.7l6.12,1.09l9.7,6.37l4.78,3.66l5.39,2.06l7.06,2.96
		l5.16,0.69l4.49-1.94l8.01-2.68l10.68-3.69l9.04-2.27l5.04-1.86L145.1,30.21z M73.13,13.51l-7.9-3.79l-1.69-1.17l14.85,5.8
		l6.16,3.18l3.7,2.38l3.99,1.54l8.38,3.26l2.96,1.83l-7.79-2.52l-10.37-4.85L73.13,13.51z M92.95,31.92l-8.81-3.61l-3.9-2.47
		l6.95,2.81l10.25,3.28l6.6,2.13L92.95,31.92z M115.56,28.18l-6.03-2.67l-1.57-0.9l4.11,0.83l5.98,2.36l4.05,2.91L115.56,28.18z"/>
	<linearGradient id="SVGID_2_" gradientUnits="userSpaceOnUse" x1="146.1306" y1="42.4713" x2="147.5954" y2="88.9796">
		<stop  offset="0" style="stop-color:#BFBF95"/>
		<stop  offset="0.3082" style="stop-color:#777662"/>
		<stop  offset="0.7869" style="stop-color:#282824"/>
		<stop  offset="1" style="stop-color:#010101"/>
	</linearGradient>
	<polygon class="st5" points="171.56,63.69 164.17,60.01 160.98,57.93 142.3,68.08 133.57,71.1 126.76,73.72 120.49,75.52 
		117.24,76.4 118.24,77.08 122.42,80.5 127.62,82.18 129.26,83.02 130.24,82.89 133.72,82.39 138.62,81.84 142.5,80.2 148.21,77.07 
		159.56,73.31 166.46,70.79 170.33,68.69 176.85,68.71 176.91,68.61 	"/>
</g>
</svg>
