<?xml version="1.0" encoding="utf-8"?>
<!-- Generator: Adobe Illustrator 23.1.1, SVG Export Plug-In . SVG Version: 6.00 Build 0)  -->
<svg version="1.1" id="Layer_1" xmlns="http://www.w3.org/2000/svg" xmlns:xlink="http://www.w3.org/1999/xlink" x="0px" y="0px"
	 viewBox="0 0 202.64 40.26" style="enable-background:new 0 0 202.64 40.26;" xml:space="preserve">
<style type="text/css">
	.st0{fill:#46384E;}
	.st1{fill:#874E5F;}
	.st2{fill:#E6B48A;}
	.st3{fill:#D09665;}
	.st4{fill:url(#SVGID_1_);}
	.st5{fill:url(#SVGID_2_);}
	.st6{fill:url(#SVGID_3_);}
</style>
<g>
	<polygon class="st0" points="74.83,29.49 78.01,38.06 87.82,38.94 100.99,36.83 103.8,28.36 89.31,24.01 	"/>
	<polygon class="st0" points="182.93,25.74 180.13,34.44 170.37,35.75 157.12,34.23 153.94,25.89 168.22,20.9 	"/>
	<polygon class="st1" points="8.39,25.74 7.08,29.3 4.51,30.46 2.73,26.05 4.93,23.54 	"/>
	<polygon class="st1" points="67.09,25.16 67.51,27.89 66.04,31.3 63.4,30.82 62.27,27 64.52,24.01 	"/>
	<polygon class="st0" points="62.27,25.33 61.64,26.29 59.96,32.71 18.56,31.67 20.52,28.73 43.79,27.65 45.05,25.66 58.03,24.01 	
		"/>
	<polygon class="st1" points="103.16,21.7 64.16,22.44 62.27,25.33 58.03,24.01 45.05,25.66 43.79,27.65 20.52,28.73 18.56,31.67 
		9.75,31.45 9.59,26.29 8.39,22.44 20.76,20.34 47.96,19.87 60.17,20.81 62.29,20.76 81.87,20.34 	"/>
	<polygon class="st1" points="167.74,4.35 168.58,5.57 162.92,6.86 162.75,5.85 	"/>
	<polygon class="st1" points="151.8,9.39 138.41,10.21 138.3,9.15 139.09,7.58 150.17,7.89 161.26,5.85 161.28,6.02 161.42,7.2 	"/>
	<polygon class="st1" points="172.4,14.35 172.74,15.6 164.8,17.8 164.36,15.21 	"/>
	<polygon class="st1" points="162.37,15.43 162.75,18.66 153.16,21.62 139.56,21.62 139.07,16.73 153.71,16.36 	"/>
	<polygon class="st1" points="97.23,17.3 104.93,17.8 103.86,20.39 82.48,18.74 62.27,19.61 62.27,17.3 83.45,16.57 94.77,17.3 
		97.23,7.66 93.93,6.4 88.27,6.4 68.57,4.35 69.11,3.57 89,5.06 98.2,4.75 105.67,6.32 105.67,7.97 98.99,7.66 	"/>
	<path class="st1" d="M120.71,9.39l3.28,8.12l10.14-0.21l-1.52-4.3l-3.82-3.19L120.71,9.39z M137.03,9.23l0.5,7.53v0.01l0.53,8.08
		l3.78,2.8l-3.67,7.79L125,35.75l-16.18,0.37l2.67-8.47l-5.35-5.63l1.1-3.7l2.52,0.66l12.03-1.18l-2.6-8.49l-11-1.02l0.05-1.16
		h19.29l9.49,1.99L137.03,9.23z"/>
	<polygon class="st2" points="64.08,34.62 64.08,36.12 4.48,34.31 8.39,33.21 	"/>
	<polygon class="st2" points="90.03,28.26 77.33,31.45 78.07,35.33 75.68,30.51 90.06,26.6 101.98,29.43 98.91,36.83 100.32,30.38 	
		"/>
	<polygon class="st2" points="168.02,22.91 184.06,27.71 179.81,31.71 181.86,28.37 168.33,25.03 155.83,27.39 156.93,31.71 
		153.71,26.29 	"/>
	<polygon class="st3" points="138.3,9.15 137.03,9.23 137.02,9.12 127.53,7.13 108.24,7.13 108.19,8.29 107.87,16.08 105.67,15.99 
		105.67,7.97 105.67,6.32 98.2,4.75 89,5.06 69.11,3.57 68.57,4.35 68.56,4.35 62.27,13.4 62.27,17.3 62.27,19.61 62.29,20.76 
		60.17,20.81 47.96,19.87 20.76,20.34 20.74,19.6 47.91,18.77 59.96,19.61 60.7,12.9 68.04,2.62 67.09,0 107.03,1.58 125.05,0.74 
		140.48,1.79 171.19,0.74 170.14,3.36 173.08,7.96 174.54,13.82 172.4,14.35 170.93,8.99 168.58,5.57 167.74,4.35 162.75,5.85 
		161.28,6.02 161.26,5.85 150.17,7.89 139.09,7.58 	"/>
	<path class="st3" d="M7.08,29.3l1.31-3.56l-3.46-2.2l-2.2,2.51l1.78,4.41L7.08,29.3z M64.08,34.62L8.39,33.21l-3.91,1.1l59.6,1.81
		V34.62z M67.09,25.16l-2.57-1.15L62.27,27l1.13,3.82l2.64,0.48l1.47-3.41L67.09,25.16z M100.32,30.38l-1.41,6.45l3.07-7.4
		L90.06,26.6l-14.38,3.91l2.39,4.82l-0.74-3.88l12.7-3.19L100.32,30.38z M107.87,16.2l-0.63,2.12l-1.1,3.7l5.35,5.63l-2.67,8.47
		L125,35.75l0.05,2.31l-28.08,1.15l0.26-1.25l1.31-6.4l-8.49-1.57l-11.43,2.3l2.41,5.67l0.53,1.25L62.9,40.26l-12.06-1.05
		L39.1,39.32l-25.26-1.08L0.87,39.21L0,33.76l3.77-1.26l-2.09-7.23l2.62-3.15l16.04-2.51l0.4-0.01l0.02,0.74l-12.37,2.1l1.2,3.85
		l0.16,5.16l8.81,0.22l41.4,1.04l1.68-6.42l0.63-0.96l1.89-2.89l39-0.74l-21.29-1.36l-19.58,0.42l-0.02-1.15l20.21-0.87l21.38,1.65
		l1.07-2.59l0.74-1.81l2.2,0.09V16.2z"/>
	<path class="st3" d="M178.79,31.71l1.42-2.67l-11.4-2.75l-11.33,1.81l0.71,2.04l0.74,5.72l-1.05,1.36l-4.62-0.32l-4.29,1.05
		l-23.92,0.11L125,35.75l13.17-0.31l3.67-7.79l-3.78-2.8l-0.53-8.08v-0.01l-0.5-7.53l1.27-0.08l0.11,1.06l0.66,6.52l0.49,4.89h13.6
		l9.59-2.96l-0.38-3.23l-0.95-8.23l-0.14-1.18l1.47-0.17l0.17,1.01l1.43,8.35h0.01l0.44,2.59l7.94-2.2l-0.34-1.25l2.14-0.53
		l0.42,1.7l3.36-0.53l0.21,1.58l24.11-0.95l-2.73,8.08l0.84,1.78l-2.15,3.46l2.15,1.67l-4.61,6.71l-14.26-0.94l-2.93,1.15
		l-1.15-1.88L178.79,31.71z M168.33,25.03l13.53,3.34l-2.05,3.34l4.25-4l-16.04-4.8l-14.31,3.38l3.22,5.42l-1.1-4.32L168.33,25.03z"
		/>
	<linearGradient id="SVGID_1_" gradientUnits="userSpaceOnUse" x1="39.558" y1="-11.3167" x2="199.0045" y2="13.1939">
		<stop  offset="0" style="stop-color:#BFBF95"/>
		<stop  offset="0.3082" style="stop-color:#777662"/>
		<stop  offset="0.7869" style="stop-color:#282824"/>
		<stop  offset="1" style="stop-color:#010101"/>
	</linearGradient>
	<polygon class="st4" points="67.51,1.16 88,2.73 100.26,2.73 107.92,5.02 125.7,3.57 140.17,5.02 149.86,5.02 163.41,3.09 
		170.72,1.91 171.19,0.74 140.48,1.79 125.05,0.74 107.03,1.58 67.09,0 	"/>
	<linearGradient id="SVGID_2_" gradientUnits="userSpaceOnUse" x1="59.8173" y1="21.7686" x2="111.9022" y2="25.5984">
		<stop  offset="0" style="stop-color:#BFBF95"/>
		<stop  offset="0.3082" style="stop-color:#777662"/>
		<stop  offset="0.7869" style="stop-color:#282824"/>
		<stop  offset="1" style="stop-color:#010101"/>
	</linearGradient>
	<polygon class="st5" points="64.16,22.44 69.96,25.77 91.49,24.1 111.49,27.65 106.14,22.02 103.16,21.7 	"/>
	<linearGradient id="SVGID_3_" gradientUnits="userSpaceOnUse" x1="196.657" y1="1.287" x2="173.423" y2="29.7125">
		<stop  offset="0" style="stop-color:#BFBF95"/>
		<stop  offset="0.3082" style="stop-color:#777662"/>
		<stop  offset="0.7869" style="stop-color:#282824"/>
		<stop  offset="1" style="stop-color:#010101"/>
	</linearGradient>
	<polygon class="st6" points="178.53,16.57 178.32,14.99 174.96,15.52 160.51,20.81 172.34,19.15 178.81,20.39 194.81,19.87 
		200.89,20.81 202.64,15.62 	"/>
</g>
</svg>
