<?xml version="1.0" encoding="utf-8"?>
<!-- Generator: Adobe Illustrator 24.0.1, SVG Export Plug-In . SVG Version: 6.00 Build 0)  -->
<svg version="1.1" xmlns="http://www.w3.org/2000/svg" xmlns:xlink="http://www.w3.org/1999/xlink" x="0px" y="0px"
	 viewBox="0 0 53.66 87.47" style="enable-background:new 0 0 53.66 87.47;" xml:space="preserve">
<style type="text/css">
	.st0{fill:#894A2F;}
	.st1{fill:#5C3120;}
	.st2{fill:#6B311A;}
	.st3{fill:#B7623F;}
	.st4{fill:#35190D;}
	.st5{fill:#502514;}
	.st6{fill:#C2C2C2;}
	.st7{fill:#E7E7E7;}
	.st8{fill:#ADADAD;}
</style>
<g id="Background_Color">
</g>
<g id="_x32_D_Desktop">
	<g>
		<g>
			<rect y="16.15" class="st0" width="53.66" height="71.32"/>
			<rect y="81.5" class="st1" width="53.66" height="2.97"/>
			<rect y="75.56" class="st1" width="53.66" height="2.97"/>
			<rect y="69.62" class="st1" width="53.66" height="2.97"/>
			<rect y="63.68" class="st1" width="53.66" height="2.97"/>
			<rect y="57.74" class="st1" width="53.66" height="2.97"/>
			<rect y="51.8" class="st1" width="53.66" height="2.97"/>
			<rect y="45.85" class="st1" width="53.66" height="2.97"/>
			<rect y="39.91" class="st1" width="53.66" height="2.97"/>
			<rect y="33.97" class="st1" width="53.66" height="2.97"/>
			<rect y="28.03" class="st1" width="53.66" height="2.97"/>
			<rect y="22.09" class="st1" width="53.66" height="2.97"/>
			<rect y="16.15" class="st1" width="53.66" height="2.97"/>
		</g>
		<rect x="3.59" y="7.34" class="st2" width="46.48" height="80.12"/>
		<g>
			<rect x="15.17" y="16.15" class="st3" width="23.31" height="71.32"/>
			<rect x="15.17" y="81.5" class="st0" width="23.31" height="5.96"/>
			<rect x="15.17" y="75.56" class="st0" width="23.31" height="2.97"/>
			<rect x="15.17" y="69.62" class="st0" width="23.31" height="2.97"/>
			<rect x="15.17" y="63.68" class="st0" width="23.31" height="2.97"/>
			<rect x="15.17" y="57.74" class="st0" width="23.31" height="2.97"/>
			<rect x="15.17" y="51.8" class="st0" width="23.31" height="2.97"/>
			<rect x="15.17" y="45.85" class="st0" width="23.31" height="2.97"/>
			<rect x="15.17" y="39.91" class="st0" width="23.31" height="2.97"/>
			<rect x="15.17" y="33.97" class="st0" width="23.31" height="2.97"/>
			<rect x="15.17" y="28.03" class="st0" width="23.31" height="2.97"/>
			<rect x="15.17" y="22.09" class="st0" width="23.31" height="2.97"/>
			<rect x="15.17" y="16.15" class="st0" width="23.31" height="2.97"/>
		</g>
		<g>
			<rect x="24.58" y="83.12" class="st4" width="4.5" height="4.34"/>
			<rect x="26.53" y="83.12" class="st3" width="0.59" height="4.34"/>
		</g>
		<g>
			<polygon class="st5" points="38.48,16.15 38.48,87.47 50.07,87.47 50.07,27.73 			"/>
		</g>
		<g>
			<rect x="9.89" y="3.49" class="st6" width="9.14" height="3.85"/>
			<rect x="11.65" y="3.49" class="st7" width="5.62" height="3.85"/>
			<rect x="12.71" class="st8" width="3.49" height="3.49"/>
		</g>
		<g>
			<rect x="22.26" y="3.49" class="st6" width="9.14" height="3.85"/>
			<rect x="24.02" y="3.49" class="st7" width="5.62" height="3.85"/>
			<rect x="25.08" class="st8" width="3.49" height="3.49"/>
		</g>
		<g>
			<rect x="34.63" y="3.49" class="st6" width="9.14" height="3.85"/>
			<rect x="36.39" y="3.49" class="st7" width="5.62" height="3.85"/>
			<rect x="37.45" class="st8" width="3.49" height="3.49"/>
		</g>
	</g>
</g>
</svg>
