<?xml version="1.0" encoding="utf-8"?>
<!-- Generator: Adobe Illustrator 24.0.1, SVG Export Plug-In . SVG Version: 6.00 Build 0)  -->
<svg version="1.1" xmlns="http://www.w3.org/2000/svg" xmlns:xlink="http://www.w3.org/1999/xlink" x="0px" y="0px"
	 viewBox="0 0 108.77 119.02" style="enable-background:new 0 0 108.77 119.02;" xml:space="preserve">
<style type="text/css">
	.st0{fill:#4E673E;}
	.st1{fill:#9CCE7C;}
	.st2{fill:#759B5D;}
	.st3{fill:#E3E3E3;}
	.st4{fill:#54A5D5;}
	.st5{fill:#CCCCCC;}
	.st6{fill:#AAAAAA;}
	.st7{fill:#3F7CA0;}
	.st8{fill:#9D9D9D;}
	.st9{fill:#808080;}
	.st10{fill:#3A3A3A;}
	.st11{fill:#616161;}
</style>
<g id="Background_Color">
</g>
<g id="_x32_D_Desktop">
	<g>
		<g>
			<rect x="2.64" y="102.17" class="st0" width="1.59" height="3.46"/>
			<g>
				<rect x="3.44" y="102.17" class="st1" width="0.8" height="3.46"/>
				<rect x="4.23" y="102.17" class="st2" width="0.8" height="3.46"/>
			</g>
		</g>
		<g>
			<rect x="7.42" y="102.17" class="st0" width="1.59" height="3.46"/>
			<g>
				<rect x="8.21" y="102.17" class="st1" width="0.8" height="3.46"/>
				<rect x="9.01" y="102.17" class="st2" width="0.8" height="3.46"/>
			</g>
		</g>
		<g>
			<rect x="16.97" y="102.17" class="st0" width="1.59" height="3.46"/>
			<g>
				<rect x="17.77" y="102.17" class="st1" width="0.8" height="3.46"/>
				<rect x="18.57" y="102.17" class="st2" width="0.8" height="3.46"/>
			</g>
		</g>
		<g>
			<rect x="21.75" y="102.17" class="st0" width="1.59" height="3.46"/>
			<g>
				<rect x="22.55" y="102.17" class="st1" width="0.8" height="3.46"/>
				<rect x="23.34" y="102.17" class="st2" width="0.8" height="3.46"/>
			</g>
		</g>
		<g>
			<rect x="29.84" y="43.5" class="st3" width="18.44" height="63.9"/>
			<rect x="31.19" y="47.1" class="st4" width="1.21" height="56.71"/>
			<rect x="33.61" y="47.1" class="st4" width="1.21" height="56.71"/>
			<rect x="36.03" y="47.1" class="st4" width="1.21" height="56.71"/>
			<rect x="38.44" y="47.1" class="st4" width="1.21" height="56.71"/>
			<rect x="40.86" y="47.1" class="st4" width="1.21" height="56.71"/>
			<rect x="43.27" y="47.1" class="st4" width="1.21" height="56.71"/>
			<rect x="45.69" y="47.1" class="st4" width="1.21" height="56.71"/>
			<rect x="29.84" y="67.83" class="st3" width="18.44" height="1.84"/>
		</g>
		<g>
			<rect x="52" y="7.22" class="st3" width="11.01" height="11.84"/>
			<rect x="53.35" y="8.8" class="st4" width="1.21" height="8.69"/>
			<rect x="55.77" y="8.8" class="st4" width="1.21" height="8.69"/>
			<rect x="58.19" y="8.8" class="st4" width="1.21" height="8.69"/>
			<rect x="60.6" y="8.8" class="st4" width="1.21" height="8.69"/>
		</g>
		<g>
			<rect x="66.73" y="43.5" class="st3" width="18.44" height="63.9"/>
			<rect x="68.08" y="47.1" class="st4" width="1.21" height="56.71"/>
			<rect x="70.5" y="47.1" class="st4" width="1.21" height="56.71"/>
			<rect x="72.91" y="47.1" class="st4" width="1.21" height="56.71"/>
			<rect x="75.33" y="47.1" class="st4" width="1.21" height="56.71"/>
			<rect x="77.74" y="47.1" class="st4" width="1.21" height="56.71"/>
			<rect x="80.16" y="47.1" class="st4" width="1.21" height="56.71"/>
			<rect x="82.58" y="47.1" class="st4" width="1.21" height="56.71"/>
			<rect x="66.73" y="67.83" class="st3" width="18.44" height="1.84"/>
		</g>
		<g>
			<polygon class="st5" points="49.64,22.65 50.85,22.65 50.85,46.06 52.05,47.27 52.05,22.65 53.26,22.65 53.26,48.48 54.47,49.68 
				54.47,22.65 55.68,22.65 55.68,50.89 56.89,52.1 56.89,22.65 58.09,22.65 58.09,53.31 59.3,54.52 59.3,22.65 60.51,22.65 
				60.51,55.72 61.72,56.93 61.72,22.65 62.92,22.65 62.92,58.14 64.13,59.35 64.13,22.65 65.34,22.65 65.34,60.56 66.73,61.95 
				66.73,19.05 48.29,19.05 48.29,43.5 49.64,44.85 			"/>
			<polygon class="st6" points="65.34,60.56 65.34,103.8 64.13,103.8 64.13,59.35 62.92,58.14 62.92,103.8 61.72,103.8 61.72,56.93 
				60.51,55.72 60.51,103.8 59.3,103.8 59.3,54.52 58.09,53.31 58.09,103.8 56.89,103.8 56.89,52.1 55.68,50.89 55.68,103.8 
				54.47,103.8 54.47,49.68 53.26,48.48 53.26,103.8 52.05,103.8 52.05,47.27 50.85,46.06 50.85,103.8 49.64,103.8 49.64,44.85 
				48.29,43.5 48.29,107.4 66.73,107.4 66.73,61.95 			"/>
			<polygon class="st7" points="49.64,103.8 50.85,103.8 50.85,46.06 49.64,44.85 			"/>
			<polygon class="st4" points="49.64,22.65 49.64,44.85 50.85,46.06 50.85,22.65 			"/>
			<polygon class="st7" points="52.05,103.8 53.26,103.8 53.26,48.48 52.05,47.27 			"/>
			<polygon class="st4" points="52.05,22.65 52.05,47.27 53.26,48.48 53.26,22.65 			"/>
			<polygon class="st7" points="54.47,103.8 55.68,103.8 55.68,50.89 54.47,49.68 			"/>
			<polygon class="st4" points="54.47,22.65 54.47,49.68 55.68,50.89 55.68,22.65 			"/>
			<polygon class="st7" points="56.89,103.8 58.09,103.8 58.09,53.31 56.89,52.1 			"/>
			<polygon class="st4" points="56.89,22.65 56.89,52.1 58.09,53.31 58.09,22.65 			"/>
			<polygon class="st4" points="59.3,22.65 59.3,54.52 60.51,55.72 60.51,22.65 			"/>
			<polygon class="st7" points="59.3,103.8 60.51,103.8 60.51,55.72 59.3,54.52 			"/>
			<polygon class="st7" points="61.72,103.8 62.92,103.8 62.92,58.14 61.72,56.93 			"/>
			<polygon class="st4" points="61.72,22.65 61.72,56.93 62.92,58.14 62.92,22.65 			"/>
			<polygon class="st7" points="64.13,103.8 65.34,103.8 65.34,60.56 64.13,59.35 			"/>
			<polygon class="st4" points="64.13,22.65 64.13,59.35 65.34,60.56 65.34,22.65 			"/>
		</g>
		<g>
			<rect x="87.73" y="89.54" class="st6" width="1.21" height="7.49"/>
			<polygon class="st6" points="93.7,87.7 92.56,86.57 92.56,87.7 			"/>
			<polygon class="st5" points="98.6,92.61 98.6,89.54 97.4,89.54 97.4,91.4 			"/>
			<rect x="90.15" y="89.54" class="st6" width="1.21" height="7.49"/>
			<rect x="92.56" y="89.54" class="st6" width="1.21" height="7.49"/>
			<polygon class="st6" points="91.36,87.7 91.36,85.36 90.15,84.15 90.15,87.7 			"/>
			<polygon class="st6" points="99.81,97.03 101.02,97.03 101.02,95.02 99.81,93.81 			"/>
			<polygon class="st5" points="96.19,89.54 95.54,89.54 96.19,90.19 			"/>
			<polygon class="st5" points="99.81,89.54 99.81,93.81 101.02,95.02 101.02,89.54 			"/>
			<polygon class="st6" points="95.54,89.54 94.98,89.54 94.98,97.03 96.19,97.03 96.19,90.19 			"/>
			<polygon class="st6" points="97.4,91.4 97.4,97.03 98.6,97.03 98.6,92.61 			"/>
			<rect x="85.17" y="89.54" class="st6" width="1.35" height="7.49"/>
			<polygon class="st6" points="102.23,97.03 103.03,97.03 102.23,96.23 			"/>
			<polygon class="st5" points="102.23,96.23 103.03,97.03 103.62,97.03 103.62,89.54 102.23,89.54 			"/>
			<polygon class="st5" points="88.94,82.77 90.15,82.77 90.15,84.15 91.36,85.36 91.36,82.77 92.56,82.77 92.56,86.57 93.7,87.7 
				93.77,87.7 93.77,82.77 94.98,82.77 94.98,87.7 96.19,87.7 96.19,82.77 97.4,82.77 97.4,87.7 98.6,87.7 98.6,82.77 99.81,82.77 
				99.81,87.7 101.02,87.7 101.02,82.77 102.23,82.77 102.23,87.7 103.62,87.7 103.62,79.18 85.17,79.18 88.94,82.94 			"/>
			<polygon class="st6" points="102.23,103.81 101.02,103.81 101.02,98.88 99.81,98.88 99.81,103.81 98.6,103.81 98.6,98.88 
				97.4,98.88 97.4,103.81 96.19,103.81 96.19,98.88 94.98,98.88 94.98,103.81 93.77,103.81 93.77,98.88 92.56,98.88 92.56,103.81 
				91.36,103.81 91.36,98.88 90.15,98.88 90.15,103.81 88.94,103.81 88.94,98.88 87.73,98.88 87.73,103.81 86.53,103.81 
				86.53,98.88 85.17,98.88 85.17,107.4 103.62,107.4 103.62,98.88 102.23,98.88 			"/>
			<polygon class="st6" points="86.53,82.77 87.73,82.77 87.73,87.7 88.94,87.7 88.94,82.94 85.17,79.18 85.17,87.7 86.53,87.7 			
				"/>
			<rect x="86.53" y="98.88" class="st7" width="1.21" height="4.93"/>
			<rect x="86.53" y="89.54" class="st7" width="1.21" height="7.49"/>
			<rect x="86.53" y="82.77" class="st7" width="1.21" height="4.93"/>
			<polygon class="st4" points="90.15,82.77 88.94,82.77 88.94,82.94 90.15,84.15 			"/>
			<polygon class="st7" points="90.15,84.15 88.94,82.94 88.94,87.7 90.15,87.7 			"/>
			<rect x="88.94" y="98.88" class="st7" width="1.21" height="4.93"/>
			<rect x="88.94" y="89.54" class="st7" width="1.21" height="7.49"/>
			<polygon class="st4" points="92.56,82.77 91.36,82.77 91.36,85.36 92.56,86.57 			"/>
			<rect x="91.36" y="89.54" class="st7" width="1.21" height="7.49"/>
			<polygon class="st7" points="92.56,87.7 92.56,86.57 91.36,85.36 91.36,87.7 			"/>
			<rect x="91.36" y="98.88" class="st7" width="1.21" height="4.93"/>
			<rect x="93.77" y="98.88" class="st7" width="1.21" height="4.93"/>
			<rect x="93.77" y="89.54" class="st7" width="1.21" height="7.49"/>
			<rect x="93.77" y="82.77" class="st4" width="1.21" height="4.93"/>
			<rect x="96.19" y="98.88" class="st7" width="1.21" height="4.93"/>
			<polygon class="st7" points="96.19,90.19 96.19,97.03 97.4,97.03 97.4,91.4 			"/>
			<rect x="96.19" y="82.77" class="st4" width="1.21" height="4.93"/>
			<polygon class="st4" points="97.4,91.4 97.4,89.54 96.19,89.54 96.19,90.19 			"/>
			<polygon class="st7" points="98.6,92.61 98.6,97.03 99.81,97.03 99.81,93.81 			"/>
			<rect x="98.6" y="98.88" class="st7" width="1.21" height="4.93"/>
			<rect x="98.6" y="82.77" class="st4" width="1.21" height="4.93"/>
			<polygon class="st4" points="99.81,93.81 99.81,89.54 98.6,89.54 98.6,92.61 			"/>
			<rect x="101.02" y="82.77" class="st4" width="1.21" height="4.93"/>
			<polygon class="st4" points="101.02,95.02 102.23,96.23 102.23,89.54 101.02,89.54 			"/>
			<rect x="101.02" y="98.88" class="st7" width="1.21" height="4.93"/>
			<polygon class="st7" points="101.02,95.02 101.02,97.03 102.23,97.03 102.23,96.23 			"/>
			<polygon class="st3" points="103.62,97.62 103.62,97.03 103.03,97.03 			"/>
			<polygon class="st5" points="103.03,97.03 102.23,97.03 101.02,97.03 99.81,97.03 98.6,97.03 97.4,97.03 96.19,97.03 
				94.98,97.03 93.77,97.03 92.56,97.03 91.36,97.03 90.15,97.03 88.94,97.03 87.73,97.03 86.53,97.03 85.17,97.03 85.17,98.88 
				86.53,98.88 87.73,98.88 88.94,98.88 90.15,98.88 91.36,98.88 92.56,98.88 93.77,98.88 94.98,98.88 96.19,98.88 97.4,98.88 
				98.6,98.88 99.81,98.88 101.02,98.88 102.23,98.88 103.62,98.88 103.62,97.62 			"/>
			<polygon class="st5" points="94.98,88.98 93.77,87.77 93.7,87.7 92.56,87.7 91.36,87.7 90.15,87.7 88.94,87.7 87.73,87.7 
				86.53,87.7 85.17,87.7 85.17,89.54 86.53,89.54 87.73,89.54 88.94,89.54 90.15,89.54 91.36,89.54 92.56,89.54 93.77,89.54 
				94.98,89.54 95.54,89.54 			"/>
			<polygon class="st3" points="102.23,87.7 101.02,87.7 99.81,87.7 98.6,87.7 97.4,87.7 96.19,87.7 94.98,87.7 93.77,87.7 
				93.7,87.7 93.77,87.77 94.98,88.98 95.54,89.54 96.19,89.54 97.4,89.54 98.6,89.54 99.81,89.54 101.02,89.54 102.23,89.54 
				103.62,89.54 103.62,87.7 			"/>
		</g>
		<rect x="72.33" y="39.57" class="st5" width="7.25" height="3.94"/>
		<rect x="90.75" y="75.24" class="st3" width="7.25" height="3.94"/>
		<g>
			<polygon class="st8" points="94.41,69.06 94.33,69.06 93.87,75.24 94.87,75.24 			"/>
		</g>
		<g>
			<polygon class="st8" points="57.55,0 57.47,0 57.01,6.18 58.01,6.18 			"/>
			<g>
				<rect x="56.24" y="6.18" class="st3" width="1.27" height="1.04"/>
				<rect x="57.51" y="6.18" class="st6" width="1.27" height="1.04"/>
			</g>
		</g>
		<rect y="107.4" class="st7" width="108.77" height="3.86"/>
		<rect x="2.93" y="111.25" class="st6" width="102.91" height="7.76"/>
		<rect y="105.63" class="st3" width="29.84" height="1.77"/>
		<rect x="1.05" y="103.98" class="st1" width="1.59" height="1.65"/>
		<rect x="3.44" y="103.98" class="st1" width="1.59" height="1.65"/>
		<rect x="5.83" y="103.98" class="st1" width="1.59" height="1.65"/>
		<rect x="8.21" y="103.98" class="st1" width="1.59" height="1.65"/>
		<rect x="10.6" y="103.98" class="st1" width="1.59" height="1.65"/>
		<rect x="12.99" y="103.98" class="st1" width="1.59" height="1.65"/>
		<rect x="15.38" y="103.98" class="st1" width="1.59" height="1.65"/>
		<rect x="17.77" y="103.98" class="st1" width="1.59" height="1.65"/>
		<rect x="20.16" y="103.98" class="st1" width="1.59" height="1.65"/>
		<rect x="22.55" y="103.98" class="st1" width="1.59" height="1.65"/>
		<rect x="24.93" y="103.98" class="st1" width="1.59" height="1.65"/>
		<rect x="27.32" y="103.98" class="st1" width="1.59" height="1.65"/>
		<g>
			<polygon class="st9" points="105.84,111.25 2.93,111.25 5.17,113.5 105.84,113.5 			"/>
		</g>
		<g>
			<g>
				<rect x="21.82" y="111.25" class="st10" width="8.02" height="7.75"/>
			</g>
			<rect x="21.82" y="111.25" class="st11" width="8.02" height="0.41"/>
			<rect x="21.82" y="112.07" class="st11" width="8.02" height="0.41"/>
			<rect x="21.82" y="112.88" class="st11" width="8.02" height="0.41"/>
			<rect x="21.82" y="113.7" class="st11" width="8.02" height="0.41"/>
			<rect x="21.82" y="114.51" class="st11" width="8.02" height="0.41"/>
			<rect x="21.82" y="115.33" class="st11" width="8.02" height="0.41"/>
			<rect x="21.82" y="116.15" class="st11" width="8.02" height="0.41"/>
			<rect x="21.82" y="116.96" class="st11" width="8.02" height="0.41"/>
			<rect x="21.82" y="117.78" class="st11" width="8.02" height="0.41"/>
			<rect x="21.82" y="118.59" class="st11" width="8.02" height="0.41"/>
		</g>
	</g>
</g>
</svg>
