<?xml version="1.0" encoding="utf-8"?>
<!-- Generator: Adobe Illustrator 24.0.1, SVG Export Plug-In . SVG Version: 6.00 Build 0)  -->
<svg version="1.1" xmlns="http://www.w3.org/2000/svg" xmlns:xlink="http://www.w3.org/1999/xlink" x="0px" y="0px"
	 viewBox="0 0 90.68 84.93" style="enable-background:new 0 0 90.68 84.93;" xml:space="preserve">
<style type="text/css">
	.st0{fill:#949494;}
	.st1{fill:#C5C5C5;}
	.st2{fill:#3FB7B6;}
	.st3{fill:#2F8989;}
	.st4{fill:#145050;}
	.st5{fill:#1A6B6A;}
	.st6{fill:#E8E8E8;}
	.st7{fill:#AEAEAE;}
	.st8{fill:#894A2F;}
	.st9{fill:#B7623F;}
</style>
<g id="Background_Color">
</g>
<g id="_x32_D_Desktop">
	<g>
		<g>
			<rect x="19.59" y="81.85" class="st0" width="30.19" height="3.09"/>
			<rect x="19.59" y="6.69" class="st1" width="30.19" height="4.17"/>
			<polygon class="st2" points="28.85,20.12 49.78,20.12 49.78,17.03 25.76,17.03 			"/>
			<polygon class="st3" points="25.76,17.03 19.59,17.03 19.59,20.12 28.85,20.12 			"/>
			<polygon class="st2" points="35.02,26.29 49.78,26.29 49.78,23.2 31.94,23.2 			"/>
			<polygon class="st3" points="31.94,23.2 19.59,23.2 19.59,26.29 35.02,26.29 			"/>
			<polygon class="st3" points="38.11,29.37 19.59,29.37 19.59,32.46 41.2,32.46 			"/>
			<polygon class="st2" points="41.2,32.46 49.78,32.46 49.78,29.37 38.11,29.37 			"/>
			<polygon class="st3" points="44.28,35.55 19.59,35.55 19.59,38.63 47.37,38.63 			"/>
			<polygon class="st2" points="47.37,38.63 49.78,38.63 49.78,35.55 44.28,35.55 			"/>
			<rect x="19.59" y="41.72" class="st3" width="30.19" height="3.09"/>
			<rect x="19.59" y="47.89" class="st3" width="30.19" height="3.09"/>
			<rect x="19.59" y="54.07" class="st3" width="30.19" height="3.09"/>
			<rect x="19.59" y="60.24" class="st3" width="30.19" height="3.09"/>
			<rect x="19.59" y="66.41" class="st3" width="30.19" height="3.09"/>
			<rect x="19.59" y="72.59" class="st3" width="30.19" height="3.09"/>
			<rect x="19.59" y="78.76" class="st3" width="30.19" height="3.09"/>
			<polygon class="st4" points="28.85,20.12 19.59,20.12 19.59,23.2 31.94,23.2 			"/>
			<polygon class="st5" points="31.94,23.2 49.78,23.2 49.78,20.12 28.85,20.12 			"/>
			<polygon class="st3" points="19.59,10.86 19.59,13.94 22.68,13.94 			"/>
			<polygon class="st2" points="49.78,13.94 49.78,10.86 19.59,10.86 22.68,13.94 			"/>
			<polygon class="st4" points="22.68,13.94 19.59,13.94 19.59,17.03 25.76,17.03 			"/>
			<polygon class="st5" points="25.76,17.03 49.78,17.03 49.78,13.94 22.68,13.94 			"/>
			<polygon class="st4" points="35.02,26.29 19.59,26.29 19.59,29.37 38.11,29.37 			"/>
			<polygon class="st5" points="38.11,29.37 49.78,29.37 49.78,26.29 35.02,26.29 			"/>
			<polygon class="st5" points="44.28,35.55 49.78,35.55 49.78,32.46 41.2,32.46 			"/>
			<polygon class="st4" points="41.2,32.46 19.59,32.46 19.59,35.55 44.28,35.55 			"/>
			<polygon class="st4" points="47.37,38.63 19.59,38.63 19.59,41.72 49.78,41.72 49.78,41.04 			"/>
			<polygon class="st5" points="49.78,41.04 49.78,38.63 47.37,38.63 			"/>
			<rect x="19.59" y="44.81" class="st4" width="30.19" height="3.09"/>
			<rect x="19.59" y="50.98" class="st4" width="30.19" height="3.09"/>
			<rect x="19.59" y="57.15" class="st4" width="30.19" height="3.09"/>
			<rect x="19.59" y="63.33" class="st4" width="30.19" height="3.09"/>
			<rect x="19.59" y="69.5" class="st4" width="30.19" height="3.09"/>
			<rect x="19.59" y="75.67" class="st4" width="30.19" height="3.09"/>
		</g>
		<g>
			<rect x="1.78" y="13.94" class="st1" width="17.81" height="70.99"/>
			<rect x="3.45" y="17.03" class="st2" width="16.14" height="3.09"/>
			<rect x="3.45" y="23.2" class="st2" width="16.14" height="3.09"/>
			<rect x="3.45" y="29.37" class="st2" width="16.14" height="3.09"/>
			<rect x="3.45" y="35.55" class="st2" width="16.14" height="3.09"/>
			<rect x="3.45" y="41.72" class="st2" width="16.14" height="3.09"/>
			<rect x="3.45" y="47.89" class="st2" width="16.14" height="3.09"/>
			<rect x="3.45" y="54.07" class="st2" width="16.14" height="3.09"/>
			<rect x="3.45" y="60.24" class="st2" width="16.14" height="3.09"/>
			<rect x="3.45" y="66.41" class="st2" width="16.14" height="3.09"/>
			<rect x="3.45" y="72.59" class="st2" width="16.14" height="3.09"/>
			<rect x="3.45" y="78.76" class="st2" width="16.14" height="3.09"/>
			<rect x="3.45" y="20.12" class="st5" width="16.14" height="3.09"/>
			<rect x="3.45" y="26.29" class="st5" width="16.14" height="3.08"/>
			<rect x="3.45" y="32.46" class="st5" width="16.14" height="3.09"/>
			<rect x="3.45" y="38.63" class="st5" width="16.14" height="3.09"/>
			<rect x="3.45" y="44.81" class="st5" width="16.14" height="3.09"/>
			<rect x="3.45" y="50.98" class="st5" width="16.14" height="3.09"/>
			<rect x="3.45" y="57.15" class="st5" width="16.14" height="3.09"/>
			<rect x="3.45" y="63.33" class="st5" width="16.14" height="3.09"/>
			<rect x="3.45" y="69.5" class="st5" width="16.14" height="3.09"/>
			<rect x="3.45" y="75.67" class="st5" width="16.14" height="3.09"/>
		</g>
		<g>
			<rect x="71.72" y="44.81" class="st1" width="16.14" height="40.12"/>
			<rect x="71.72" y="47.89" class="st2" width="16.14" height="3.09"/>
			<rect x="71.72" y="54.07" class="st2" width="16.14" height="3.09"/>
			<rect x="71.72" y="60.24" class="st2" width="16.14" height="3.09"/>
			<rect x="71.72" y="66.41" class="st2" width="16.14" height="3.09"/>
			<rect x="71.72" y="72.59" class="st2" width="16.14" height="3.09"/>
			<rect x="71.72" y="78.76" class="st2" width="16.14" height="3.09"/>
			<rect x="71.72" y="50.98" class="st5" width="16.14" height="3.09"/>
			<rect x="71.72" y="57.15" class="st5" width="16.14" height="3.09"/>
			<rect x="71.72" y="63.33" class="st5" width="16.14" height="3.09"/>
			<rect x="71.72" y="69.5" class="st5" width="16.14" height="3.09"/>
			<rect x="71.72" y="75.67" class="st5" width="16.14" height="3.09"/>
		</g>
		<g>
			<rect x="49.78" y="32.46" class="st1" width="21.94" height="52.47"/>
			<rect x="49.78" y="35.55" class="st2" width="21.94" height="3.09"/>
			<rect x="49.78" y="41.72" class="st2" width="21.94" height="3.09"/>
			<rect x="49.78" y="47.89" class="st2" width="21.94" height="3.09"/>
			<rect x="49.78" y="54.07" class="st2" width="21.94" height="3.09"/>
			<rect x="49.78" y="60.24" class="st2" width="21.94" height="3.09"/>
			<rect x="49.78" y="66.41" class="st2" width="21.94" height="3.09"/>
			<rect x="49.78" y="72.59" class="st2" width="21.94" height="3.09"/>
			<rect x="49.78" y="78.76" class="st2" width="21.94" height="3.09"/>
			<rect x="49.78" y="38.63" class="st5" width="21.94" height="3.09"/>
			<rect x="49.78" y="44.81" class="st5" width="21.94" height="3.09"/>
			<rect x="49.78" y="50.98" class="st5" width="21.94" height="3.09"/>
			<rect x="49.78" y="57.15" class="st5" width="21.94" height="3.09"/>
			<rect x="49.78" y="63.33" class="st5" width="21.94" height="3.09"/>
			<rect x="49.78" y="69.5" class="st5" width="21.94" height="3.09"/>
			<rect x="49.78" y="75.67" class="st5" width="21.94" height="3.09"/>
		</g>
		<rect y="10.86" class="st6" width="19.59" height="6.17"/>
		<rect x="71.71" y="41.72" class="st6" width="18.97" height="6.17"/>
		<rect x="49.78" y="29.37" class="st6" width="24.96" height="6.17"/>
		<rect x="16.87" y="4.68" class="st6" width="35.68" height="6.17"/>
		<rect x="49.78" y="35.55" class="st6" width="1.66" height="46.3"/>
		<rect x="1.78" y="17.03" class="st6" width="1.66" height="64.82"/>
		<rect x="71.72" y="47.89" class="st6" width="1.66" height="33.95"/>
		<g>
			<polygon class="st6" points="21.25,10.86 19.59,10.86 21.25,12.52 			"/>
			<polygon class="st7" points="19.59,10.86 19.59,81.85 21.25,81.85 21.25,12.52 			"/>
		</g>
		<g>
			<rect x="34.71" class="st8" width="12.06" height="4.68"/>
			<rect x="22.65" class="st9" width="12.06" height="4.68"/>
		</g>
	</g>
</g>
</svg>
