<?xml version="1.0" encoding="utf-8"?>
<!-- Generator: Adobe Illustrator 24.0.1, SVG Export Plug-In . SVG Version: 6.00 Build 0)  -->
<svg version="1.1" xmlns="http://www.w3.org/2000/svg" xmlns:xlink="http://www.w3.org/1999/xlink" x="0px" y="0px"
	 viewBox="0 0 59.5 128.75" style="enable-background:new 0 0 59.5 128.75;" xml:space="preserve">
<style type="text/css">
	.st0{fill:#666666;}
	.st1{fill:#4D4D4D;}
	.st2{fill:#C5C5C5;}
	.st3{fill:#E3E3E3;}
	.st4{fill:#9D9D9D;}
	.st5{fill:#3B7272;}
	.st6{fill:#AAAAAA;}
	.st7{fill:#D4D4D4;}
	.st8{fill:#65C5C5;}
	.st9{fill:#1D4646;}
	.st10{fill:#2B6868;}
	.st11{fill:#2C2C2C;}
	.st12{fill:#3A3A3A;}
	.st13{fill:#6C6C6C;}
	.st14{fill:#909090;}
	.st15{fill:#959595;}
	.st16{fill:#7A7A7A;}
</style>
<g id="Background_Color">
</g>
<g id="_x32_D_Desktop">
	<g>
		<g>
			<polygon class="st0" points="13.41,35.53 13.41,26.55 17.52,26.55 17.52,19.83 41.99,19.83 53.6,31.44 53.6,13.03 5.9,13.03 
				5.9,115.82 9.64,115.82 9.64,35.53 			"/>
			<polygon class="st1" points="41.99,19.83 41.99,26.55 46.09,26.55 46.09,35.53 49.87,35.53 49.87,115.82 53.6,115.82 53.6,31.44 
							"/>
			<polygon class="st2" points="46.09,35.53 46.09,26.55 41.99,26.55 41.99,19.83 17.52,19.83 17.52,26.55 13.41,26.55 13.41,35.53 
				9.64,35.53 9.64,115.82 49.87,115.82 49.87,35.53 			"/>
		</g>
		<g>
			<rect x="38.11" y="6.18" class="st3" width="7.25" height="3.94"/>
			<g>
				<polygon class="st4" points="41.77,0 41.7,0 41.24,6.18 42.23,6.18 				"/>
			</g>
		</g>
		<rect x="26.83" y="24.08" class="st5" width="5.84" height="2.39"/>
		<rect x="26.83" y="28.87" class="st5" width="5.84" height="2.4"/>
		<rect x="26.83" y="33.66" class="st5" width="5.84" height="2.4"/>
		<rect x="26.83" y="38.45" class="st5" width="5.84" height="2.4"/>
		<rect x="26.83" y="43.15" class="st5" width="5.84" height="2.4"/>
		<rect x="26.83" y="47.94" class="st5" width="5.84" height="2.4"/>
		<rect x="26.83" y="52.73" class="st5" width="5.84" height="2.4"/>
		<rect x="26.83" y="57.52" class="st5" width="5.84" height="2.4"/>
		<rect x="26.83" y="62.31" class="st5" width="5.84" height="2.4"/>
		<rect x="26.83" y="67.1" class="st5" width="5.84" height="2.4"/>
		<rect x="26.83" y="71.89" class="st5" width="5.84" height="2.4"/>
		<rect x="26.83" y="76.69" class="st5" width="5.84" height="2.39"/>
		<rect x="26.83" y="81.38" class="st5" width="5.84" height="2.39"/>
		<rect x="26.83" y="86.17" class="st5" width="5.84" height="2.4"/>
		<rect x="26.83" y="90.96" class="st5" width="5.84" height="2.4"/>
		<rect x="26.83" y="95.75" class="st5" width="5.84" height="2.4"/>
		<rect x="26.83" y="100.54" class="st5" width="5.84" height="2.4"/>
		<rect x="26.83" y="105.33" class="st5" width="5.84" height="2.4"/>
		<rect x="26.83" y="110.12" class="st5" width="5.84" height="2.4"/>
		<rect x="35.59" y="28.87" class="st5" width="5.84" height="2.4"/>
		<rect x="35.59" y="33.66" class="st5" width="5.84" height="2.4"/>
		<rect x="35.59" y="38.45" class="st5" width="5.84" height="2.4"/>
		<rect x="35.59" y="43.15" class="st5" width="5.84" height="2.4"/>
		<rect x="35.59" y="47.94" class="st5" width="5.84" height="2.4"/>
		<rect x="35.59" y="52.73" class="st5" width="5.84" height="2.4"/>
		<rect x="35.59" y="57.52" class="st5" width="5.84" height="2.4"/>
		<rect x="35.59" y="62.31" class="st5" width="5.84" height="2.4"/>
		<rect x="35.59" y="67.1" class="st5" width="5.84" height="2.4"/>
		<rect x="35.59" y="71.89" class="st5" width="5.84" height="2.4"/>
		<rect x="35.59" y="76.69" class="st5" width="5.84" height="2.39"/>
		<rect x="35.59" y="81.38" class="st5" width="5.84" height="2.39"/>
		<rect x="35.59" y="86.17" class="st5" width="5.84" height="2.4"/>
		<rect x="35.59" y="90.96" class="st5" width="5.84" height="2.4"/>
		<rect x="35.59" y="95.75" class="st5" width="5.84" height="2.4"/>
		<rect x="35.59" y="100.54" class="st5" width="5.84" height="2.4"/>
		<rect x="35.59" y="105.33" class="st5" width="5.84" height="2.4"/>
		<rect x="35.59" y="110.12" class="st5" width="5.84" height="2.4"/>
		<rect x="18.07" y="28.87" class="st5" width="5.84" height="2.4"/>
		<rect x="18.07" y="33.66" class="st5" width="5.84" height="2.4"/>
		<rect x="18.07" y="38.45" class="st5" width="5.84" height="2.4"/>
		<rect x="18.07" y="43.15" class="st5" width="5.84" height="2.4"/>
		<rect x="18.07" y="47.94" class="st5" width="5.84" height="2.4"/>
		<rect x="18.07" y="52.73" class="st5" width="5.84" height="2.4"/>
		<rect x="18.07" y="57.52" class="st5" width="5.84" height="2.4"/>
		<rect x="18.07" y="62.31" class="st5" width="5.84" height="2.4"/>
		<rect x="18.07" y="67.1" class="st5" width="5.84" height="2.4"/>
		<rect x="18.07" y="71.89" class="st5" width="5.84" height="2.4"/>
		<rect x="18.07" y="76.69" class="st5" width="5.84" height="2.39"/>
		<rect x="18.07" y="81.38" class="st5" width="5.84" height="2.39"/>
		<rect x="18.07" y="86.17" class="st5" width="5.84" height="2.4"/>
		<rect x="18.07" y="90.96" class="st5" width="5.84" height="2.4"/>
		<rect x="18.07" y="95.75" class="st5" width="5.84" height="2.4"/>
		<rect x="18.07" y="100.54" class="st5" width="5.84" height="2.4"/>
		<rect x="18.07" y="105.33" class="st5" width="5.84" height="2.4"/>
		<rect x="18.07" y="110.12" class="st5" width="5.84" height="2.4"/>
		<rect x="9.64" y="10.12" class="st6" width="40.23" height="2.99"/>
		<rect x="15.48" y="5.85" class="st7" width="3.61" height="4.26"/>
		<rect x="53.6" y="13.03" class="st8" width="1.44" height="102.8"/>
		<rect x="4.46" y="13.03" class="st8" width="1.45" height="102.8"/>
		<g>
			<rect x="14.31" y="122.46" class="st9" width="2.83" height="6.29"/>
			<rect x="23.66" y="122.46" class="st9" width="2.83" height="6.29"/>
			<rect x="33.01" y="122.46" class="st9" width="2.83" height="6.29"/>
			<rect x="42.36" y="122.46" class="st9" width="2.83" height="6.29"/>
			<polygon class="st9" points="4.82,122.46 7.8,125.44 7.8,122.46 			"/>
			<polygon class="st10" points="4.82,122.46 4.82,120.77 54.68,120.77 59.5,125.59 59.5,115.82 0,115.82 0,128.75 7.8,128.75 
				7.8,125.44 			"/>
			<polygon class="st9" points="54.68,120.77 54.68,122.46 51.7,122.46 51.7,128.75 59.5,128.75 59.5,125.59 			"/>
			<rect x="11.48" y="122.46" class="st11" width="2.83" height="6.29"/>
			<polygon class="st11" points="7.8,125.44 10.63,128.27 10.63,122.46 7.8,122.46 			"/>
			<polygon class="st12" points="7.8,125.44 7.8,128.75 10.63,128.75 10.63,128.27 			"/>
			<polygon class="st13" points="10.63,122.46 10.63,128.27 11.11,128.75 11.48,128.75 11.48,122.46 			"/>
			<polygon class="st14" points="10.63,128.75 11.11,128.75 10.63,128.27 			"/>
			<rect x="17.15" y="122.46" class="st11" width="2.83" height="6.29"/>
			<rect x="20.83" y="122.46" class="st11" width="2.83" height="6.29"/>
			<rect x="19.98" y="122.46" class="st13" width="0.85" height="6.29"/>
			<rect x="26.49" y="122.46" class="st11" width="2.83" height="6.29"/>
			<rect x="30.18" y="122.46" class="st11" width="2.83" height="6.29"/>
			<rect x="29.33" y="122.46" class="st13" width="0.85" height="6.29"/>
			<rect x="39.52" y="122.46" class="st11" width="2.83" height="6.29"/>
			<rect x="35.84" y="122.46" class="st11" width="2.83" height="6.29"/>
			<rect x="38.67" y="122.46" class="st13" width="0.85" height="6.29"/>
			<rect x="48.87" y="122.46" class="st11" width="2.83" height="6.29"/>
			<rect x="45.19" y="122.46" class="st11" width="2.83" height="6.29"/>
			<rect x="48.02" y="122.46" class="st13" width="0.85" height="6.29"/>
		</g>
		<g>
			<polygon class="st15" points="4.82,120.77 4.82,122.46 7.8,122.46 10.63,122.46 11.48,122.46 14.31,122.46 17.15,122.46 
				19.98,122.46 20.83,122.46 23.66,122.46 26.49,122.46 29.33,122.46 29.75,122.46 29.75,120.77 			"/>
			<polygon class="st16" points="29.75,120.77 29.75,122.46 30.18,122.46 33.01,122.46 35.84,122.46 38.67,122.46 39.52,122.46 
				42.36,122.46 45.19,122.46 48.02,122.46 48.87,122.46 51.7,122.46 54.68,122.46 54.68,120.77 			"/>
		</g>
	</g>
</g>
</svg>
